<?xml version="1.0" encoding="UTF-8"?>
<svg version="1.1" xmlns="http://www.w3.org/2000/svg" width="1732" height="576">
<path d="M0 0 C14.52 0 29.04 0 44 0 C44 0.66 44 1.32 44 2 C43.34 2 42.68 2 42 2 C42 52.82 42 103.64 42 156 C96.12 156 150.24 156 206 156 C206 171.18 206 186.36 206 202 C163.76 202 121.52 202 78 202 C78 202.66 78 203.32 78 204 C78.66 204 79.32 204 80 204 C80 204.66 80 205.32 80 206 C80.66 206 81.32 206 82 206 C82 206.66 82 207.32 82 208 C82.66 208 83.32 208 84 208 C84 208.66 84 209.32 84 210 C84.66 210 85.32 210 86 210 C86 210.66 86 211.32 86 212 C86.66 212 87.32 212 88 212 C88 212.66 88 213.32 88 214 C88.66 214 89.32 214 90 214 C90 214.66 90 215.32 90 216 C90.66 216 91.32 216 92 216 C92 216.66 92 217.32 92 218 C92.66 218 93.32 218 94 218 C94 218.66 94 219.32 94 220 C94.66 220 95.32 220 96 220 C96 220.66 96 221.32 96 222 C96.66 222 97.32 222 98 222 C98 222.66 98 223.32 98 224 C98.66 224 99.32 224 100 224 C100 224.66 100 225.32 100 226 C100.66 226 101.32 226 102 226 C102 226.66 102 227.32 102 228 C102.66 228 103.32 228 104 228 C104 228.66 104 229.32 104 230 C104.66 230 105.32 230 106 230 C106 230.66 106 231.32 106 232 C106.66 232 107.32 232 108 232 C108 232.66 108 233.32 108 234 C108.66 234 109.32 234 110 234 C110 234.66 110 235.32 110 236 C110.66 236 111.32 236 112 236 C112 236.66 112 237.32 112 238 C112.66 238 113.32 238 114 238 C114 238.66 114 239.32 114 240 C114.66 240 115.32 240 116 240 C116 240.66 116 241.32 116 242 C116.66 242 117.32 242 118 242 C118 242.66 118 243.32 118 244 C118.66 244 119.32 244 120 244 C120 244.66 120 245.32 120 246 C120.66 246 121.32 246 122 246 C122 246.66 122 247.32 122 248 C122.66 248 123.32 248 124 248 C124 248.66 124 249.32 124 250 C124.66 250 125.32 250 126 250 C126 250.66 126 251.32 126 252 C126.66 252 127.32 252 128 252 C128 252.66 128 253.32 128 254 C128.66 254 129.32 254 130 254 C130 254.66 130 255.32 130 256 C130.66 256 131.32 256 132 256 C132 256.66 132 257.32 132 258 C132.66 258 133.32 258 134 258 C134 258.66 134 259.32 134 260 C134.66 260 135.32 260 136 260 C136 260.66 136 261.32 136 262 C136.66 262 137.32 262 138 262 C138 262.66 138 263.32 138 264 C138.66 264 139.32 264 140 264 C140 264.66 140 265.32 140 266 C140.66 266 141.32 266 142 266 C142 266.66 142 267.32 142 268 C142.66 268 143.32 268 144 268 C144 268.66 144 269.32 144 270 C144.66 270 145.32 270 146 270 C146 270.66 146 271.32 146 272 C146.66 272 147.32 272 148 272 C148 272.66 148 273.32 148 274 C148.66 274 149.32 274 150 274 C150 274.66 150 275.32 150 276 C150.66 276 151.32 276 152 276 C152 276.66 152 277.32 152 278 C152.66 278 153.32 278 154 278 C154 278.66 154 279.32 154 280 C154.66 280 155.32 280 156 280 C156 280.66 156 281.32 156 282 C156.66 282 157.32 282 158 282 C158 282.66 158 283.32 158 284 C158.66 284 159.32 284 160 284 C160 284.66 160 285.32 160 286 C160.66 286 161.32 286 162 286 C162 286.66 162 287.32 162 288 C162.66 288 163.32 288 164 288 C164 289.32 164 290.64 164 292 C163.34 292 162.68 292 162 292 C162 292.66 162 293.32 162 294 C161.34 294 160.68 294 160 294 C160 294.66 160 295.32 160 296 C159.34 296 158.68 296 158 296 C158 296.66 158 297.32 158 298 C157.34 298 156.68 298 156 298 C156 298.66 156 299.32 156 300 C155.34 300 154.68 300 154 300 C154 300.66 154 301.32 154 302 C153.34 302 152.68 302 152 302 C152 302.66 152 303.32 152 304 C151.34 304 150.68 304 150 304 C150 304.66 150 305.32 150 306 C149.34 306 148.68 306 148 306 C148 306.66 148 307.32 148 308 C147.34 308 146.68 308 146 308 C146 308.66 146 309.32 146 310 C145.34 310 144.68 310 144 310 C144 310.66 144 311.32 144 312 C143.34 312 142.68 312 142 312 C142 312.66 142 313.32 142 314 C141.34 314 140.68 314 140 314 C140 314.66 140 315.32 140 316 C139.34 316 138.68 316 138 316 C138 316.66 138 317.32 138 318 C137.34 318 136.68 318 136 318 C136 318.66 136 319.32 136 320 C134.02 320 132.04 320 130 320 C130 318.68 130 317.36 130 316 C129.34 316 128.68 316 128 316 C128 315.34 128 314.68 128 314 C127.34 314 126.68 314 126 314 C126 313.34 126 312.68 126 312 C125.34 312 124.68 312 124 312 C124 311.34 124 310.68 124 310 C123.34 310 122.68 310 122 310 C122 309.34 122 308.68 122 308 C120.68 308 119.36 308 118 308 C118 306.68 118 305.36 118 304 C117.34 304 116.68 304 116 304 C116 303.34 116 302.68 116 302 C115.34 302 114.68 302 114 302 C114 301.34 114 300.68 114 300 C112.68 300 111.36 300 110 300 C110 298.68 110 297.36 110 296 C109.34 296 108.68 296 108 296 C108 295.34 108 294.68 108 294 C107.34 294 106.68 294 106 294 C106 293.34 106 292.68 106 292 C105.34 292 104.68 292 104 292 C104 291.34 104 290.68 104 290 C103.34 290 102.68 290 102 290 C102 289.34 102 288.68 102 288 C101.34 288 100.68 288 100 288 C100 287.34 100 286.68 100 286 C99.34 286 98.68 286 98 286 C98 285.34 98 284.68 98 284 C96.68 284 95.36 284 94 284 C94 282.68 94 281.36 94 280 C93.34 280 92.68 280 92 280 C92 279.34 92 278.68 92 278 C91.34 278 90.68 278 90 278 C90 277.34 90 276.68 90 276 C89.34 276 88.68 276 88 276 C88 275.34 88 274.68 88 274 C87.34 274 86.68 274 86 274 C86 273.34 86 272.68 86 272 C85.34 272 84.68 272 84 272 C84 271.34 84 270.68 84 270 C83.34 270 82.68 270 82 270 C82 269.34 82 268.68 82 268 C81.34 268 80.68 268 80 268 C80 267.34 80 266.68 80 266 C79.34 266 78.68 266 78 266 C78 265.34 78 264.68 78 264 C77.34 264 76.68 264 76 264 C76 263.34 76 262.68 76 262 C75.34 262 74.68 262 74 262 C74 261.34 74 260.68 74 260 C73.34 260 72.68 260 72 260 C72 259.34 72 258.68 72 258 C71.34 258 70.68 258 70 258 C70 257.34 70 256.68 70 256 C69.34 256 68.68 256 68 256 C68 255.34 68 254.68 68 254 C67.34 254 66.68 254 66 254 C66 253.34 66 252.68 66 252 C65.34 252 64.68 252 64 252 C64 251.34 64 250.68 64 250 C63.34 250 62.68 250 62 250 C62 249.34 62 248.68 62 248 C61.34 248 60.68 248 60 248 C60 247.34 60 246.68 60 246 C59.34 246 58.68 246 58 246 C58 245.34 58 244.68 58 244 C57.34 244 56.68 244 56 244 C56 243.34 56 242.68 56 242 C55.34 242 54.68 242 54 242 C54 241.34 54 240.68 54 240 C53.34 240 52.68 240 52 240 C52 239.34 52 238.68 52 238 C51.34 238 50.68 238 50 238 C50 237.34 50 236.68 50 236 C49.34 236 48.68 236 48 236 C48 235.34 48 234.68 48 234 C47.34 234 46.68 234 46 234 C46 233.34 46 232.68 46 232 C45.34 232 44.68 232 44 232 C44 273.58 44 315.16 44 358 C29.48 358 14.96 358 0 358 C0 317.08 0 276.16 0 234 C-0.66 234 -1.32 234 -2 234 C-2 234.66 -2 235.32 -2 236 C-2.66 236 -3.32 236 -4 236 C-4 236.66 -4 237.32 -4 238 C-4.66 238 -5.32 238 -6 238 C-6 238.66 -6 239.32 -6 240 C-6.66 240 -7.32 240 -8 240 C-8 240.66 -8 241.32 -8 242 C-8.66 242 -9.32 242 -10 242 C-10 242.66 -10 243.32 -10 244 C-10.66 244 -11.32 244 -12 244 C-12 244.66 -12 245.32 -12 246 C-12.66 246 -13.32 246 -14 246 C-14 246.66 -14 247.32 -14 248 C-14.66 248 -15.32 248 -16 248 C-16 248.66 -16 249.32 -16 250 C-16.66 250 -17.32 250 -18 250 C-18 250.66 -18 251.32 -18 252 C-18.66 252 -19.32 252 -20 252 C-20 252.66 -20 253.32 -20 254 C-20.66 254 -21.32 254 -22 254 C-22 254.66 -22 255.32 -22 256 C-22.66 256 -23.32 256 -24 256 C-24 256.66 -24 257.32 -24 258 C-24.66 258 -25.32 258 -26 258 C-26 258.66 -26 259.32 -26 260 C-26.66 260 -27.32 260 -28 260 C-28 260.66 -28 261.32 -28 262 C-28.66 262 -29.32 262 -30 262 C-30 262.66 -30 263.32 -30 264 C-30.66 264 -31.32 264 -32 264 C-32 264.66 -32 265.32 -32 266 C-32.66 266 -33.32 266 -34 266 C-34 266.66 -34 267.32 -34 268 C-34.66 268 -35.32 268 -36 268 C-36 268.66 -36 269.32 -36 270 C-36.66 270 -37.32 270 -38 270 C-38 270.66 -38 271.32 -38 272 C-38.66 272 -39.32 272 -40 272 C-40 272.66 -40 273.32 -40 274 C-40.66 274 -41.32 274 -42 274 C-42 274.66 -42 275.32 -42 276 C-42.66 276 -43.32 276 -44 276 C-44 276.66 -44 277.32 -44 278 C-44.66 278 -45.32 278 -46 278 C-46 278.66 -46 279.32 -46 280 C-46.66 280 -47.32 280 -48 280 C-48 280.66 -48 281.32 -48 282 C-48.66 282 -49.32 282 -50 282 C-50 282.66 -50 283.32 -50 284 C-50.66 284 -51.32 284 -52 284 C-52 284.66 -52 285.32 -52 286 C-52.66 286 -53.32 286 -54 286 C-54 286.66 -54 287.32 -54 288 C-54.66 288 -55.32 288 -56 288 C-56 288.66 -56 289.32 -56 290 C-56.66 290 -57.32 290 -58 290 C-58 290.66 -58 291.32 -58 292 C-58.66 292 -59.32 292 -60 292 C-60 292.66 -60 293.32 -60 294 C-60.66 294 -61.32 294 -62 294 C-62 294.66 -62 295.32 -62 296 C-62.66 296 -63.32 296 -64 296 C-64 296.66 -64 297.32 -64 298 C-64.66 298 -65.32 298 -66 298 C-66 298.66 -66 299.32 -66 300 C-66.66 300 -67.32 300 -68 300 C-68 300.66 -68 301.32 -68 302 C-68.66 302 -69.32 302 -70 302 C-70 302.66 -70 303.32 -70 304 C-70.66 304 -71.32 304 -72 304 C-72 304.66 -72 305.32 -72 306 C-72.66 306 -73.32 306 -74 306 C-74 306.66 -74 307.32 -74 308 C-74.66 308 -75.32 308 -76 308 C-76 308.66 -76 309.32 -76 310 C-76.66 310 -77.32 310 -78 310 C-78 310.66 -78 311.32 -78 312 C-78.66 312 -79.32 312 -80 312 C-80 312.66 -80 313.32 -80 314 C-80.66 314 -81.32 314 -82 314 C-82 314.66 -82 315.32 -82 316 C-82.66 316 -83.32 316 -84 316 C-84 316.66 -84 317.32 -84 318 C-84.66 318 -85.32 318 -86 318 C-86 318.66 -86 319.32 -86 320 C-86.66 320 -87.32 320 -88 320 C-88 320.66 -88 321.32 -88 322 C-88.66 322 -89.32 322 -90 322 C-90 322.66 -90 323.32 -90 324 C-90.66 324 -91.32 324 -92 324 C-92 324.66 -92 325.32 -92 326 C-92.66 326 -93.32 326 -94 326 C-94 325.34 -94 324.68 -94 324 C-94.66 324 -95.32 324 -96 324 C-96 323.34 -96 322.68 -96 322 C-96.66 322 -97.32 322 -98 322 C-98 321.34 -98 320.68 -98 320 C-98.66 320 -99.32 320 -100 320 C-100 319.34 -100 318.68 -100 318 C-100.66 318 -101.32 318 -102 318 C-102 317.34 -102 316.68 -102 316 C-102.66 316 -103.32 316 -104 316 C-104 315.34 -104 314.68 -104 314 C-104.66 314 -105.32 314 -106 314 C-106 313.34 -106 312.68 -106 312 C-106.66 312 -107.32 312 -108 312 C-108 311.34 -108 310.68 -108 310 C-108.66 310 -109.32 310 -110 310 C-110 309.34 -110 308.68 -110 308 C-110.66 308 -111.32 308 -112 308 C-112 307.34 -112 306.68 -112 306 C-112.66 306 -113.32 306 -114 306 C-114 305.34 -114 304.68 -114 304 C-114.66 304 -115.32 304 -116 304 C-116 303.34 -116 302.68 -116 302 C-116.66 302 -117.32 302 -118 302 C-118 301.34 -118 300.68 -118 300 C-118.66 300 -119.32 300 -120 300 C-120 299.34 -120 298.68 -120 298 C-120.66 298 -121.32 298 -122 298 C-122 297.34 -122 296.68 -122 296 C-122.66 296 -123.32 296 -124 296 C-124 295.34 -124 294.68 -124 294 C-124.66 294 -125.32 294 -126 294 C-126 293.34 -126 292.68 -126 292 C-125.34 292 -124.68 292 -124 292 C-124 291.34 -124 290.68 -124 290 C-123.34 290 -122.68 290 -122 290 C-122 289.34 -122 288.68 -122 288 C-121.34 288 -120.68 288 -120 288 C-120 287.34 -120 286.68 -120 286 C-119.34 286 -118.68 286 -118 286 C-118 285.34 -118 284.68 -118 284 C-117.34 284 -116.68 284 -116 284 C-116 283.34 -116 282.68 -116 282 C-115.34 282 -114.68 282 -114 282 C-114 281.34 -114 280.68 -114 280 C-113.34 280 -112.68 280 -112 280 C-112 279.34 -112 278.68 -112 278 C-111.34 278 -110.68 278 -110 278 C-110 277.34 -110 276.68 -110 276 C-109.34 276 -108.68 276 -108 276 C-108 275.34 -108 274.68 -108 274 C-107.34 274 -106.68 274 -106 274 C-106 273.34 -106 272.68 -106 272 C-105.34 272 -104.68 272 -104 272 C-104 271.34 -104 270.68 -104 270 C-103.34 270 -102.68 270 -102 270 C-102 269.34 -102 268.68 -102 268 C-101.34 268 -100.68 268 -100 268 C-100 267.34 -100 266.68 -100 266 C-99.34 266 -98.68 266 -98 266 C-98 265.34 -98 264.68 -98 264 C-97.34 264 -96.68 264 -96 264 C-96 263.34 -96 262.68 -96 262 C-95.34 262 -94.68 262 -94 262 C-94 261.34 -94 260.68 -94 260 C-93.34 260 -92.68 260 -92 260 C-92 259.34 -92 258.68 -92 258 C-91.34 258 -90.68 258 -90 258 C-90 257.34 -90 256.68 -90 256 C-89.34 256 -88.68 256 -88 256 C-88 255.34 -88 254.68 -88 254 C-87.34 254 -86.68 254 -86 254 C-86 253.34 -86 252.68 -86 252 C-85.34 252 -84.68 252 -84 252 C-84 251.34 -84 250.68 -84 250 C-83.34 250 -82.68 250 -82 250 C-82 249.34 -82 248.68 -82 248 C-81.34 248 -80.68 248 -80 248 C-80 247.34 -80 246.68 -80 246 C-79.34 246 -78.68 246 -78 246 C-78 245.34 -78 244.68 -78 244 C-77.34 244 -76.68 244 -76 244 C-76 243.34 -76 242.68 -76 242 C-75.34 242 -74.68 242 -74 242 C-74 241.34 -74 240.68 -74 240 C-73.34 240 -72.68 240 -72 240 C-72 239.34 -72 238.68 -72 238 C-71.34 238 -70.68 238 -70 238 C-70 237.34 -70 236.68 -70 236 C-69.34 236 -68.68 236 -68 236 C-68 235.34 -68 234.68 -68 234 C-67.34 234 -66.68 234 -66 234 C-66 233.34 -66 232.68 -66 232 C-65.34 232 -64.68 232 -64 232 C-64 231.34 -64 230.68 -64 230 C-63.34 230 -62.68 230 -62 230 C-62 229.34 -62 228.68 -62 228 C-61.34 228 -60.68 228 -60 228 C-60 227.34 -60 226.68 -60 226 C-59.34 226 -58.68 226 -58 226 C-58 225.34 -58 224.68 -58 224 C-57.34 224 -56.68 224 -56 224 C-56 223.34 -56 222.68 -56 222 C-55.34 222 -54.68 222 -54 222 C-54 221.34 -54 220.68 -54 220 C-53.34 220 -52.68 220 -52 220 C-52 219.34 -52 218.68 -52 218 C-51.34 218 -50.68 218 -50 218 C-50 217.34 -50 216.68 -50 216 C-49.34 216 -48.68 216 -48 216 C-48 215.34 -48 214.68 -48 214 C-47.34 214 -46.68 214 -46 214 C-46 213.34 -46 212.68 -46 212 C-45.34 212 -44.68 212 -44 212 C-44 211.34 -44 210.68 -44 210 C-43.34 210 -42.68 210 -42 210 C-42 209.34 -42 208.68 -42 208 C-41.34 208 -40.68 208 -40 208 C-40 207.34 -40 206.68 -40 206 C-39.34 206 -38.68 206 -38 206 C-38 205.34 -38 204.68 -38 204 C-37.34 204 -36.68 204 -36 204 C-36 203.34 -36 202.68 -36 202 C-78.24 202 -120.48 202 -164 202 C-164 186.82 -164 171.64 -164 156 C-120.44 156 -76.88 156 -32 156 C-32 155.34 -32 154.68 -32 154 C-32.66 154 -33.32 154 -34 154 C-34 153.34 -34 152.68 -34 152 C-34.66 152 -35.32 152 -36 152 C-36 151.34 -36 150.68 -36 150 C-36.66 150 -37.32 150 -38 150 C-38 149.34 -38 148.68 -38 148 C-38.66 148 -39.32 148 -40 148 C-40 147.34 -40 146.68 -40 146 C-40.66 146 -41.32 146 -42 146 C-42 145.34 -42 144.68 -42 144 C-42.66 144 -43.32 144 -44 144 C-44 143.34 -44 142.68 -44 142 C-44.66 142 -45.32 142 -46 142 C-46 141.34 -46 140.68 -46 140 C-46.66 140 -47.32 140 -48 140 C-48 139.34 -48 138.68 -48 138 C-48.66 138 -49.32 138 -50 138 C-50 137.34 -50 136.68 -50 136 C-50.66 136 -51.32 136 -52 136 C-52 135.34 -52 134.68 -52 134 C-52.66 134 -53.32 134 -54 134 C-54 133.34 -54 132.68 -54 132 C-54.66 132 -55.32 132 -56 132 C-56 131.34 -56 130.68 -56 130 C-56.66 130 -57.32 130 -58 130 C-58 129.34 -58 128.68 -58 128 C-58.66 128 -59.32 128 -60 128 C-60 127.34 -60 126.68 -60 126 C-60.66 126 -61.32 126 -62 126 C-62 125.34 -62 124.68 -62 124 C-62.66 124 -63.32 124 -64 124 C-64 123.34 -64 122.68 -64 122 C-64.66 122 -65.32 122 -66 122 C-66 121.34 -66 120.68 -66 120 C-66.66 120 -67.32 120 -68 120 C-68 119.34 -68 118.68 -68 118 C-68.66 118 -69.32 118 -70 118 C-70 117.34 -70 116.68 -70 116 C-70.66 116 -71.32 116 -72 116 C-72 115.34 -72 114.68 -72 114 C-72.66 114 -73.32 114 -74 114 C-74 113.34 -74 112.68 -74 112 C-74.66 112 -75.32 112 -76 112 C-76 111.34 -76 110.68 -76 110 C-76.66 110 -77.32 110 -78 110 C-78 109.34 -78 108.68 -78 108 C-78.66 108 -79.32 108 -80 108 C-80 107.34 -80 106.68 -80 106 C-80.66 106 -81.32 106 -82 106 C-82 105.34 -82 104.68 -82 104 C-82.66 104 -83.32 104 -84 104 C-84 103.34 -84 102.68 -84 102 C-84.66 102 -85.32 102 -86 102 C-86 101.34 -86 100.68 -86 100 C-86.66 100 -87.32 100 -88 100 C-88 99.34 -88 98.68 -88 98 C-88.66 98 -89.32 98 -90 98 C-90 97.34 -90 96.68 -90 96 C-90.66 96 -91.32 96 -92 96 C-92 95.34 -92 94.68 -92 94 C-92.66 94 -93.32 94 -94 94 C-94 93.34 -94 92.68 -94 92 C-94.66 92 -95.32 92 -96 92 C-96 91.34 -96 90.68 -96 90 C-96.66 90 -97.32 90 -98 90 C-98 89.34 -98 88.68 -98 88 C-98.66 88 -99.32 88 -100 88 C-100 87.34 -100 86.68 -100 86 C-100.66 86 -101.32 86 -102 86 C-102 85.34 -102 84.68 -102 84 C-102.66 84 -103.32 84 -104 84 C-104 83.34 -104 82.68 -104 82 C-104.66 82 -105.32 82 -106 82 C-106 81.34 -106 80.68 -106 80 C-106.66 80 -107.32 80 -108 80 C-108 79.34 -108 78.68 -108 78 C-108.66 78 -109.32 78 -110 78 C-110 77.34 -110 76.68 -110 76 C-110.66 76 -111.32 76 -112 76 C-112 75.34 -112 74.68 -112 74 C-112.66 74 -113.32 74 -114 74 C-114 73.34 -114 72.68 -114 72 C-114.66 72 -115.32 72 -116 72 C-116 71.34 -116 70.68 -116 70 C-117.32 70 -118.64 70 -120 70 C-120 68.02 -120 66.04 -120 64 C-118.68 64 -117.36 64 -116 64 C-116 63.34 -116 62.68 -116 62 C-115.34 62 -114.68 62 -114 62 C-114 61.34 -114 60.68 -114 60 C-113.34 60 -112.68 60 -112 60 C-112 59.34 -112 58.68 -112 58 C-111.34 58 -110.68 58 -110 58 C-110 57.34 -110 56.68 -110 56 C-109.34 56 -108.68 56 -108 56 C-108 55.34 -108 54.68 -108 54 C-107.34 54 -106.68 54 -106 54 C-106 53.34 -106 52.68 -106 52 C-105.34 52 -104.68 52 -104 52 C-104 51.34 -104 50.68 -104 50 C-103.34 50 -102.68 50 -102 50 C-102 49.34 -102 48.68 -102 48 C-101.34 48 -100.68 48 -100 48 C-100 47.34 -100 46.68 -100 46 C-99.34 46 -98.68 46 -98 46 C-98 45.34 -98 44.68 -98 44 C-97.34 44 -96.68 44 -96 44 C-96 43.34 -96 42.68 -96 42 C-95.34 42 -94.68 42 -94 42 C-94 41.34 -94 40.68 -94 40 C-93.34 40 -92.68 40 -92 40 C-92 39.34 -92 38.68 -92 38 C-91.34 38 -90.68 38 -90 38 C-90 37.34 -90 36.68 -90 36 C-89.34 36 -88.68 36 -88 36 C-88 36.66 -88 37.32 -88 38 C-87.34 38 -86.68 38 -86 38 C-86 38.66 -86 39.32 -86 40 C-85.34 40 -84.68 40 -84 40 C-84 40.66 -84 41.32 -84 42 C-83.34 42 -82.68 42 -82 42 C-82 42.66 -82 43.32 -82 44 C-81.34 44 -80.68 44 -80 44 C-80 44.66 -80 45.32 -80 46 C-79.34 46 -78.68 46 -78 46 C-78 46.66 -78 47.32 -78 48 C-77.34 48 -76.68 48 -76 48 C-76 48.66 -76 49.32 -76 50 C-75.34 50 -74.68 50 -74 50 C-74 50.66 -74 51.32 -74 52 C-73.34 52 -72.68 52 -72 52 C-72 52.66 -72 53.32 -72 54 C-71.34 54 -70.68 54 -70 54 C-70 54.66 -70 55.32 -70 56 C-69.34 56 -68.68 56 -68 56 C-68 56.66 -68 57.32 -68 58 C-67.34 58 -66.68 58 -66 58 C-66 58.66 -66 59.32 -66 60 C-65.34 60 -64.68 60 -64 60 C-64 60.66 -64 61.32 -64 62 C-63.34 62 -62.68 62 -62 62 C-62 62.66 -62 63.32 -62 64 C-61.34 64 -60.68 64 -60 64 C-60 64.66 -60 65.32 -60 66 C-59.34 66 -58.68 66 -58 66 C-58 66.66 -58 67.32 -58 68 C-57.34 68 -56.68 68 -56 68 C-56 68.66 -56 69.32 -56 70 C-55.34 70 -54.68 70 -54 70 C-54 70.66 -54 71.32 -54 72 C-53.34 72 -52.68 72 -52 72 C-52 72.66 -52 73.32 -52 74 C-51.34 74 -50.68 74 -50 74 C-50 74.66 -50 75.32 -50 76 C-49.34 76 -48.68 76 -48 76 C-48 76.66 -48 77.32 -48 78 C-47.34 78 -46.68 78 -46 78 C-46 78.66 -46 79.32 -46 80 C-45.34 80 -44.68 80 -44 80 C-44 80.66 -44 81.32 -44 82 C-43.34 82 -42.68 82 -42 82 C-42 82.66 -42 83.32 -42 84 C-41.34 84 -40.68 84 -40 84 C-40 84.66 -40 85.32 -40 86 C-39.34 86 -38.68 86 -38 86 C-38 86.66 -38 87.32 -38 88 C-37.34 88 -36.68 88 -36 88 C-36 88.66 -36 89.32 -36 90 C-35.34 90 -34.68 90 -34 90 C-34 90.66 -34 91.32 -34 92 C-33.34 92 -32.68 92 -32 92 C-32 92.66 -32 93.32 -32 94 C-31.34 94 -30.68 94 -30 94 C-30 94.66 -30 95.32 -30 96 C-29.34 96 -28.68 96 -28 96 C-28 96.66 -28 97.32 -28 98 C-27.34 98 -26.68 98 -26 98 C-26 98.66 -26 99.32 -26 100 C-25.34 100 -24.68 100 -24 100 C-24 100.66 -24 101.32 -24 102 C-23.34 102 -22.68 102 -22 102 C-22 102.66 -22 103.32 -22 104 C-21.34 104 -20.68 104 -20 104 C-20 104.66 -20 105.32 -20 106 C-19.34 106 -18.68 106 -18 106 C-18 106.66 -18 107.32 -18 108 C-17.34 108 -16.68 108 -16 108 C-16 108.66 -16 109.32 -16 110 C-15.34 110 -14.68 110 -14 110 C-14 110.66 -14 111.32 -14 112 C-13.34 112 -12.68 112 -12 112 C-12 112.66 -12 113.32 -12 114 C-11.34 114 -10.68 114 -10 114 C-10 114.66 -10 115.32 -10 116 C-9.34 116 -8.68 116 -8 116 C-8 116.66 -8 117.32 -8 118 C-7.34 118 -6.68 118 -6 118 C-6 118.66 -6 119.32 -6 120 C-5.34 120 -4.68 120 -4 120 C-4 120.66 -4 121.32 -4 122 C-3.34 122 -2.68 122 -2 122 C-2 122.66 -2 123.32 -2 124 C-1.34 124 -0.68 124 0 124 C0 83.08 0 42.16 0 0 Z " fill="#000000" transform="translate(220,106)"/>
<path d="M0 0 C29.7 0 59.4 0 90 0 C90 0.66 90 1.32 90 2 C93.3 2 96.6 2 100 2 C100 2.66 100 3.32 100 4 C101.98 4 103.96 4 106 4 C106 4.66 106 5.32 106 6 C107.32 6 108.64 6 110 6 C110 6.66 110 7.32 110 8 C111.98 8 113.96 8 116 8 C116 8.66 116 9.32 116 10 C116.66 10 117.32 10 118 10 C118 10.66 118 11.32 118 12 C119.32 12 120.64 12 122 12 C122 12.66 122 13.32 122 14 C122.66 14 123.32 14 124 14 C124 14.66 124 15.32 124 16 C124.66 16 125.32 16 126 16 C126 16.66 126 17.32 126 18 C126.66 18 127.32 18 128 18 C128 18.66 128 19.32 128 20 C128.66 20 129.32 20 130 20 C130 20.66 130 21.32 130 22 C130.66 22 131.32 22 132 22 C132 22.66 132 23.32 132 24 C132.66 24 133.32 24 134 24 C134 24.66 134 25.32 134 26 C134.66 26 135.32 26 136 26 C136 26.66 136 27.32 136 28 C136.66 28 137.32 28 138 28 C138 29.32 138 30.64 138 32 C138.66 32 139.32 32 140 32 C140 33.32 140 34.64 140 36 C140.66 36 141.32 36 142 36 C142 37.32 142 38.64 142 40 C142.66 40 143.32 40 144 40 C144 41.98 144 43.96 144 46 C144.66 46 145.32 46 146 46 C146 48.64 146 51.28 146 54 C146.66 54 147.32 54 148 54 C148 61.92 148 69.84 148 78 C147.34 78 146.68 78 146 78 C146 80.64 146 83.28 146 86 C145.34 86 144.68 86 144 86 C144 87.98 144 89.96 144 92 C143.34 92 142.68 92 142 92 C142 93.98 142 95.96 142 98 C141.34 98 140.68 98 140 98 C140 98.66 140 99.32 140 100 C139.34 100 138.68 100 138 100 C138 101.32 138 102.64 138 104 C137.34 104 136.68 104 136 104 C136 105.32 136 106.64 136 108 C135.34 108 134.68 108 134 108 C134 108.66 134 109.32 134 110 C133.34 110 132.68 110 132 110 C132 110.66 132 111.32 132 112 C131.34 112 130.68 112 130 112 C130 112.66 130 113.32 130 114 C129.34 114 128.68 114 128 114 C128 114.66 128 115.32 128 116 C127.34 116 126.68 116 126 116 C126 116.66 126 117.32 126 118 C125.34 118 124.68 118 124 118 C124 118.66 124 119.32 124 120 C122.68 120 121.36 120 120 120 C120 120.66 120 121.32 120 122 C119.34 122 118.68 122 118 122 C118 122.66 118 123.32 118 124 C116.68 124 115.36 124 114 124 C114 124.66 114 125.32 114 126 C112.68 126 111.36 126 110 126 C110 126.66 110 127.32 110 128 C108.02 128 106.04 128 104 128 C104 128.66 104 129.32 104 130 C101.36 130 98.72 130 96 130 C96 130.66 96 131.32 96 132 C76.2 132 56.4 132 36 132 C36 151.8 36 171.6 36 192 C23.46 192 10.92 192 -2 192 C-2 129.3 -2 66.6 -2 2 C-1.34 2 -0.68 2 0 2 C0 1.34 0 0.68 0 0 Z M36 34 C36 55.12 36 76.24 36 98 C53.82 98 71.64 98 90 98 C90 97.34 90 96.68 90 96 C91.32 96 92.64 96 94 96 C94 95.34 94 94.68 94 94 C94.66 94 95.32 94 96 94 C96 93.34 96 92.68 96 92 C97.32 92 98.64 92 100 92 C100 91.34 100 90.68 100 90 C100.66 90 101.32 90 102 90 C102 88.68 102 87.36 102 86 C102.66 86 103.32 86 104 86 C104 85.34 104 84.68 104 84 C104.66 84 105.32 84 106 84 C106 82.68 106 81.36 106 80 C106.66 80 107.32 80 108 80 C108 78.02 108 76.04 108 74 C108.66 74 109.32 74 110 74 C110 68.72 110 63.44 110 58 C109.34 58 108.68 58 108 58 C108 56.02 108 54.04 108 52 C107.34 52 106.68 52 106 52 C106 51.34 106 50.68 106 50 C105.34 50 104.68 50 104 50 C104 48.68 104 47.36 104 46 C103.34 46 102.68 46 102 46 C102 45.34 102 44.68 102 44 C101.34 44 100.68 44 100 44 C100 43.34 100 42.68 100 42 C99.34 42 98.68 42 98 42 C98 41.34 98 40.68 98 40 C96.68 40 95.36 40 94 40 C94 39.34 94 38.68 94 38 C93.34 38 92.68 38 92 38 C92 37.34 92 36.68 92 36 C90.02 36 88.04 36 86 36 C86 35.34 86 34.68 86 34 C69.5 34 53 34 36 34 Z " fill="#000000" transform="translate(512,230)"/>
<path d="M0 0 C29.7 0 59.4 0 90 0 C90 0.66 90 1.32 90 2 C93.3 2 96.6 2 100 2 C100 2.66 100 3.32 100 4 C101.98 4 103.96 4 106 4 C106 4.66 106 5.32 106 6 C107.98 6 109.96 6 112 6 C112 6.66 112 7.32 112 8 C113.32 8 114.64 8 116 8 C116 8.66 116 9.32 116 10 C116.66 10 117.32 10 118 10 C118 10.66 118 11.32 118 12 C119.32 12 120.64 12 122 12 C122 12.66 122 13.32 122 14 C122.66 14 123.32 14 124 14 C124 14.66 124 15.32 124 16 C124.66 16 125.32 16 126 16 C126 16.66 126 17.32 126 18 C126.66 18 127.32 18 128 18 C128 18.66 128 19.32 128 20 C128.66 20 129.32 20 130 20 C130 20.66 130 21.32 130 22 C130.66 22 131.32 22 132 22 C132 22.66 132 23.32 132 24 C132.66 24 133.32 24 134 24 C134 24.66 134 25.32 134 26 C134.66 26 135.32 26 136 26 C136 26.66 136 27.32 136 28 C136.66 28 137.32 28 138 28 C138 29.32 138 30.64 138 32 C138.66 32 139.32 32 140 32 C140 33.32 140 34.64 140 36 C140.66 36 141.32 36 142 36 C142 37.32 142 38.64 142 40 C142.66 40 143.32 40 144 40 C144 41.98 144 43.96 144 46 C144.66 46 145.32 46 146 46 C146 49.3 146 52.6 146 56 C146.66 56 147.32 56 148 56 C148 62.6 148 69.2 148 76 C147.34 76 146.68 76 146 76 C146 79.96 146 83.92 146 88 C145.34 88 144.68 88 144 88 C144 89.98 144 91.96 144 94 C143.34 94 142.68 94 142 94 C142 95.32 142 96.64 142 98 C141.34 98 140.68 98 140 98 C140 99.32 140 100.64 140 102 C139.34 102 138.68 102 138 102 C138 102.66 138 103.32 138 104 C137.34 104 136.68 104 136 104 C136 105.32 136 106.64 136 108 C135.34 108 134.68 108 134 108 C134 108.66 134 109.32 134 110 C133.34 110 132.68 110 132 110 C132 110.66 132 111.32 132 112 C131.34 112 130.68 112 130 112 C130 112.66 130 113.32 130 114 C129.34 114 128.68 114 128 114 C128 114.66 128 115.32 128 116 C127.34 116 126.68 116 126 116 C126 116.66 126 117.32 126 118 C125.34 118 124.68 118 124 118 C124 118.66 124 119.32 124 120 C122.68 120 121.36 120 120 120 C120 120.66 120 121.32 120 122 C119.34 122 118.68 122 118 122 C118 122.66 118 123.32 118 124 C116.68 124 115.36 124 114 124 C114 124.66 114 125.32 114 126 C112.68 126 111.36 126 110 126 C110 126.66 110 127.32 110 128 C108.02 128 106.04 128 104 128 C104 128.66 104 129.32 104 130 C101.36 130 98.72 130 96 130 C96 130.66 96 131.32 96 132 C76.2 132 56.4 132 36 132 C36 151.8 36 171.6 36 192 C24.12 192 12.24 192 0 192 C0 128.64 0 65.28 0 0 Z M36 34 C36 55.12 36 76.24 36 98 C53.82 98 71.64 98 90 98 C90 97.34 90 96.68 90 96 C91.32 96 92.64 96 94 96 C94 95.34 94 94.68 94 94 C94.66 94 95.32 94 96 94 C96 93.34 96 92.68 96 92 C97.32 92 98.64 92 100 92 C100 91.34 100 90.68 100 90 C100.66 90 101.32 90 102 90 C102 89.34 102 88.68 102 88 C102.66 88 103.32 88 104 88 C104 86.68 104 85.36 104 84 C104.66 84 105.32 84 106 84 C106 82.68 106 81.36 106 80 C106.66 80 107.32 80 108 80 C108 78.02 108 76.04 108 74 C108.66 74 109.32 74 110 74 C110 68.72 110 63.44 110 58 C109.34 58 108.68 58 108 58 C108 56.02 108 54.04 108 52 C107.34 52 106.68 52 106 52 C106 50.68 106 49.36 106 48 C105.34 48 104.68 48 104 48 C104 47.34 104 46.68 104 46 C103.34 46 102.68 46 102 46 C102 45.34 102 44.68 102 44 C101.34 44 100.68 44 100 44 C100 43.34 100 42.68 100 42 C99.34 42 98.68 42 98 42 C98 41.34 98 40.68 98 40 C97.34 40 96.68 40 96 40 C96 39.34 96 38.68 96 38 C94.68 38 93.36 38 92 38 C92 37.34 92 36.68 92 36 C90.02 36 88.04 36 86 36 C86 35.34 86 34.68 86 34 C69.5 34 53 34 36 34 Z " fill="#000000" transform="translate(1114,230)"/>
<path d="M0 0 C66 0 132 0 200 0 C200 62.04 200 124.08 200 188 C184.82 188 169.64 188 154 188 C154 140.48 154 92.96 154 44 C103.18 44 52.36 44 0 44 C0 29.48 0 14.96 0 0 Z " fill="#39B4FB" transform="translate(280,52)"/>
<path d="M0 0 C5.94 0 11.88 0 18 0 C18 0.66 18 1.32 18 2 C21.3 2 24.6 2 28 2 C28 2.66 28 3.32 28 4 C30.64 4 33.28 4 36 4 C36 4.66 36 5.32 36 6 C37.32 6 38.64 6 40 6 C40 6.66 40 7.32 40 8 C41.32 8 42.64 8 44 8 C44 8.66 44 9.32 44 10 C45.32 10 46.64 10 48 10 C48 10.66 48 11.32 48 12 C48.66 12 49.32 12 50 12 C50 12.66 50 13.32 50 14 C51.32 14 52.64 14 54 14 C54 14.66 54 15.32 54 16 C54.66 16 55.32 16 56 16 C56 16.66 56 17.32 56 18 C56.66 18 57.32 18 58 18 C58 18.66 58 19.32 58 20 C58.66 20 59.32 20 60 20 C60 20.66 60 21.32 60 22 C60.66 22 61.32 22 62 22 C62 22.66 62 23.32 62 24 C62.66 24 63.32 24 64 24 C64 24.66 64 25.32 64 26 C64.66 26 65.32 26 66 26 C66 26.66 66 27.32 66 28 C66.66 28 67.32 28 68 28 C68 28.66 68 29.32 68 30 C68.66 30 69.32 30 70 30 C70 31.32 70 32.64 70 34 C70.66 34 71.32 34 72 34 C72 35.32 72 36.64 72 38 C72.66 38 73.32 38 74 38 C74 38.66 74 39.32 74 40 C74.66 40 75.32 40 76 40 C76 41.98 76 43.96 76 46 C76.66 46 77.32 46 78 46 C78 47.32 78 48.64 78 50 C78.66 50 79.32 50 80 50 C80 52.64 80 55.28 80 58 C80.66 58 81.32 58 82 58 C82 63.28 82 68.56 82 74 C82.66 74 83.32 74 84 74 C84 75.32 84 76.64 84 78 C83.34 78 82.68 78 82 78 C82 81.3 82 84.6 82 88 C45.04 88 8.08 88 -30 88 C-30 88.66 -30 89.32 -30 90 C-29.34 90 -28.68 90 -28 90 C-28 92.64 -28 95.28 -28 98 C-27.34 98 -26.68 98 -26 98 C-26 99.32 -26 100.64 -26 102 C-25.34 102 -24.68 102 -24 102 C-24 103.32 -24 104.64 -24 106 C-23.34 106 -22.68 106 -22 106 C-22 106.66 -22 107.32 -22 108 C-21.34 108 -20.68 108 -20 108 C-20 108.66 -20 109.32 -20 110 C-19.34 110 -18.68 110 -18 110 C-18 110.66 -18 111.32 -18 112 C-17.34 112 -16.68 112 -16 112 C-16 112.66 -16 113.32 -16 114 C-15.34 114 -14.68 114 -14 114 C-14 114.66 -14 115.32 -14 116 C-13.34 116 -12.68 116 -12 116 C-12 116.66 -12 117.32 -12 118 C-10.68 118 -9.36 118 -8 118 C-8 118.66 -8 119.32 -8 120 C-6.02 120 -4.04 120 -2 120 C-2 120.66 -2 121.32 -2 122 C5.26 122 12.52 122 20 122 C20 121.34 20 120.68 20 120 C21.98 120 23.96 120 26 120 C26 119.34 26 118.68 26 118 C27.32 118 28.64 118 30 118 C30 117.34 30 116.68 30 116 C30.66 116 31.32 116 32 116 C32 115.34 32 114.68 32 114 C32.66 114 33.32 114 34 114 C34 113.34 34 112.68 34 112 C34.66 112 35.32 112 36 112 C36 110.68 36 109.36 36 108 C36.66 108 37.32 108 38 108 C38 106.68 38 105.36 38 104 C51.2 104 64.4 104 78 104 C78 106.64 78 109.28 78 112 C77.34 112 76.68 112 76 112 C76 113.32 76 114.64 76 116 C75.34 116 74.68 116 74 116 C74 117.32 74 118.64 74 120 C73.34 120 72.68 120 72 120 C72 120.66 72 121.32 72 122 C71.34 122 70.68 122 70 122 C70 123.32 70 124.64 70 126 C69.34 126 68.68 126 68 126 C68 126.66 68 127.32 68 128 C67.34 128 66.68 128 66 128 C66 128.66 66 129.32 66 130 C65.34 130 64.68 130 64 130 C64 130.66 64 131.32 64 132 C63.34 132 62.68 132 62 132 C62 132.66 62 133.32 62 134 C61.34 134 60.68 134 60 134 C60 134.66 60 135.32 60 136 C59.34 136 58.68 136 58 136 C58 136.66 58 137.32 58 138 C57.34 138 56.68 138 56 138 C56 138.66 56 139.32 56 140 C55.34 140 54.68 140 54 140 C54 140.66 54 141.32 54 142 C52.68 142 51.36 142 50 142 C50 142.66 50 143.32 50 144 C49.34 144 48.68 144 48 144 C48 144.66 48 145.32 48 146 C46.68 146 45.36 146 44 146 C44 146.66 44 147.32 44 148 C42.68 148 41.36 148 40 148 C40 148.66 40 149.32 40 150 C38.02 150 36.04 150 34 150 C34 150.66 34 151.32 34 152 C32.02 152 30.04 152 28 152 C28 152.66 28 153.32 28 154 C24.7 154 21.4 154 18 154 C18 154.66 18 155.32 18 156 C12.06 156 6.12 156 0 156 C0 155.34 0 154.68 0 154 C-3.3 154 -6.6 154 -10 154 C-10 153.34 -10 152.68 -10 152 C-11.98 152 -13.96 152 -16 152 C-16 151.34 -16 150.68 -16 150 C-17.98 150 -19.96 150 -22 150 C-22 149.34 -22 148.68 -22 148 C-23.32 148 -24.64 148 -26 148 C-26 147.34 -26 146.68 -26 146 C-27.32 146 -28.64 146 -30 146 C-30 145.34 -30 144.68 -30 144 C-30.66 144 -31.32 144 -32 144 C-32 143.34 -32 142.68 -32 142 C-33.32 142 -34.64 142 -36 142 C-36 141.34 -36 140.68 -36 140 C-36.66 140 -37.32 140 -38 140 C-38 139.34 -38 138.68 -38 138 C-38.66 138 -39.32 138 -40 138 C-40 137.34 -40 136.68 -40 136 C-40.66 136 -41.32 136 -42 136 C-42 135.34 -42 134.68 -42 134 C-43.32 134 -44.64 134 -46 134 C-46 132.68 -46 131.36 -46 130 C-46.66 130 -47.32 130 -48 130 C-48 129.34 -48 128.68 -48 128 C-48.66 128 -49.32 128 -50 128 C-50 127.34 -50 126.68 -50 126 C-50.66 126 -51.32 126 -52 126 C-52 125.34 -52 124.68 -52 124 C-52.66 124 -53.32 124 -54 124 C-54 122.68 -54 121.36 -54 120 C-54.66 120 -55.32 120 -56 120 C-56 119.34 -56 118.68 -56 118 C-56.66 118 -57.32 118 -58 118 C-58 116.68 -58 115.36 -58 114 C-58.66 114 -59.32 114 -60 114 C-60 112.02 -60 110.04 -60 108 C-60.66 108 -61.32 108 -62 108 C-62 106.68 -62 105.36 -62 104 C-62.66 104 -63.32 104 -64 104 C-64 101.36 -64 98.72 -64 96 C-64.66 96 -65.32 96 -66 96 C-66 84.12 -66 72.24 -66 60 C-65.34 60 -64.68 60 -64 60 C-64 57.36 -64 54.72 -64 52 C-63.34 52 -62.68 52 -62 52 C-62 50.68 -62 49.36 -62 48 C-61.34 48 -60.68 48 -60 48 C-60 46.02 -60 44.04 -60 42 C-59.34 42 -58.68 42 -58 42 C-58 40.68 -58 39.36 -58 38 C-57.34 38 -56.68 38 -56 38 C-56 37.34 -56 36.68 -56 36 C-55.34 36 -54.68 36 -54 36 C-54 34.68 -54 33.36 -54 32 C-53.34 32 -52.68 32 -52 32 C-52 31.34 -52 30.68 -52 30 C-51.34 30 -50.68 30 -50 30 C-50 29.34 -50 28.68 -50 28 C-49.34 28 -48.68 28 -48 28 C-48 27.34 -48 26.68 -48 26 C-47.34 26 -46.68 26 -46 26 C-46 24.68 -46 23.36 -46 22 C-45.34 22 -44.68 22 -44 22 C-44 21.34 -44 20.68 -44 20 C-42.68 20 -41.36 20 -40 20 C-40 19.34 -40 18.68 -40 18 C-39.34 18 -38.68 18 -38 18 C-38 17.34 -38 16.68 -38 16 C-37.34 16 -36.68 16 -36 16 C-36 15.34 -36 14.68 -36 14 C-35.34 14 -34.68 14 -34 14 C-34 13.34 -34 12.68 -34 12 C-32.68 12 -31.36 12 -30 12 C-30 11.34 -30 10.68 -30 10 C-28.68 10 -27.36 10 -26 10 C-26 9.34 -26 8.68 -26 8 C-24.68 8 -23.36 8 -22 8 C-22 7.34 -22 6.68 -22 6 C-20.68 6 -19.36 6 -18 6 C-18 5.34 -18 4.68 -18 4 C-15.36 4 -12.72 4 -10 4 C-10 3.34 -10 2.68 -10 2 C-6.7 2 -3.4 2 0 2 C0 1.34 0 0.68 0 0 Z M-4 34 C-4 34.66 -4 35.32 -4 36 C-5.98 36 -7.96 36 -10 36 C-10 36.66 -10 37.32 -10 38 C-11.32 38 -12.64 38 -14 38 C-14 38.66 -14 39.32 -14 40 C-14.66 40 -15.32 40 -16 40 C-16 40.66 -16 41.32 -16 42 C-16.66 42 -17.32 42 -18 42 C-18 42.66 -18 43.32 -18 44 C-18.66 44 -19.32 44 -20 44 C-20 44.66 -20 45.32 -20 46 C-20.66 46 -21.32 46 -22 46 C-22 46.66 -22 47.32 -22 48 C-22.66 48 -23.32 48 -24 48 C-24 49.32 -24 50.64 -24 52 C-24.66 52 -25.32 52 -26 52 C-26 53.32 -26 54.64 -26 56 C-26.66 56 -27.32 56 -28 56 C-28 57.32 -28 58.64 -28 60 C-3.58 60 20.84 60 46 60 C46 59.34 46 58.68 46 58 C45.34 58 44.68 58 44 58 C44 56.02 44 54.04 44 52 C43.34 52 42.68 52 42 52 C42 50.68 42 49.36 42 48 C41.34 48 40.68 48 40 48 C40 47.34 40 46.68 40 46 C39.34 46 38.68 46 38 46 C38 45.34 38 44.68 38 44 C37.34 44 36.68 44 36 44 C36 43.34 36 42.68 36 42 C35.34 42 34.68 42 34 42 C34 41.34 34 40.68 34 40 C32.68 40 31.36 40 30 40 C30 39.34 30 38.68 30 38 C29.34 38 28.68 38 28 38 C28 37.34 28 36.68 28 36 C26.02 36 24.04 36 22 36 C22 35.34 22 34.68 22 34 C13.42 34 4.84 34 -4 34 Z " fill="#000000" transform="translate(942,272)"/>
<path d="M0 0 C5.28 0 10.56 0 16 0 C16 0.66 16 1.32 16 2 C19.96 2 23.92 2 28 2 C28 2.66 28 3.32 28 4 C29.98 4 31.96 4 34 4 C34 4.66 34 5.32 34 6 C35.98 6 37.96 6 40 6 C40 6.66 40 7.32 40 8 C41.32 8 42.64 8 44 8 C44 8.66 44 9.32 44 10 C45.32 10 46.64 10 48 10 C48 10.66 48 11.32 48 12 C49.32 12 50.64 12 52 12 C52 12.66 52 13.32 52 14 C52.66 14 53.32 14 54 14 C54 14.66 54 15.32 54 16 C54.66 16 55.32 16 56 16 C56 16.66 56 17.32 56 18 C57.32 18 58.64 18 60 18 C60 18.66 60 19.32 60 20 C60.66 20 61.32 20 62 20 C62 20.66 62 21.32 62 22 C62.66 22 63.32 22 64 22 C64 22.66 64 23.32 64 24 C64.66 24 65.32 24 66 24 C66 24.66 66 25.32 66 26 C66.66 26 67.32 26 68 26 C68 27.32 68 28.64 68 30 C68.66 30 69.32 30 70 30 C70 30.66 70 31.32 70 32 C70.66 32 71.32 32 72 32 C72 32.66 72 33.32 72 34 C72.66 34 73.32 34 74 34 C74 35.32 74 36.64 74 38 C74.66 38 75.32 38 76 38 C76 39.32 76 40.64 76 42 C76.66 42 77.32 42 78 42 C78 43.32 78 44.64 78 46 C78.66 46 79.32 46 80 46 C80 47.98 80 49.96 80 52 C80.66 52 81.32 52 82 52 C82 53.98 82 55.96 82 58 C82.66 58 83.32 58 84 58 C84 61.3 84 64.6 84 68 C84.66 68 85.32 68 86 68 C86 74.6 86 81.2 86 88 C85.34 88 84.68 88 84 88 C84 91.3 84 94.6 84 98 C83.34 98 82.68 98 82 98 C82 99.98 82 101.96 82 104 C81.34 104 80.68 104 80 104 C80 105.98 80 107.96 80 110 C79.34 110 78.68 110 78 110 C78 111.32 78 112.64 78 114 C77.34 114 76.68 114 76 114 C76 115.32 76 116.64 76 118 C75.34 118 74.68 118 74 118 C74 119.32 74 120.64 74 122 C73.34 122 72.68 122 72 122 C72 122.66 72 123.32 72 124 C71.34 124 70.68 124 70 124 C70 124.66 70 125.32 70 126 C69.34 126 68.68 126 68 126 C68 126.66 68 127.32 68 128 C67.34 128 66.68 128 66 128 C66 129.32 66 130.64 66 132 C65.34 132 64.68 132 64 132 C64 132.66 64 133.32 64 134 C63.34 134 62.68 134 62 134 C62 134.66 62 135.32 62 136 C60.68 136 59.36 136 58 136 C58 136.66 58 137.32 58 138 C57.34 138 56.68 138 56 138 C56 138.66 56 139.32 56 140 C55.34 140 54.68 140 54 140 C54 140.66 54 141.32 54 142 C52.68 142 51.36 142 50 142 C50 142.66 50 143.32 50 144 C49.34 144 48.68 144 48 144 C48 144.66 48 145.32 48 146 C46.68 146 45.36 146 44 146 C44 146.66 44 147.32 44 148 C42.68 148 41.36 148 40 148 C40 148.66 40 149.32 40 150 C38.02 150 36.04 150 34 150 C34 150.66 34 151.32 34 152 C32.02 152 30.04 152 28 152 C28 152.66 28 153.32 28 154 C24.7 154 21.4 154 18 154 C18 154.66 18 155.32 18 156 C11.4 156 4.8 156 -2 156 C-2 155.34 -2 154.68 -2 154 C-5.3 154 -8.6 154 -12 154 C-12 153.34 -12 152.68 -12 152 C-13.98 152 -15.96 152 -18 152 C-18 151.34 -18 150.68 -18 150 C-19.98 150 -21.96 150 -24 150 C-24 149.34 -24 148.68 -24 148 C-25.32 148 -26.64 148 -28 148 C-28 147.34 -28 146.68 -28 146 C-29.32 146 -30.64 146 -32 146 C-32 145.34 -32 144.68 -32 144 C-32.66 144 -33.32 144 -34 144 C-34 143.34 -34 142.68 -34 142 C-35.32 142 -36.64 142 -38 142 C-38 141.34 -38 140.68 -38 140 C-38.66 140 -39.32 140 -40 140 C-40 139.34 -40 138.68 -40 138 C-40.66 138 -41.32 138 -42 138 C-42 137.34 -42 136.68 -42 136 C-42.66 136 -43.32 136 -44 136 C-44 135.34 -44 134.68 -44 134 C-45.32 134 -46.64 134 -48 134 C-48 132.68 -48 131.36 -48 130 C-48.66 130 -49.32 130 -50 130 C-50 129.34 -50 128.68 -50 128 C-50.66 128 -51.32 128 -52 128 C-52 127.34 -52 126.68 -52 126 C-52.66 126 -53.32 126 -54 126 C-54 125.34 -54 124.68 -54 124 C-54.66 124 -55.32 124 -56 124 C-56 122.68 -56 121.36 -56 120 C-56.66 120 -57.32 120 -58 120 C-58 118.68 -58 117.36 -58 116 C-58.66 116 -59.32 116 -60 116 C-60 115.34 -60 114.68 -60 114 C-60.66 114 -61.32 114 -62 114 C-62 112.68 -62 111.36 -62 110 C-62.66 110 -63.32 110 -64 110 C-64 108.02 -64 106.04 -64 104 C-64.66 104 -65.32 104 -66 104 C-66 101.36 -66 98.72 -66 96 C-66.66 96 -67.32 96 -68 96 C-68 90.72 -68 85.44 -68 80 C-68.66 80 -69.32 80 -70 80 C-70 78.68 -70 77.36 -70 76 C-69.34 76 -68.68 76 -68 76 C-68 70.72 -68 65.44 -68 60 C-67.34 60 -66.68 60 -66 60 C-66 58.02 -66 56.04 -66 54 C-65.34 54 -64.68 54 -64 54 C-64 51.36 -64 48.72 -64 46 C-63.34 46 -62.68 46 -62 46 C-62 44.68 -62 43.36 -62 42 C-61.34 42 -60.68 42 -60 42 C-60 41.34 -60 40.68 -60 40 C-59.34 40 -58.68 40 -58 40 C-58 38.68 -58 37.36 -58 36 C-57.34 36 -56.68 36 -56 36 C-56 34.68 -56 33.36 -56 32 C-55.34 32 -54.68 32 -54 32 C-54 31.34 -54 30.68 -54 30 C-53.34 30 -52.68 30 -52 30 C-52 29.34 -52 28.68 -52 28 C-51.34 28 -50.68 28 -50 28 C-50 27.34 -50 26.68 -50 26 C-49.34 26 -48.68 26 -48 26 C-48 24.68 -48 23.36 -48 22 C-46.68 22 -45.36 22 -44 22 C-44 21.34 -44 20.68 -44 20 C-43.34 20 -42.68 20 -42 20 C-42 19.34 -42 18.68 -42 18 C-41.34 18 -40.68 18 -40 18 C-40 17.34 -40 16.68 -40 16 C-39.34 16 -38.68 16 -38 16 C-38 15.34 -38 14.68 -38 14 C-36.68 14 -35.36 14 -34 14 C-34 13.34 -34 12.68 -34 12 C-33.34 12 -32.68 12 -32 12 C-32 11.34 -32 10.68 -32 10 C-30.68 10 -29.36 10 -28 10 C-28 9.34 -28 8.68 -28 8 C-26.68 8 -25.36 8 -24 8 C-24 7.34 -24 6.68 -24 6 C-22.02 6 -20.04 6 -18 6 C-18 5.34 -18 4.68 -18 4 C-16.02 4 -14.04 4 -12 4 C-12 3.34 -12 2.68 -12 2 C-8.04 2 -4.08 2 0 2 C0 1.34 0 0.68 0 0 Z M4 34 C4 34.66 4 35.32 4 36 C0.7 36 -2.6 36 -6 36 C-6 36.66 -6 37.32 -6 38 C-7.32 38 -8.64 38 -10 38 C-10 38.66 -10 39.32 -10 40 C-11.32 40 -12.64 40 -14 40 C-14 40.66 -14 41.32 -14 42 C-14.66 42 -15.32 42 -16 42 C-16 42.66 -16 43.32 -16 44 C-17.32 44 -18.64 44 -20 44 C-20 44.66 -20 45.32 -20 46 C-20.66 46 -21.32 46 -22 46 C-22 47.32 -22 48.64 -22 50 C-22.66 50 -23.32 50 -24 50 C-24 50.66 -24 51.32 -24 52 C-24.66 52 -25.32 52 -26 52 C-26 53.32 -26 54.64 -26 56 C-26.66 56 -27.32 56 -28 56 C-28 57.32 -28 58.64 -28 60 C-28.66 60 -29.32 60 -30 60 C-30 61.98 -30 63.96 -30 66 C-30.66 66 -31.32 66 -32 66 C-32 73.92 -32 81.84 -32 90 C-31.34 90 -30.68 90 -30 90 C-30 91.98 -30 93.96 -30 96 C-29.34 96 -28.68 96 -28 96 C-28 97.32 -28 98.64 -28 100 C-27.34 100 -26.68 100 -26 100 C-26 101.32 -26 102.64 -26 104 C-25.34 104 -24.68 104 -24 104 C-24 104.66 -24 105.32 -24 106 C-23.34 106 -22.68 106 -22 106 C-22 106.66 -22 107.32 -22 108 C-21.34 108 -20.68 108 -20 108 C-20 108.66 -20 109.32 -20 110 C-19.34 110 -18.68 110 -18 110 C-18 110.66 -18 111.32 -18 112 C-17.34 112 -16.68 112 -16 112 C-16 112.66 -16 113.32 -16 114 C-15.34 114 -14.68 114 -14 114 C-14 114.66 -14 115.32 -14 116 C-12.68 116 -11.36 116 -10 116 C-10 116.66 -10 117.32 -10 118 C-8.02 118 -6.04 118 -4 118 C-4 118.66 -4 119.32 -4 120 C4.58 120 13.16 120 22 120 C22 119.34 22 118.68 22 118 C23.32 118 24.64 118 26 118 C26 117.34 26 116.68 26 116 C27.32 116 28.64 116 30 116 C30 115.34 30 114.68 30 114 C30.66 114 31.32 114 32 114 C32 113.34 32 112.68 32 112 C33.32 112 34.64 112 36 112 C36 111.34 36 110.68 36 110 C36.66 110 37.32 110 38 110 C38 109.34 38 108.68 38 108 C38.66 108 39.32 108 40 108 C40 106.68 40 105.36 40 104 C40.66 104 41.32 104 42 104 C42 103.34 42 102.68 42 102 C42.66 102 43.32 102 44 102 C44 100.68 44 99.36 44 98 C44.66 98 45.32 98 46 98 C46 96.02 46 94.04 46 92 C46.66 92 47.32 92 48 92 C48 82.76 48 73.52 48 64 C47.34 64 46.68 64 46 64 C46 62.02 46 60.04 46 58 C45.34 58 44.68 58 44 58 C44 56.68 44 55.36 44 54 C43.34 54 42.68 54 42 54 C42 53.34 42 52.68 42 52 C41.34 52 40.68 52 40 52 C40 50.68 40 49.36 40 48 C39.34 48 38.68 48 38 48 C38 47.34 38 46.68 38 46 C37.34 46 36.68 46 36 46 C36 45.34 36 44.68 36 44 C35.34 44 34.68 44 34 44 C34 43.34 34 42.68 34 42 C32.68 42 31.36 42 30 42 C30 41.34 30 40.68 30 40 C28.68 40 27.36 40 26 40 C26 39.34 26 38.68 26 38 C24.68 38 23.36 38 22 38 C22 37.34 22 36.68 22 36 C19.36 36 16.72 36 14 36 C14 35.34 14 34.68 14 34 C10.7 34 7.4 34 4 34 Z " fill="#000000" transform="translate(1470,272)"/>
<path d="M0 0 C13.86 0 27.72 0 42 0 C42 1.32 42 2.64 42 4 C42.66 4 43.32 4 44 4 C44 4.66 44 5.32 44 6 C44.66 6 45.32 6 46 6 C46 7.32 46 8.64 46 10 C46.66 10 47.32 10 48 10 C48 11.32 48 12.64 48 14 C48.66 14 49.32 14 50 14 C50 14.66 50 15.32 50 16 C50.66 16 51.32 16 52 16 C52 17.32 52 18.64 52 20 C52.66 20 53.32 20 54 20 C54 20.66 54 21.32 54 22 C54.66 22 55.32 22 56 22 C56 23.32 56 24.64 56 26 C56.66 26 57.32 26 58 26 C58 26.66 58 27.32 58 28 C58.66 28 59.32 28 60 28 C60 29.32 60 30.64 60 32 C60.66 32 61.32 32 62 32 C62 33.32 62 34.64 62 36 C62.66 36 63.32 36 64 36 C64 36.66 64 37.32 64 38 C64.66 38 65.32 38 66 38 C66 39.32 66 40.64 66 42 C66.66 42 67.32 42 68 42 C68 42.66 68 43.32 68 44 C68.66 44 69.32 44 70 44 C70 44.66 70 45.32 70 46 C70.66 46 71.32 46 72 46 C72 44.68 72 43.36 72 42 C72.66 42 73.32 42 74 42 C74 40.68 74 39.36 74 38 C74.66 38 75.32 38 76 38 C76 37.34 76 36.68 76 36 C76.66 36 77.32 36 78 36 C78 34.68 78 33.36 78 32 C78.66 32 79.32 32 80 32 C80 31.34 80 30.68 80 30 C80.66 30 81.32 30 82 30 C82 28.68 82 27.36 82 26 C82.66 26 83.32 26 84 26 C84 25.34 84 24.68 84 24 C84.66 24 85.32 24 86 24 C86 22.68 86 21.36 86 20 C86.66 20 87.32 20 88 20 C88 18.68 88 17.36 88 16 C88.66 16 89.32 16 90 16 C90 15.34 90 14.68 90 14 C90.66 14 91.32 14 92 14 C92 12.68 92 11.36 92 10 C92.66 10 93.32 10 94 10 C94 8.68 94 7.36 94 6 C94.66 6 95.32 6 96 6 C96 5.34 96 4.68 96 4 C96.66 4 97.32 4 98 4 C98 3.34 98 2.68 98 2 C98.66 2 99.32 2 100 2 C100 1.34 100 0.68 100 0 C113.2 0 126.4 0 140 0 C140 1.98 140 3.96 140 6 C139.34 6 138.68 6 138 6 C138 6.66 138 7.32 138 8 C137.34 8 136.68 8 136 8 C136 9.32 136 10.64 136 12 C135.34 12 134.68 12 134 12 C134 12.66 134 13.32 134 14 C133.34 14 132.68 14 132 14 C132 15.32 132 16.64 132 18 C131.34 18 130.68 18 130 18 C130 18.66 130 19.32 130 20 C129.34 20 128.68 20 128 20 C128 21.32 128 22.64 128 24 C127.34 24 126.68 24 126 24 C126 24.66 126 25.32 126 26 C125.34 26 124.68 26 124 26 C124 27.32 124 28.64 124 30 C123.34 30 122.68 30 122 30 C122 30.66 122 31.32 122 32 C121.34 32 120.68 32 120 32 C120 33.32 120 34.64 120 36 C119.34 36 118.68 36 118 36 C118 36.66 118 37.32 118 38 C117.34 38 116.68 38 116 38 C116 39.32 116 40.64 116 42 C115.34 42 114.68 42 114 42 C114 43.32 114 44.64 114 46 C113.34 46 112.68 46 112 46 C112 46.66 112 47.32 112 48 C111.34 48 110.68 48 110 48 C110 49.32 110 50.64 110 52 C109.34 52 108.68 52 108 52 C108 52.66 108 53.32 108 54 C107.34 54 106.68 54 106 54 C106 55.32 106 56.64 106 58 C105.34 58 104.68 58 104 58 C104 58.66 104 59.32 104 60 C103.34 60 102.68 60 102 60 C102 61.32 102 62.64 102 64 C101.34 64 100.68 64 100 64 C100 64.66 100 65.32 100 66 C99.34 66 98.68 66 98 66 C98 67.32 98 68.64 98 70 C97.34 70 96.68 70 96 70 C96 71.32 96 72.64 96 74 C96.66 74 97.32 74 98 74 C98 75.32 98 76.64 98 78 C98.66 78 99.32 78 100 78 C100 78.66 100 79.32 100 80 C100.66 80 101.32 80 102 80 C102 81.32 102 82.64 102 84 C102.66 84 103.32 84 104 84 C104 84.66 104 85.32 104 86 C104.66 86 105.32 86 106 86 C106 87.32 106 88.64 106 90 C106.66 90 107.32 90 108 90 C108 90.66 108 91.32 108 92 C108.66 92 109.32 92 110 92 C110 93.32 110 94.64 110 96 C110.66 96 111.32 96 112 96 C112 96.66 112 97.32 112 98 C112.66 98 113.32 98 114 98 C114 99.32 114 100.64 114 102 C114.66 102 115.32 102 116 102 C116 103.32 116 104.64 116 106 C116.66 106 117.32 106 118 106 C118 106.66 118 107.32 118 108 C118.66 108 119.32 108 120 108 C120 109.32 120 110.64 120 112 C120.66 112 121.32 112 122 112 C122 112.66 122 113.32 122 114 C122.66 114 123.32 114 124 114 C124 115.32 124 116.64 124 118 C124.66 118 125.32 118 126 118 C126 118.66 126 119.32 126 120 C126.66 120 127.32 120 128 120 C128 121.32 128 122.64 128 124 C128.66 124 129.32 124 130 124 C130 124.66 130 125.32 130 126 C130.66 126 131.32 126 132 126 C132 127.32 132 128.64 132 130 C132.66 130 133.32 130 134 130 C134 131.32 134 132.64 134 134 C134.66 134 135.32 134 136 134 C136 134.66 136 135.32 136 136 C136.66 136 137.32 136 138 136 C138 137.32 138 138.64 138 140 C138.66 140 139.32 140 140 140 C140 140.66 140 141.32 140 142 C140.66 142 141.32 142 142 142 C142 143.32 142 144.64 142 146 C128.14 146 114.28 146 100 146 C100 145.34 100 144.68 100 144 C99.34 144 98.68 144 98 144 C98 143.34 98 142.68 98 142 C97.34 142 96.68 142 96 142 C96 140.68 96 139.36 96 138 C95.34 138 94.68 138 94 138 C94 137.34 94 136.68 94 136 C93.34 136 92.68 136 92 136 C92 134.68 92 133.36 92 132 C91.34 132 90.68 132 90 132 C90 131.34 90 130.68 90 130 C89.34 130 88.68 130 88 130 C88 128.68 88 127.36 88 126 C87.34 126 86.68 126 86 126 C86 124.68 86 123.36 86 122 C85.34 122 84.68 122 84 122 C84 121.34 84 120.68 84 120 C83.34 120 82.68 120 82 120 C82 118.68 82 117.36 82 116 C81.34 116 80.68 116 80 116 C80 114.68 80 113.36 80 112 C79.34 112 78.68 112 78 112 C78 111.34 78 110.68 78 110 C77.34 110 76.68 110 76 110 C76 108.68 76 107.36 76 106 C75.34 106 74.68 106 74 106 C74 105.34 74 104.68 74 104 C73.34 104 72.68 104 72 104 C72 102.68 72 101.36 72 100 C70.68 100 69.36 100 68 100 C68 100.66 68 101.32 68 102 C67.34 102 66.68 102 66 102 C66 103.32 66 104.64 66 106 C65.34 106 64.68 106 64 106 C64 106.66 64 107.32 64 108 C63.34 108 62.68 108 62 108 C62 109.32 62 110.64 62 112 C61.34 112 60.68 112 60 112 C60 113.32 60 114.64 60 116 C59.34 116 58.68 116 58 116 C58 116.66 58 117.32 58 118 C57.34 118 56.68 118 56 118 C56 119.32 56 120.64 56 122 C55.34 122 54.68 122 54 122 C54 122.66 54 123.32 54 124 C53.34 124 52.68 124 52 124 C52 125.32 52 126.64 52 128 C51.34 128 50.68 128 50 128 C50 129.32 50 130.64 50 132 C49.34 132 48.68 132 48 132 C48 132.66 48 133.32 48 134 C47.34 134 46.68 134 46 134 C46 135.32 46 136.64 46 138 C45.34 138 44.68 138 44 138 C44 138.66 44 139.32 44 140 C43.34 140 42.68 140 42 140 C42 141.32 42 142.64 42 144 C41.34 144 40.68 144 40 144 C40 144.66 40 145.32 40 146 C26.14 146 12.28 146 -2 146 C-2 144.68 -2 143.36 -2 142 C-1.34 142 -0.68 142 0 142 C0 141.34 0 140.68 0 140 C0.66 140 1.32 140 2 140 C2 138.68 2 137.36 2 136 C2.66 136 3.32 136 4 136 C4 135.34 4 134.68 4 134 C4.66 134 5.32 134 6 134 C6 132.68 6 131.36 6 130 C6.66 130 7.32 130 8 130 C8 129.34 8 128.68 8 128 C8.66 128 9.32 128 10 128 C10 126.68 10 125.36 10 124 C10.66 124 11.32 124 12 124 C12 123.34 12 122.68 12 122 C12.66 122 13.32 122 14 122 C14 120.68 14 119.36 14 118 C14.66 118 15.32 118 16 118 C16 116.68 16 115.36 16 114 C16.66 114 17.32 114 18 114 C18 113.34 18 112.68 18 112 C18.66 112 19.32 112 20 112 C20 110.68 20 109.36 20 108 C20.66 108 21.32 108 22 108 C22 107.34 22 106.68 22 106 C22.66 106 23.32 106 24 106 C24 104.68 24 103.36 24 102 C24.66 102 25.32 102 26 102 C26 101.34 26 100.68 26 100 C26.66 100 27.32 100 28 100 C28 98.68 28 97.36 28 96 C28.66 96 29.32 96 30 96 C30 95.34 30 94.68 30 94 C30.66 94 31.32 94 32 94 C32 92.68 32 91.36 32 90 C32.66 90 33.32 90 34 90 C34 89.34 34 88.68 34 88 C34.66 88 35.32 88 36 88 C36 86.68 36 85.36 36 84 C36.66 84 37.32 84 38 84 C38 82.68 38 81.36 38 80 C38.66 80 39.32 80 40 80 C40 79.34 40 78.68 40 78 C40.66 78 41.32 78 42 78 C42 76.68 42 75.36 42 74 C42.66 74 43.32 74 44 74 C44 72.68 44 71.36 44 70 C43.34 70 42.68 70 42 70 C42 68.68 42 67.36 42 66 C41.34 66 40.68 66 40 66 C40 64.68 40 63.36 40 62 C39.34 62 38.68 62 38 62 C38 61.34 38 60.68 38 60 C37.34 60 36.68 60 36 60 C36 58.68 36 57.36 36 56 C35.34 56 34.68 56 34 56 C34 55.34 34 54.68 34 54 C33.34 54 32.68 54 32 54 C32 52.68 32 51.36 32 50 C31.34 50 30.68 50 30 50 C30 49.34 30 48.68 30 48 C29.34 48 28.68 48 28 48 C28 46.68 28 45.36 28 44 C27.34 44 26.68 44 26 44 C26 43.34 26 42.68 26 42 C25.34 42 24.68 42 24 42 C24 40.68 24 39.36 24 38 C23.34 38 22.68 38 22 38 C22 37.34 22 36.68 22 36 C21.34 36 20.68 36 20 36 C20 34.68 20 33.36 20 32 C19.34 32 18.68 32 18 32 C18 31.34 18 30.68 18 30 C17.34 30 16.68 30 16 30 C16 28.68 16 27.36 16 26 C15.34 26 14.68 26 14 26 C14 25.34 14 24.68 14 24 C13.34 24 12.68 24 12 24 C12 22.68 12 21.36 12 20 C11.34 20 10.68 20 10 20 C10 19.34 10 18.68 10 18 C9.34 18 8.68 18 8 18 C8 16.68 8 15.36 8 14 C7.34 14 6.68 14 6 14 C6 13.34 6 12.68 6 12 C5.34 12 4.68 12 4 12 C4 10.68 4 9.36 4 8 C3.34 8 2.68 8 2 8 C2 7.34 2 6.68 2 6 C1.34 6 0.68 6 0 6 C0 4.02 0 2.04 0 0 Z " fill="#000000" transform="translate(728,276)"/>
<path d="M0 0 C11.88 0 23.76 0 36 0 C36 13.86 36 27.72 36 42 C50.52 42 65.04 42 80 42 C80 52.56 80 63.12 80 74 C65.48 74 50.96 74 36 74 C36 97.1 36 120.2 36 144 C36.66 144 37.32 144 38 144 C38 145.98 38 147.96 38 150 C38.66 150 39.32 150 40 150 C40 150.66 40 151.32 40 152 C40.66 152 41.32 152 42 152 C42 152.66 42 153.32 42 154 C42.66 154 43.32 154 44 154 C44 154.66 44 155.32 44 156 C45.32 156 46.64 156 48 156 C48 156.66 48 157.32 48 158 C58.56 158 69.12 158 80 158 C80 167.9 80 177.8 80 188 C63.5 188 47 188 30 188 C30 187.34 30 186.68 30 186 C28.02 186 26.04 186 24 186 C24 185.34 24 184.68 24 184 C23.34 184 22.68 184 22 184 C22 183.34 22 182.68 22 182 C20.68 182 19.36 182 18 182 C18 181.34 18 180.68 18 180 C17.34 180 16.68 180 16 180 C16 179.34 16 178.68 16 178 C15.34 178 14.68 178 14 178 C14 177.34 14 176.68 14 176 C13.34 176 12.68 176 12 176 C12 175.34 12 174.68 12 174 C11.34 174 10.68 174 10 174 C10 173.34 10 172.68 10 172 C9.34 172 8.68 172 8 172 C8 171.34 8 170.68 8 170 C7.34 170 6.68 170 6 170 C6 168.68 6 167.36 6 166 C5.34 166 4.68 166 4 166 C4 164.02 4 162.04 4 160 C3.34 160 2.68 160 2 160 C2 157.36 2 154.72 2 152 C1.34 152 0.68 152 0 152 C0 126.26 0 100.52 0 74 C-9.9 74 -19.8 74 -30 74 C-30 63.44 -30 52.88 -30 42 C-20.1 42 -10.2 42 0 42 C0 28.14 0 14.28 0 0 Z " fill="#000000" transform="translate(1588,234)"/>
<path d="M0 0 C12.54 0 25.08 0 38 0 C38 65.34 38 130.68 38 198 C25.46 198 12.92 198 0 198 C0 175.56 0 153.12 0 130 C0.66 130 1.32 130 2 130 C2 125.38 2 120.76 2 116 C1.34 116 0.68 116 0 116 C0 77.72 0 39.44 0 0 Z " fill="#000000" transform="translate(1042,224)"/>
<path d="M0 0 C11.88 0 23.76 0 36 0 C36 65.34 36 130.68 36 198 C24.12 198 12.24 198 0 198 C0 132.66 0 67.32 0 0 Z " fill="#000000" transform="translate(1344,224)"/>
<path d="M0 0 C11.22 0 22.44 0 34 0 C34 0.66 34 1.32 34 2 C34.66 2 35.32 2 36 2 C36 49.52 36 97.04 36 146 C23.46 146 10.92 146 -2 146 C-2 98.48 -2 50.96 -2 2 C-1.34 2 -0.68 2 0 2 C0 1.34 0 0.68 0 0 Z " fill="#000000" transform="translate(676,276)"/>
<path d="M0 0 C11.88 0 23.76 0 36 0 C36 48.18 36 96.36 36 146 C24.12 146 12.24 146 0 146 C0 97.82 0 49.64 0 0 Z " fill="#000000" transform="translate(1278,276)"/>
<path d="M0 0 C5.28 0 10.56 0 16 0 C16 0.66 16 1.32 16 2 C17.32 2 18.64 2 20 2 C20 2.66 20 3.32 20 4 C20.66 4 21.32 4 22 4 C22 4.66 22 5.32 22 6 C22.66 6 23.32 6 24 6 C24 6.66 24 7.32 24 8 C24.66 8 25.32 8 26 8 C26 8.66 26 9.32 26 10 C26.66 10 27.32 10 28 10 C28 11.32 28 12.64 28 14 C28.66 14 29.32 14 30 14 C30 17.96 30 21.92 30 26 C29.34 26 28.68 26 28 26 C28 27.98 28 29.96 28 32 C27.34 32 26.68 32 26 32 C26 32.66 26 33.32 26 34 C25.34 34 24.68 34 24 34 C24 34.66 24 35.32 24 36 C23.34 36 22.68 36 22 36 C22 36.66 22 37.32 22 38 C20.68 38 19.36 38 18 38 C18 38.66 18 39.32 18 40 C15.36 40 12.72 40 10 40 C10 40.66 10 41.32 10 42 C8.02 42 6.04 42 4 42 C4 41.34 4 40.68 4 40 C1.36 40 -1.28 40 -4 40 C-4 39.34 -4 38.68 -4 38 C-5.32 38 -6.64 38 -8 38 C-8 37.34 -8 36.68 -8 36 C-8.66 36 -9.32 36 -10 36 C-10 35.34 -10 34.68 -10 34 C-10.66 34 -11.32 34 -12 34 C-12 32.68 -12 31.36 -12 30 C-12.66 30 -13.32 30 -14 30 C-14 28.68 -14 27.36 -14 26 C-14.66 26 -15.32 26 -16 26 C-16 22.7 -16 19.4 -16 16 C-15.34 16 -14.68 16 -14 16 C-14 14.02 -14 12.04 -14 10 C-13.34 10 -12.68 10 -12 10 C-12 9.34 -12 8.68 -12 8 C-11.34 8 -10.68 8 -10 8 C-10 7.34 -10 6.68 -10 6 C-9.34 6 -8.68 6 -8 6 C-8 5.34 -8 4.68 -8 4 C-7.34 4 -6.68 4 -6 4 C-6 3.34 -6 2.68 -6 2 C-4.02 2 -2.04 2 0 2 C0 1.34 0 0.68 0 0 Z " fill="#000000" transform="translate(686,216)"/>
<path d="M0 0 C5.28 0 10.56 0 16 0 C16 0.66 16 1.32 16 2 C17.32 2 18.64 2 20 2 C20 2.66 20 3.32 20 4 C20.66 4 21.32 4 22 4 C22 4.66 22 5.32 22 6 C22.66 6 23.32 6 24 6 C24 6.66 24 7.32 24 8 C24.66 8 25.32 8 26 8 C26 8.66 26 9.32 26 10 C26.66 10 27.32 10 28 10 C28 11.32 28 12.64 28 14 C28.66 14 29.32 14 30 14 C30 18.62 30 23.24 30 28 C29.34 28 28.68 28 28 28 C28 29.32 28 30.64 28 32 C27.34 32 26.68 32 26 32 C26 32.66 26 33.32 26 34 C25.34 34 24.68 34 24 34 C24 34.66 24 35.32 24 36 C23.34 36 22.68 36 22 36 C22 36.66 22 37.32 22 38 C20.68 38 19.36 38 18 38 C18 38.66 18 39.32 18 40 C15.36 40 12.72 40 10 40 C10 40.66 10 41.32 10 42 C8.02 42 6.04 42 4 42 C4 41.34 4 40.68 4 40 C1.36 40 -1.28 40 -4 40 C-4 39.34 -4 38.68 -4 38 C-5.32 38 -6.64 38 -8 38 C-8 37.34 -8 36.68 -8 36 C-8.66 36 -9.32 36 -10 36 C-10 35.34 -10 34.68 -10 34 C-10.66 34 -11.32 34 -12 34 C-12 32.68 -12 31.36 -12 30 C-12.66 30 -13.32 30 -14 30 C-14 28.02 -14 26.04 -14 24 C-14.66 24 -15.32 24 -16 24 C-16 22.02 -16 20.04 -16 18 C-15.34 18 -14.68 18 -14 18 C-14 15.36 -14 12.72 -14 10 C-13.34 10 -12.68 10 -12 10 C-12 9.34 -12 8.68 -12 8 C-11.34 8 -10.68 8 -10 8 C-10 7.34 -10 6.68 -10 6 C-9.34 6 -8.68 6 -8 6 C-8 5.34 -8 4.68 -8 4 C-7.34 4 -6.68 4 -6 4 C-6 3.34 -6 2.68 -6 2 C-4.02 2 -2.04 2 0 2 C0 1.34 0 0.68 0 0 Z " fill="#000000" transform="translate(1288,216)"/>
<path d="M0 0 C1.485 0.99 1.485 0.99 3 2 C3.36635017 4.38008881 3.36635017 4.38008881 3.35403442 7.42810059 C3.35671326 8.5806987 3.35939209 9.73329681 3.3621521 10.92082214 C3.34979523 12.19154068 3.33743835 13.46225922 3.32470703 14.77148438 C3.32222469 16.1182691 3.32107656 17.46505686 3.32116699 18.81184387 C3.31774868 22.47509812 3.29596237 26.13804656 3.27125025 29.8012104 C3.24881191 33.62929038 3.24408343 37.45738795 3.23776245 41.28552246 C3.22325997 48.53987484 3.19431584 55.79408919 3.15951526 63.04836988 C3.09763695 76.04406735 3.06005061 89.03984748 3.02792251 102.03564882 C3.01606617 106.59960075 2.997857 111.16347218 2.97440743 115.72737885 C2.96060768 118.56270256 2.95074163 121.39803095 2.94177246 124.23337364 C2.93426136 126.18199137 2.92164561 128.1305873 2.90890503 130.07917786 C2.90594421 131.23177597 2.9029834 132.38437408 2.89993286 133.57189941 C2.89511461 134.5777433 2.89029636 135.58358719 2.88533211 136.61991119 C2.84032696 139.01703201 2.84032696 139.01703201 4 141 C5.09054687 140.98839844 6.18109375 140.97679687 7.3046875 140.96484375 C18.2416983 140.88659999 29.08775276 141.27767631 40 142 C40 142.33 40 142.66 40 143 C26.8 143 13.6 143 0 143 C0 95.81 0 48.62 0 0 Z " fill="#51B7F6" transform="translate(435,96)"/>
<path d="M0 0 C20.295 0.495 20.295 0.495 41 1 C41 1.33 41 1.66 41 2 C32.29786393 3.16281933 23.63211849 3.11579895 14.875 3.0625 C13.42708489 3.05747252 11.97916808 3.05291183 10.53125 3.04882812 C7.02079741 3.03792705 3.51040993 3.02073202 0 3 C0 2.01 0 1.02 0 0 Z " fill="#09080B" transform="translate(512,230)"/>
<path d="M0 0 C0.33 0 0.66 0 1 0 C1.33 12.54 1.66 25.08 2 38 C3.32 38.66 4.64 39.32 6 40 C3.69 40 1.38 40 -1 40 C-0.67 26.8 -0.34 13.6 0 0 Z " fill="#4EB5FC" transform="translate(281,55)"/>
<path d="M0 0 C8.91 0 17.82 0 27 0 C27 0.33 27 0.66 27 1 C26.28344238 1.01458252 25.56688477 1.02916504 24.82861328 1.04418945 C21.59352017 1.11849 18.35947981 1.21520861 15.125 1.3125 C13.99707031 1.33505859 12.86914062 1.35761719 11.70703125 1.38085938 C10.63066406 1.41630859 9.55429687 1.45175781 8.4453125 1.48828125 C6.95281982 1.52755737 6.95281982 1.52755737 5.43017578 1.56762695 C4.62821777 1.71031006 3.82625977 1.85299316 3 2 C2.01 3.485 2.01 3.485 1 5 C0.67 3.35 0.34 1.7 0 0 Z " fill="#40B2F7" transform="translate(281,53)"/>
</svg>
