<?xml version="1.0" encoding="UTF-8"?>
<svg version="1.1" xmlns="http://www.w3.org/2000/svg" width="1000" height="1000">
<path d="M0 0 C31.02 0 62.04 0 94 0 C94 122.76 94 245.52 94 372 C222.7 372 351.4 372 484 372 C484 371.34 484 370.68 484 370 C485.98 370 487.96 370 490 370 C490 404.98 490 439.96 490 476 C387.04 476 284.08 476 178 476 C178 476.66 178 477.32 178 478 C178.66 478 179.32 478 180 478 C180 478.66 180 479.32 180 480 C180.66 480 181.32 480 182 480 C182 480.66 182 481.32 182 482 C182.66 482 183.32 482 184 482 C184 482.66 184 483.32 184 484 C184.66 484 185.32 484 186 484 C186 484.66 186 485.32 186 486 C186.66 486 187.32 486 188 486 C188 486.66 188 487.32 188 488 C188.66 488 189.32 488 190 488 C190 488.66 190 489.32 190 490 C190.66 490 191.32 490 192 490 C192 490.66 192 491.32 192 492 C192.66 492 193.32 492 194 492 C194 492.66 194 493.32 194 494 C194.66 494 195.32 494 196 494 C196 494.66 196 495.32 196 496 C196.66 496 197.32 496 198 496 C198 496.66 198 497.32 198 498 C198.66 498 199.32 498 200 498 C200 498.66 200 499.32 200 500 C200.66 500 201.32 500 202 500 C202 500.66 202 501.32 202 502 C202.66 502 203.32 502 204 502 C204 502.66 204 503.32 204 504 C204.66 504 205.32 504 206 504 C206 504.66 206 505.32 206 506 C206.66 506 207.32 506 208 506 C208 506.66 208 507.32 208 508 C208.66 508 209.32 508 210 508 C210 508.66 210 509.32 210 510 C210.66 510 211.32 510 212 510 C212 510.66 212 511.32 212 512 C212.66 512 213.32 512 214 512 C214 512.66 214 513.32 214 514 C214.66 514 215.32 514 216 514 C216 514.66 216 515.32 216 516 C217.32 516 218.64 516 220 516 C220 516.66 220 517.32 220 518 C220.66 518 221.32 518 222 518 C222 518.66 222 519.32 222 520 C222.66 520 223.32 520 224 520 C224 520.66 224 521.32 224 522 C224.66 522 225.32 522 226 522 C226 522.66 226 523.32 226 524 C226.66 524 227.32 524 228 524 C228 524.66 228 525.32 228 526 C228.66 526 229.32 526 230 526 C230 526.66 230 527.32 230 528 C230.66 528 231.32 528 232 528 C232 528.66 232 529.32 232 530 C232.66 530 233.32 530 234 530 C234 530.66 234 531.32 234 532 C234.66 532 235.32 532 236 532 C236 532.66 236 533.32 236 534 C236.66 534 237.32 534 238 534 C238 534.66 238 535.32 238 536 C238.66 536 239.32 536 240 536 C240 536.66 240 537.32 240 538 C240.66 538 241.32 538 242 538 C242 538.66 242 539.32 242 540 C242.66 540 243.32 540 244 540 C244 540.66 244 541.32 244 542 C244.66 542 245.32 542 246 542 C246 542.66 246 543.32 246 544 C246.66 544 247.32 544 248 544 C248 544.66 248 545.32 248 546 C248.66 546 249.32 546 250 546 C250 546.66 250 547.32 250 548 C250.66 548 251.32 548 252 548 C252 548.66 252 549.32 252 550 C252.66 550 253.32 550 254 550 C254 550.66 254 551.32 254 552 C254.66 552 255.32 552 256 552 C256 552.66 256 553.32 256 554 C256.66 554 257.32 554 258 554 C258 554.66 258 555.32 258 556 C258.66 556 259.32 556 260 556 C260 556.66 260 557.32 260 558 C260.66 558 261.32 558 262 558 C262 558.66 262 559.32 262 560 C262.66 560 263.32 560 264 560 C264 560.66 264 561.32 264 562 C264.66 562 265.32 562 266 562 C266 562.66 266 563.32 266 564 C266.66 564 267.32 564 268 564 C268 564.66 268 565.32 268 566 C268.66 566 269.32 566 270 566 C270 566.66 270 567.32 270 568 C270.66 568 271.32 568 272 568 C272 568.66 272 569.32 272 570 C272.66 570 273.32 570 274 570 C274 570.66 274 571.32 274 572 C274.66 572 275.32 572 276 572 C276 572.66 276 573.32 276 574 C276.66 574 277.32 574 278 574 C278 574.66 278 575.32 278 576 C278.66 576 279.32 576 280 576 C280 576.66 280 577.32 280 578 C280.66 578 281.32 578 282 578 C282 578.66 282 579.32 282 580 C282.66 580 283.32 580 284 580 C284 580.66 284 581.32 284 582 C284.66 582 285.32 582 286 582 C286 582.66 286 583.32 286 584 C286.66 584 287.32 584 288 584 C288 584.66 288 585.32 288 586 C288.66 586 289.32 586 290 586 C290 586.66 290 587.32 290 588 C290.66 588 291.32 588 292 588 C292 588.66 292 589.32 292 590 C292.66 590 293.32 590 294 590 C294 590.66 294 591.32 294 592 C294.66 592 295.32 592 296 592 C296 592.66 296 593.32 296 594 C296.66 594 297.32 594 298 594 C298 594.66 298 595.32 298 596 C298.66 596 299.32 596 300 596 C300 596.66 300 597.32 300 598 C300.66 598 301.32 598 302 598 C302 598.66 302 599.32 302 600 C302.66 600 303.32 600 304 600 C304 600.66 304 601.32 304 602 C304.66 602 305.32 602 306 602 C306 602.66 306 603.32 306 604 C306.66 604 307.32 604 308 604 C308 604.66 308 605.32 308 606 C308.66 606 309.32 606 310 606 C310 606.66 310 607.32 310 608 C310.66 608 311.32 608 312 608 C312 608.66 312 609.32 312 610 C312.66 610 313.32 610 314 610 C314 610.66 314 611.32 314 612 C314.66 612 315.32 612 316 612 C316 612.66 316 613.32 316 614 C316.66 614 317.32 614 318 614 C318 614.66 318 615.32 318 616 C318.66 616 319.32 616 320 616 C320 616.66 320 617.32 320 618 C320.66 618 321.32 618 322 618 C322 618.66 322 619.32 322 620 C322.66 620 323.32 620 324 620 C324 620.66 324 621.32 324 622 C324.66 622 325.32 622 326 622 C326 622.66 326 623.32 326 624 C326.66 624 327.32 624 328 624 C328 624.66 328 625.32 328 626 C328.66 626 329.32 626 330 626 C330 626.66 330 627.32 330 628 C330.66 628 331.32 628 332 628 C332 628.66 332 629.32 332 630 C332.66 630 333.32 630 334 630 C334 630.66 334 631.32 334 632 C334.66 632 335.32 632 336 632 C336 632.66 336 633.32 336 634 C336.66 634 337.32 634 338 634 C338 634.66 338 635.32 338 636 C338.66 636 339.32 636 340 636 C340 636.66 340 637.32 340 638 C340.66 638 341.32 638 342 638 C342 638.66 342 639.32 342 640 C342.66 640 343.32 640 344 640 C344 640.66 344 641.32 344 642 C344.66 642 345.32 642 346 642 C346 642.66 346 643.32 346 644 C346.66 644 347.32 644 348 644 C348 644.66 348 645.32 348 646 C348.66 646 349.32 646 350 646 C350 646.66 350 647.32 350 648 C350.66 648 351.32 648 352 648 C352 648.66 352 649.32 352 650 C352.66 650 353.32 650 354 650 C354 650.66 354 651.32 354 652 C354.66 652 355.32 652 356 652 C356 652.66 356 653.32 356 654 C356.66 654 357.32 654 358 654 C358 654.66 358 655.32 358 656 C358.66 656 359.32 656 360 656 C360 656.66 360 657.32 360 658 C360.66 658 361.32 658 362 658 C362 658.66 362 659.32 362 660 C362.66 660 363.32 660 364 660 C364 660.66 364 661.32 364 662 C364.66 662 365.32 662 366 662 C366 662.66 366 663.32 366 664 C366.66 664 367.32 664 368 664 C368 664.66 368 665.32 368 666 C368.66 666 369.32 666 370 666 C370 666.66 370 667.32 370 668 C370.66 668 371.32 668 372 668 C372 668.66 372 669.32 372 670 C372.66 670 373.32 670 374 670 C374 670.66 374 671.32 374 672 C374.66 672 375.32 672 376 672 C376 672.66 376 673.32 376 674 C376.66 674 377.32 674 378 674 C378 674.66 378 675.32 378 676 C378.66 676 379.32 676 380 676 C380 676.66 380 677.32 380 678 C380.66 678 381.32 678 382 678 C382 678.66 382 679.32 382 680 C382.66 680 383.32 680 384 680 C384 680.66 384 681.32 384 682 C384.66 682 385.32 682 386 682 C386 682.66 386 683.32 386 684 C386.66 684 387.32 684 388 684 C388 684.66 388 685.32 388 686 C387.34 686 386.68 686 386 686 C386 686.66 386 687.32 386 688 C385.34 688 384.68 688 384 688 C384 688.66 384 689.32 384 690 C383.34 690 382.68 690 382 690 C382 690.66 382 691.32 382 692 C381.34 692 380.68 692 380 692 C380 692.66 380 693.32 380 694 C379.34 694 378.68 694 378 694 C378 694.66 378 695.32 378 696 C377.34 696 376.68 696 376 696 C376 696.66 376 697.32 376 698 C375.34 698 374.68 698 374 698 C374 698.66 374 699.32 374 700 C373.34 700 372.68 700 372 700 C372 700.66 372 701.32 372 702 C371.34 702 370.68 702 370 702 C370 702.66 370 703.32 370 704 C369.34 704 368.68 704 368 704 C368 704.66 368 705.32 368 706 C367.34 706 366.68 706 366 706 C366 706.66 366 707.32 366 708 C365.34 708 364.68 708 364 708 C364 708.66 364 709.32 364 710 C363.34 710 362.68 710 362 710 C362 710.66 362 711.32 362 712 C361.34 712 360.68 712 360 712 C360 712.66 360 713.32 360 714 C359.34 714 358.68 714 358 714 C358 714.66 358 715.32 358 716 C357.34 716 356.68 716 356 716 C356 716.66 356 717.32 356 718 C355.34 718 354.68 718 354 718 C354 718.66 354 719.32 354 720 C353.34 720 352.68 720 352 720 C352 720.66 352 721.32 352 722 C351.34 722 350.68 722 350 722 C350 722.66 350 723.32 350 724 C349.34 724 348.68 724 348 724 C348 724.66 348 725.32 348 726 C347.34 726 346.68 726 346 726 C346 726.66 346 727.32 346 728 C345.34 728 344.68 728 344 728 C344 728.66 344 729.32 344 730 C343.34 730 342.68 730 342 730 C342 730.66 342 731.32 342 732 C341.34 732 340.68 732 340 732 C340 732.66 340 733.32 340 734 C339.34 734 338.68 734 338 734 C338 734.66 338 735.32 338 736 C337.34 736 336.68 736 336 736 C336 736.66 336 737.32 336 738 C335.34 738 334.68 738 334 738 C334 738.66 334 739.32 334 740 C333.34 740 332.68 740 332 740 C332 740.66 332 741.32 332 742 C331.34 742 330.68 742 330 742 C330 742.66 330 743.32 330 744 C329.34 744 328.68 744 328 744 C328 744.66 328 745.32 328 746 C327.34 746 326.68 746 326 746 C326 746.66 326 747.32 326 748 C325.34 748 324.68 748 324 748 C324 748.66 324 749.32 324 750 C323.34 750 322.68 750 322 750 C322 750.66 322 751.32 322 752 C321.34 752 320.68 752 320 752 C320 752.66 320 753.32 320 754 C319.34 754 318.68 754 318 754 C318 754.66 318 755.32 318 756 C317.34 756 316.68 756 316 756 C316 755.34 316 754.68 316 754 C315.34 754 314.68 754 314 754 C314 753.34 314 752.68 314 752 C313.34 752 312.68 752 312 752 C312 751.34 312 750.68 312 750 C311.34 750 310.68 750 310 750 C310 749.34 310 748.68 310 748 C309.34 748 308.68 748 308 748 C308 747.34 308 746.68 308 746 C307.34 746 306.68 746 306 746 C306 745.34 306 744.68 306 744 C305.34 744 304.68 744 304 744 C304 743.34 304 742.68 304 742 C303.34 742 302.68 742 302 742 C302 741.34 302 740.68 302 740 C301.34 740 300.68 740 300 740 C300 739.34 300 738.68 300 738 C299.34 738 298.68 738 298 738 C298 737.34 298 736.68 298 736 C297.34 736 296.68 736 296 736 C296 735.34 296 734.68 296 734 C295.34 734 294.68 734 294 734 C294 733.34 294 732.68 294 732 C293.34 732 292.68 732 292 732 C292 731.34 292 730.68 292 730 C291.34 730 290.68 730 290 730 C290 729.34 290 728.68 290 728 C289.34 728 288.68 728 288 728 C288 727.34 288 726.68 288 726 C287.34 726 286.68 726 286 726 C286 725.34 286 724.68 286 724 C285.34 724 284.68 724 284 724 C284 723.34 284 722.68 284 722 C283.34 722 282.68 722 282 722 C282 721.34 282 720.68 282 720 C281.34 720 280.68 720 280 720 C280 719.34 280 718.68 280 718 C279.34 718 278.68 718 278 718 C278 717.34 278 716.68 278 716 C277.34 716 276.68 716 276 716 C276 715.34 276 714.68 276 714 C275.34 714 274.68 714 274 714 C274 713.34 274 712.68 274 712 C273.34 712 272.68 712 272 712 C272 711.34 272 710.68 272 710 C271.34 710 270.68 710 270 710 C270 709.34 270 708.68 270 708 C269.34 708 268.68 708 268 708 C268 707.34 268 706.68 268 706 C267.34 706 266.68 706 266 706 C266 705.34 266 704.68 266 704 C265.34 704 264.68 704 264 704 C264 703.34 264 702.68 264 702 C263.34 702 262.68 702 262 702 C262 701.34 262 700.68 262 700 C261.34 700 260.68 700 260 700 C260 699.34 260 698.68 260 698 C259.34 698 258.68 698 258 698 C258 697.34 258 696.68 258 696 C257.34 696 256.68 696 256 696 C256 695.34 256 694.68 256 694 C255.34 694 254.68 694 254 694 C254 693.34 254 692.68 254 692 C253.34 692 252.68 692 252 692 C252 691.34 252 690.68 252 690 C251.34 690 250.68 690 250 690 C250 689.34 250 688.68 250 688 C249.34 688 248.68 688 248 688 C248 687.34 248 686.68 248 686 C247.34 686 246.68 686 246 686 C246 685.34 246 684.68 246 684 C245.34 684 244.68 684 244 684 C244 683.34 244 682.68 244 682 C243.34 682 242.68 682 242 682 C242 681.34 242 680.68 242 680 C241.34 680 240.68 680 240 680 C240 679.34 240 678.68 240 678 C239.34 678 238.68 678 238 678 C238 677.34 238 676.68 238 676 C237.34 676 236.68 676 236 676 C236 675.34 236 674.68 236 674 C235.34 674 234.68 674 234 674 C234 673.34 234 672.68 234 672 C233.34 672 232.68 672 232 672 C232 671.34 232 670.68 232 670 C231.34 670 230.68 670 230 670 C230 669.34 230 668.68 230 668 C229.34 668 228.68 668 228 668 C228 667.34 228 666.68 228 666 C227.34 666 226.68 666 226 666 C226 665.34 226 664.68 226 664 C225.34 664 224.68 664 224 664 C224 663.34 224 662.68 224 662 C223.34 662 222.68 662 222 662 C222 661.34 222 660.68 222 660 C221.34 660 220.68 660 220 660 C220 659.34 220 658.68 220 658 C219.34 658 218.68 658 218 658 C218 657.34 218 656.68 218 656 C217.34 656 216.68 656 216 656 C216 655.34 216 654.68 216 654 C215.34 654 214.68 654 214 654 C214 653.34 214 652.68 214 652 C213.34 652 212.68 652 212 652 C212 651.34 212 650.68 212 650 C211.34 650 210.68 650 210 650 C210 649.34 210 648.68 210 648 C209.34 648 208.68 648 208 648 C208 647.34 208 646.68 208 646 C206.68 646 205.36 646 204 646 C204 645.34 204 644.68 204 644 C203.34 644 202.68 644 202 644 C202 643.34 202 642.68 202 642 C201.34 642 200.68 642 200 642 C200 641.34 200 640.68 200 640 C199.34 640 198.68 640 198 640 C198 639.34 198 638.68 198 638 C197.34 638 196.68 638 196 638 C196 637.34 196 636.68 196 636 C195.34 636 194.68 636 194 636 C194 635.34 194 634.68 194 634 C193.34 634 192.68 634 192 634 C192 633.34 192 632.68 192 632 C191.34 632 190.68 632 190 632 C190 631.34 190 630.68 190 630 C189.34 630 188.68 630 188 630 C188 629.34 188 628.68 188 628 C187.34 628 186.68 628 186 628 C186 627.34 186 626.68 186 626 C185.34 626 184.68 626 184 626 C184 625.34 184 624.68 184 624 C183.34 624 182.68 624 182 624 C182 623.34 182 622.68 182 622 C181.34 622 180.68 622 180 622 C180 621.34 180 620.68 180 620 C179.34 620 178.68 620 178 620 C178 619.34 178 618.68 178 618 C177.34 618 176.68 618 176 618 C176 617.34 176 616.68 176 616 C175.34 616 174.68 616 174 616 C174 615.34 174 614.68 174 614 C173.34 614 172.68 614 172 614 C172 613.34 172 612.68 172 612 C171.34 612 170.68 612 170 612 C170 611.34 170 610.68 170 610 C169.34 610 168.68 610 168 610 C168 609.34 168 608.68 168 608 C167.34 608 166.68 608 166 608 C166 607.34 166 606.68 166 606 C165.34 606 164.68 606 164 606 C164 605.34 164 604.68 164 604 C163.34 604 162.68 604 162 604 C162 603.34 162 602.68 162 602 C161.34 602 160.68 602 160 602 C160 601.34 160 600.68 160 600 C159.34 600 158.68 600 158 600 C158 599.34 158 598.68 158 598 C157.34 598 156.68 598 156 598 C156 597.34 156 596.68 156 596 C155.34 596 154.68 596 154 596 C154 595.34 154 594.68 154 594 C153.34 594 152.68 594 152 594 C152 593.34 152 592.68 152 592 C151.34 592 150.68 592 150 592 C150 591.34 150 590.68 150 590 C149.34 590 148.68 590 148 590 C148 589.34 148 588.68 148 588 C147.34 588 146.68 588 146 588 C146 587.34 146 586.68 146 586 C145.34 586 144.68 586 144 586 C144 585.34 144 584.68 144 584 C143.34 584 142.68 584 142 584 C142 583.34 142 582.68 142 582 C141.34 582 140.68 582 140 582 C140 581.34 140 580.68 140 580 C139.34 580 138.68 580 138 580 C138 579.34 138 578.68 138 578 C137.34 578 136.68 578 136 578 C136 577.34 136 576.68 136 576 C135.34 576 134.68 576 134 576 C134 575.34 134 574.68 134 574 C133.34 574 132.68 574 132 574 C132 573.34 132 572.68 132 572 C131.34 572 130.68 572 130 572 C130 571.34 130 570.68 130 570 C129.34 570 128.68 570 128 570 C128 569.34 128 568.68 128 568 C127.34 568 126.68 568 126 568 C126 567.34 126 566.68 126 566 C125.34 566 124.68 566 124 566 C124 565.34 124 564.68 124 564 C123.34 564 122.68 564 122 564 C122 563.34 122 562.68 122 562 C121.34 562 120.68 562 120 562 C120 561.34 120 560.68 120 560 C119.34 560 118.68 560 118 560 C118 559.34 118 558.68 118 558 C117.34 558 116.68 558 116 558 C116 557.34 116 556.68 116 556 C115.34 556 114.68 556 114 556 C114 555.34 114 554.68 114 554 C113.34 554 112.68 554 112 554 C112 553.34 112 552.68 112 552 C111.34 552 110.68 552 110 552 C110 551.34 110 550.68 110 550 C109.34 550 108.68 550 108 550 C108 549.34 108 548.68 108 548 C107.34 548 106.68 548 106 548 C106 547.34 106 546.68 106 546 C105.34 546 104.68 546 104 546 C104 545.34 104 544.68 104 544 C103.34 544 102.68 544 102 544 C102 643.66 102 743.32 102 846 C68.34 846 34.68 846 0 846 C0 747.66 0 649.32 0 548 C-0.66 548 -1.32 548 -2 548 C-2 548.66 -2 549.32 -2 550 C-2.66 550 -3.32 550 -4 550 C-4 550.66 -4 551.32 -4 552 C-4.66 552 -5.32 552 -6 552 C-6 552.66 -6 553.32 -6 554 C-6.66 554 -7.32 554 -8 554 C-8 554.66 -8 555.32 -8 556 C-8.66 556 -9.32 556 -10 556 C-10 556.66 -10 557.32 -10 558 C-10.66 558 -11.32 558 -12 558 C-12 558.66 -12 559.32 -12 560 C-12.66 560 -13.32 560 -14 560 C-14 560.66 -14 561.32 -14 562 C-14.66 562 -15.32 562 -16 562 C-16 562.66 -16 563.32 -16 564 C-16.66 564 -17.32 564 -18 564 C-18 564.66 -18 565.32 -18 566 C-18.66 566 -19.32 566 -20 566 C-20 566.66 -20 567.32 -20 568 C-20.66 568 -21.32 568 -22 568 C-22 568.66 -22 569.32 -22 570 C-22.66 570 -23.32 570 -24 570 C-24 570.66 -24 571.32 -24 572 C-24.66 572 -25.32 572 -26 572 C-26 572.66 -26 573.32 -26 574 C-26.66 574 -27.32 574 -28 574 C-28 574.66 -28 575.32 -28 576 C-28.66 576 -29.32 576 -30 576 C-30 576.66 -30 577.32 -30 578 C-30.66 578 -31.32 578 -32 578 C-32 578.66 -32 579.32 -32 580 C-32.66 580 -33.32 580 -34 580 C-34 580.66 -34 581.32 -34 582 C-34.66 582 -35.32 582 -36 582 C-36 582.66 -36 583.32 -36 584 C-36.66 584 -37.32 584 -38 584 C-38 584.66 -38 585.32 -38 586 C-38.66 586 -39.32 586 -40 586 C-40 586.66 -40 587.32 -40 588 C-40.66 588 -41.32 588 -42 588 C-42 588.66 -42 589.32 -42 590 C-42.66 590 -43.32 590 -44 590 C-44 590.66 -44 591.32 -44 592 C-44.66 592 -45.32 592 -46 592 C-46 592.66 -46 593.32 -46 594 C-46.66 594 -47.32 594 -48 594 C-48 594.66 -48 595.32 -48 596 C-48.66 596 -49.32 596 -50 596 C-50 596.66 -50 597.32 -50 598 C-50.66 598 -51.32 598 -52 598 C-52 598.66 -52 599.32 -52 600 C-52.66 600 -53.32 600 -54 600 C-54 600.66 -54 601.32 -54 602 C-54.66 602 -55.32 602 -56 602 C-56 602.66 -56 603.32 -56 604 C-56.66 604 -57.32 604 -58 604 C-58 604.66 -58 605.32 -58 606 C-58.66 606 -59.32 606 -60 606 C-60 606.66 -60 607.32 -60 608 C-60.66 608 -61.32 608 -62 608 C-62 608.66 -62 609.32 -62 610 C-62.66 610 -63.32 610 -64 610 C-64 610.66 -64 611.32 -64 612 C-64.66 612 -65.32 612 -66 612 C-66 612.66 -66 613.32 -66 614 C-66.66 614 -67.32 614 -68 614 C-68 614.66 -68 615.32 -68 616 C-68.66 616 -69.32 616 -70 616 C-70 616.66 -70 617.32 -70 618 C-70.66 618 -71.32 618 -72 618 C-72 618.66 -72 619.32 -72 620 C-72.66 620 -73.32 620 -74 620 C-74 620.66 -74 621.32 -74 622 C-74.66 622 -75.32 622 -76 622 C-76 622.66 -76 623.32 -76 624 C-76.66 624 -77.32 624 -78 624 C-78 624.66 -78 625.32 -78 626 C-78.66 626 -79.32 626 -80 626 C-80 626.66 -80 627.32 -80 628 C-80.66 628 -81.32 628 -82 628 C-82 628.66 -82 629.32 -82 630 C-82.66 630 -83.32 630 -84 630 C-84 630.66 -84 631.32 -84 632 C-84.66 632 -85.32 632 -86 632 C-86 632.66 -86 633.32 -86 634 C-86.66 634 -87.32 634 -88 634 C-88 634.66 -88 635.32 -88 636 C-88.66 636 -89.32 636 -90 636 C-90 636.66 -90 637.32 -90 638 C-90.66 638 -91.32 638 -92 638 C-92 638.66 -92 639.32 -92 640 C-92.66 640 -93.32 640 -94 640 C-94 640.66 -94 641.32 -94 642 C-94.66 642 -95.32 642 -96 642 C-96 642.66 -96 643.32 -96 644 C-96.66 644 -97.32 644 -98 644 C-98 644.66 -98 645.32 -98 646 C-99.32 646 -100.64 646 -102 646 C-102 646.66 -102 647.32 -102 648 C-102.66 648 -103.32 648 -104 648 C-104 648.66 -104 649.32 -104 650 C-104.66 650 -105.32 650 -106 650 C-106 650.66 -106 651.32 -106 652 C-106.66 652 -107.32 652 -108 652 C-108 652.66 -108 653.32 -108 654 C-108.66 654 -109.32 654 -110 654 C-110 654.66 -110 655.32 -110 656 C-110.66 656 -111.32 656 -112 656 C-112 656.66 -112 657.32 -112 658 C-112.66 658 -113.32 658 -114 658 C-114 658.66 -114 659.32 -114 660 C-114.66 660 -115.32 660 -116 660 C-116 660.66 -116 661.32 -116 662 C-116.66 662 -117.32 662 -118 662 C-118 662.66 -118 663.32 -118 664 C-118.66 664 -119.32 664 -120 664 C-120 664.66 -120 665.32 -120 666 C-120.66 666 -121.32 666 -122 666 C-122 666.66 -122 667.32 -122 668 C-122.66 668 -123.32 668 -124 668 C-124 668.66 -124 669.32 -124 670 C-124.66 670 -125.32 670 -126 670 C-126 670.66 -126 671.32 -126 672 C-126.66 672 -127.32 672 -128 672 C-128 672.66 -128 673.32 -128 674 C-128.66 674 -129.32 674 -130 674 C-130 674.66 -130 675.32 -130 676 C-130.66 676 -131.32 676 -132 676 C-132 676.66 -132 677.32 -132 678 C-132.66 678 -133.32 678 -134 678 C-134 678.66 -134 679.32 -134 680 C-134.66 680 -135.32 680 -136 680 C-136 680.66 -136 681.32 -136 682 C-136.66 682 -137.32 682 -138 682 C-138 682.66 -138 683.32 -138 684 C-138.66 684 -139.32 684 -140 684 C-140 684.66 -140 685.32 -140 686 C-140.66 686 -141.32 686 -142 686 C-142 686.66 -142 687.32 -142 688 C-142.66 688 -143.32 688 -144 688 C-144 688.66 -144 689.32 -144 690 C-144.66 690 -145.32 690 -146 690 C-146 690.66 -146 691.32 -146 692 C-146.66 692 -147.32 692 -148 692 C-148 692.66 -148 693.32 -148 694 C-148.66 694 -149.32 694 -150 694 C-150 694.66 -150 695.32 -150 696 C-150.66 696 -151.32 696 -152 696 C-152 696.66 -152 697.32 -152 698 C-152.66 698 -153.32 698 -154 698 C-154 698.66 -154 699.32 -154 700 C-154.66 700 -155.32 700 -156 700 C-156 700.66 -156 701.32 -156 702 C-156.66 702 -157.32 702 -158 702 C-158 702.66 -158 703.32 -158 704 C-158.66 704 -159.32 704 -160 704 C-160 704.66 -160 705.32 -160 706 C-160.66 706 -161.32 706 -162 706 C-162 706.66 -162 707.32 -162 708 C-162.66 708 -163.32 708 -164 708 C-164 708.66 -164 709.32 -164 710 C-164.66 710 -165.32 710 -166 710 C-166 710.66 -166 711.32 -166 712 C-166.66 712 -167.32 712 -168 712 C-168 712.66 -168 713.32 -168 714 C-168.66 714 -169.32 714 -170 714 C-170 714.66 -170 715.32 -170 716 C-170.66 716 -171.32 716 -172 716 C-172 716.66 -172 717.32 -172 718 C-172.66 718 -173.32 718 -174 718 C-174 718.66 -174 719.32 -174 720 C-174.66 720 -175.32 720 -176 720 C-176 720.66 -176 721.32 -176 722 C-176.66 722 -177.32 722 -178 722 C-178 722.66 -178 723.32 -178 724 C-178.66 724 -179.32 724 -180 724 C-180 724.66 -180 725.32 -180 726 C-180.66 726 -181.32 726 -182 726 C-182 726.66 -182 727.32 -182 728 C-182.66 728 -183.32 728 -184 728 C-184 728.66 -184 729.32 -184 730 C-184.66 730 -185.32 730 -186 730 C-186 730.66 -186 731.32 -186 732 C-186.66 732 -187.32 732 -188 732 C-188 732.66 -188 733.32 -188 734 C-188.66 734 -189.32 734 -190 734 C-190 734.66 -190 735.32 -190 736 C-190.66 736 -191.32 736 -192 736 C-192 736.66 -192 737.32 -192 738 C-192.66 738 -193.32 738 -194 738 C-194 738.66 -194 739.32 -194 740 C-194.66 740 -195.32 740 -196 740 C-196 740.66 -196 741.32 -196 742 C-196.66 742 -197.32 742 -198 742 C-198 742.66 -198 743.32 -198 744 C-198.66 744 -199.32 744 -200 744 C-200 744.66 -200 745.32 -200 746 C-200.66 746 -201.32 746 -202 746 C-202 746.66 -202 747.32 -202 748 C-202.66 748 -203.32 748 -204 748 C-204 748.66 -204 749.32 -204 750 C-204.66 750 -205.32 750 -206 750 C-206 750.66 -206 751.32 -206 752 C-206.66 752 -207.32 752 -208 752 C-208 752.66 -208 753.32 -208 754 C-208.66 754 -209.32 754 -210 754 C-210 754.66 -210 755.32 -210 756 C-210.66 756 -211.32 756 -212 756 C-212 756.66 -212 757.32 -212 758 C-212.66 758 -213.32 758 -214 758 C-214 758.66 -214 759.32 -214 760 C-214.66 760 -215.32 760 -216 760 C-216 760.66 -216 761.32 -216 762 C-216.66 762 -217.32 762 -218 762 C-218 762.66 -218 763.32 -218 764 C-218.66 764 -219.32 764 -220 764 C-220 764.66 -220 765.32 -220 766 C-220.66 766 -221.32 766 -222 766 C-222 766.66 -222 767.32 -222 768 C-223.32 768 -224.64 768 -226 768 C-226 767.34 -226 766.68 -226 766 C-226.66 766 -227.32 766 -228 766 C-228 765.34 -228 764.68 -228 764 C-228.66 764 -229.32 764 -230 764 C-230 763.34 -230 762.68 -230 762 C-230.66 762 -231.32 762 -232 762 C-232 761.34 -232 760.68 -232 760 C-232.66 760 -233.32 760 -234 760 C-234 759.34 -234 758.68 -234 758 C-234.66 758 -235.32 758 -236 758 C-236 757.34 -236 756.68 -236 756 C-236.66 756 -237.32 756 -238 756 C-238 755.34 -238 754.68 -238 754 C-238.66 754 -239.32 754 -240 754 C-240 753.34 -240 752.68 -240 752 C-240.66 752 -241.32 752 -242 752 C-242 751.34 -242 750.68 -242 750 C-242.66 750 -243.32 750 -244 750 C-244 749.34 -244 748.68 -244 748 C-244.66 748 -245.32 748 -246 748 C-246 747.34 -246 746.68 -246 746 C-246.66 746 -247.32 746 -248 746 C-248 745.34 -248 744.68 -248 744 C-248.66 744 -249.32 744 -250 744 C-250 743.34 -250 742.68 -250 742 C-250.66 742 -251.32 742 -252 742 C-252 741.34 -252 740.68 -252 740 C-252.66 740 -253.32 740 -254 740 C-254 739.34 -254 738.68 -254 738 C-254.66 738 -255.32 738 -256 738 C-256 737.34 -256 736.68 -256 736 C-256.66 736 -257.32 736 -258 736 C-258 735.34 -258 734.68 -258 734 C-258.66 734 -259.32 734 -260 734 C-260 733.34 -260 732.68 -260 732 C-260.66 732 -261.32 732 -262 732 C-262 731.34 -262 730.68 -262 730 C-262.66 730 -263.32 730 -264 730 C-264 729.34 -264 728.68 -264 728 C-264.66 728 -265.32 728 -266 728 C-266 727.34 -266 726.68 -266 726 C-266.66 726 -267.32 726 -268 726 C-268 725.34 -268 724.68 -268 724 C-268.66 724 -269.32 724 -270 724 C-270 723.34 -270 722.68 -270 722 C-270.66 722 -271.32 722 -272 722 C-272 721.34 -272 720.68 -272 720 C-272.66 720 -273.32 720 -274 720 C-274 719.34 -274 718.68 -274 718 C-274.66 718 -275.32 718 -276 718 C-276 717.34 -276 716.68 -276 716 C-276.66 716 -277.32 716 -278 716 C-278 715.34 -278 714.68 -278 714 C-278.66 714 -279.32 714 -280 714 C-280 713.34 -280 712.68 -280 712 C-280.66 712 -281.32 712 -282 712 C-282 711.34 -282 710.68 -282 710 C-282.66 710 -283.32 710 -284 710 C-284 709.34 -284 708.68 -284 708 C-284.66 708 -285.32 708 -286 708 C-286 707.34 -286 706.68 -286 706 C-286.66 706 -287.32 706 -288 706 C-288 705.34 -288 704.68 -288 704 C-288.66 704 -289.32 704 -290 704 C-290 703.34 -290 702.68 -290 702 C-290.66 702 -291.32 702 -292 702 C-292 701.34 -292 700.68 -292 700 C-292.66 700 -293.32 700 -294 700 C-294 699.34 -294 698.68 -294 698 C-294.66 698 -295.32 698 -296 698 C-296 697.34 -296 696.68 -296 696 C-296.66 696 -297.32 696 -298 696 C-298 694.02 -298 692.04 -298 690 C-297.34 690 -296.68 690 -296 690 C-296 689.34 -296 688.68 -296 688 C-295.34 688 -294.68 688 -294 688 C-294 687.34 -294 686.68 -294 686 C-293.34 686 -292.68 686 -292 686 C-292 685.34 -292 684.68 -292 684 C-291.34 684 -290.68 684 -290 684 C-290 683.34 -290 682.68 -290 682 C-289.34 682 -288.68 682 -288 682 C-288 681.34 -288 680.68 -288 680 C-287.34 680 -286.68 680 -286 680 C-286 679.34 -286 678.68 -286 678 C-285.34 678 -284.68 678 -284 678 C-284 677.34 -284 676.68 -284 676 C-283.34 676 -282.68 676 -282 676 C-282 675.34 -282 674.68 -282 674 C-281.34 674 -280.68 674 -280 674 C-280 673.34 -280 672.68 -280 672 C-279.34 672 -278.68 672 -278 672 C-278 671.34 -278 670.68 -278 670 C-277.34 670 -276.68 670 -276 670 C-276 669.34 -276 668.68 -276 668 C-275.34 668 -274.68 668 -274 668 C-274 667.34 -274 666.68 -274 666 C-273.34 666 -272.68 666 -272 666 C-272 665.34 -272 664.68 -272 664 C-271.34 664 -270.68 664 -270 664 C-270 663.34 -270 662.68 -270 662 C-269.34 662 -268.68 662 -268 662 C-268 661.34 -268 660.68 -268 660 C-267.34 660 -266.68 660 -266 660 C-266 659.34 -266 658.68 -266 658 C-265.34 658 -264.68 658 -264 658 C-264 657.34 -264 656.68 -264 656 C-263.34 656 -262.68 656 -262 656 C-262 655.34 -262 654.68 -262 654 C-261.34 654 -260.68 654 -260 654 C-260 653.34 -260 652.68 -260 652 C-259.34 652 -258.68 652 -258 652 C-258 651.34 -258 650.68 -258 650 C-257.34 650 -256.68 650 -256 650 C-256 649.34 -256 648.68 -256 648 C-255.34 648 -254.68 648 -254 648 C-254 647.34 -254 646.68 -254 646 C-253.34 646 -252.68 646 -252 646 C-252 645.34 -252 644.68 -252 644 C-251.34 644 -250.68 644 -250 644 C-250 643.34 -250 642.68 -250 642 C-249.34 642 -248.68 642 -248 642 C-248 641.34 -248 640.68 -248 640 C-247.34 640 -246.68 640 -246 640 C-246 639.34 -246 638.68 -246 638 C-245.34 638 -244.68 638 -244 638 C-244 637.34 -244 636.68 -244 636 C-243.34 636 -242.68 636 -242 636 C-242 635.34 -242 634.68 -242 634 C-241.34 634 -240.68 634 -240 634 C-240 633.34 -240 632.68 -240 632 C-239.34 632 -238.68 632 -238 632 C-238 631.34 -238 630.68 -238 630 C-237.34 630 -236.68 630 -236 630 C-236 629.34 -236 628.68 -236 628 C-235.34 628 -234.68 628 -234 628 C-234 627.34 -234 626.68 -234 626 C-233.34 626 -232.68 626 -232 626 C-232 625.34 -232 624.68 -232 624 C-231.34 624 -230.68 624 -230 624 C-230 623.34 -230 622.68 -230 622 C-229.34 622 -228.68 622 -228 622 C-228 621.34 -228 620.68 -228 620 C-227.34 620 -226.68 620 -226 620 C-226 619.34 -226 618.68 -226 618 C-225.34 618 -224.68 618 -224 618 C-224 617.34 -224 616.68 -224 616 C-223.34 616 -222.68 616 -222 616 C-222 615.34 -222 614.68 -222 614 C-221.34 614 -220.68 614 -220 614 C-220 613.34 -220 612.68 -220 612 C-219.34 612 -218.68 612 -218 612 C-218 611.34 -218 610.68 -218 610 C-217.34 610 -216.68 610 -216 610 C-216 609.34 -216 608.68 -216 608 C-215.34 608 -214.68 608 -214 608 C-214 607.34 -214 606.68 -214 606 C-212.68 606 -211.36 606 -210 606 C-210 605.34 -210 604.68 -210 604 C-209.34 604 -208.68 604 -208 604 C-208 603.34 -208 602.68 -208 602 C-207.34 602 -206.68 602 -206 602 C-206 601.34 -206 600.68 -206 600 C-205.34 600 -204.68 600 -204 600 C-204 599.34 -204 598.68 -204 598 C-203.34 598 -202.68 598 -202 598 C-202 597.34 -202 596.68 -202 596 C-201.34 596 -200.68 596 -200 596 C-200 595.34 -200 594.68 -200 594 C-199.34 594 -198.68 594 -198 594 C-198 593.34 -198 592.68 -198 592 C-197.34 592 -196.68 592 -196 592 C-196 591.34 -196 590.68 -196 590 C-195.34 590 -194.68 590 -194 590 C-194 589.34 -194 588.68 -194 588 C-193.34 588 -192.68 588 -192 588 C-192 587.34 -192 586.68 -192 586 C-191.34 586 -190.68 586 -190 586 C-190 585.34 -190 584.68 -190 584 C-189.34 584 -188.68 584 -188 584 C-188 583.34 -188 582.68 -188 582 C-187.34 582 -186.68 582 -186 582 C-186 581.34 -186 580.68 -186 580 C-185.34 580 -184.68 580 -184 580 C-184 579.34 -184 578.68 -184 578 C-183.34 578 -182.68 578 -182 578 C-182 577.34 -182 576.68 -182 576 C-181.34 576 -180.68 576 -180 576 C-180 575.34 -180 574.68 -180 574 C-179.34 574 -178.68 574 -178 574 C-178 573.34 -178 572.68 -178 572 C-177.34 572 -176.68 572 -176 572 C-176 571.34 -176 570.68 -176 570 C-175.34 570 -174.68 570 -174 570 C-174 569.34 -174 568.68 -174 568 C-173.34 568 -172.68 568 -172 568 C-172 567.34 -172 566.68 -172 566 C-171.34 566 -170.68 566 -170 566 C-170 565.34 -170 564.68 -170 564 C-169.34 564 -168.68 564 -168 564 C-168 563.34 -168 562.68 -168 562 C-167.34 562 -166.68 562 -166 562 C-166 561.34 -166 560.68 -166 560 C-165.34 560 -164.68 560 -164 560 C-164 559.34 -164 558.68 -164 558 C-163.34 558 -162.68 558 -162 558 C-162 557.34 -162 556.68 -162 556 C-161.34 556 -160.68 556 -160 556 C-160 555.34 -160 554.68 -160 554 C-159.34 554 -158.68 554 -158 554 C-158 553.34 -158 552.68 -158 552 C-157.34 552 -156.68 552 -156 552 C-156 551.34 -156 550.68 -156 550 C-155.34 550 -154.68 550 -154 550 C-154 549.34 -154 548.68 -154 548 C-153.34 548 -152.68 548 -152 548 C-152 547.34 -152 546.68 -152 546 C-151.34 546 -150.68 546 -150 546 C-150 545.34 -150 544.68 -150 544 C-149.34 544 -148.68 544 -148 544 C-148 543.34 -148 542.68 -148 542 C-147.34 542 -146.68 542 -146 542 C-146 541.34 -146 540.68 -146 540 C-145.34 540 -144.68 540 -144 540 C-144 539.34 -144 538.68 -144 538 C-143.34 538 -142.68 538 -142 538 C-142 537.34 -142 536.68 -142 536 C-141.34 536 -140.68 536 -140 536 C-140 535.34 -140 534.68 -140 534 C-139.34 534 -138.68 534 -138 534 C-138 533.34 -138 532.68 -138 532 C-137.34 532 -136.68 532 -136 532 C-136 531.34 -136 530.68 -136 530 C-135.34 530 -134.68 530 -134 530 C-134 529.34 -134 528.68 -134 528 C-133.34 528 -132.68 528 -132 528 C-132 527.34 -132 526.68 -132 526 C-131.34 526 -130.68 526 -130 526 C-130 525.34 -130 524.68 -130 524 C-129.34 524 -128.68 524 -128 524 C-128 523.34 -128 522.68 -128 522 C-127.34 522 -126.68 522 -126 522 C-126 521.34 -126 520.68 -126 520 C-125.34 520 -124.68 520 -124 520 C-124 519.34 -124 518.68 -124 518 C-123.34 518 -122.68 518 -122 518 C-122 517.34 -122 516.68 -122 516 C-121.34 516 -120.68 516 -120 516 C-120 515.34 -120 514.68 -120 514 C-119.34 514 -118.68 514 -118 514 C-118 513.34 -118 512.68 -118 512 C-117.34 512 -116.68 512 -116 512 C-116 511.34 -116 510.68 -116 510 C-115.34 510 -114.68 510 -114 510 C-114 509.34 -114 508.68 -114 508 C-113.34 508 -112.68 508 -112 508 C-112 507.34 -112 506.68 -112 506 C-111.34 506 -110.68 506 -110 506 C-110 505.34 -110 504.68 -110 504 C-109.34 504 -108.68 504 -108 504 C-108 503.34 -108 502.68 -108 502 C-107.34 502 -106.68 502 -106 502 C-106 501.34 -106 500.68 -106 500 C-105.34 500 -104.68 500 -104 500 C-104 499.34 -104 498.68 -104 498 C-103.34 498 -102.68 498 -102 498 C-102 497.34 -102 496.68 -102 496 C-101.34 496 -100.68 496 -100 496 C-100 495.34 -100 494.68 -100 494 C-99.34 494 -98.68 494 -98 494 C-98 493.34 -98 492.68 -98 492 C-97.34 492 -96.68 492 -96 492 C-96 491.34 -96 490.68 -96 490 C-95.34 490 -94.68 490 -94 490 C-94 489.34 -94 488.68 -94 488 C-93.34 488 -92.68 488 -92 488 C-92 487.34 -92 486.68 -92 486 C-91.34 486 -90.68 486 -90 486 C-90 485.34 -90 484.68 -90 484 C-89.34 484 -88.68 484 -88 484 C-88 483.34 -88 482.68 -88 482 C-87.34 482 -86.68 482 -86 482 C-86 481.34 -86 480.68 -86 480 C-85.34 480 -84.68 480 -84 480 C-84 479.34 -84 478.68 -84 478 C-83.34 478 -82.68 478 -82 478 C-82 477.34 -82 476.68 -82 476 C-183.64 476 -285.28 476 -390 476 C-390 441.02 -390 406.04 -390 370 C-285.72 370 -181.44 370 -74 370 C-74 369.34 -74 368.68 -74 368 C-74.66 368 -75.32 368 -76 368 C-76 367.34 -76 366.68 -76 366 C-76.66 366 -77.32 366 -78 366 C-78 365.34 -78 364.68 -78 364 C-78.66 364 -79.32 364 -80 364 C-80 363.34 -80 362.68 -80 362 C-80.66 362 -81.32 362 -82 362 C-82 361.34 -82 360.68 -82 360 C-82.66 360 -83.32 360 -84 360 C-84 359.34 -84 358.68 -84 358 C-84.66 358 -85.32 358 -86 358 C-86 357.34 -86 356.68 -86 356 C-86.66 356 -87.32 356 -88 356 C-88 355.34 -88 354.68 -88 354 C-88.66 354 -89.32 354 -90 354 C-90 353.34 -90 352.68 -90 352 C-90.66 352 -91.32 352 -92 352 C-92 351.34 -92 350.68 -92 350 C-92.66 350 -93.32 350 -94 350 C-94 349.34 -94 348.68 -94 348 C-94.66 348 -95.32 348 -96 348 C-96 347.34 -96 346.68 -96 346 C-96.66 346 -97.32 346 -98 346 C-98 345.34 -98 344.68 -98 344 C-98.66 344 -99.32 344 -100 344 C-100 343.34 -100 342.68 -100 342 C-100.66 342 -101.32 342 -102 342 C-102 341.34 -102 340.68 -102 340 C-102.66 340 -103.32 340 -104 340 C-104 339.34 -104 338.68 -104 338 C-104.66 338 -105.32 338 -106 338 C-106 337.34 -106 336.68 -106 336 C-106.66 336 -107.32 336 -108 336 C-108 335.34 -108 334.68 -108 334 C-108.66 334 -109.32 334 -110 334 C-110 333.34 -110 332.68 -110 332 C-110.66 332 -111.32 332 -112 332 C-112 331.34 -112 330.68 -112 330 C-112.66 330 -113.32 330 -114 330 C-114 329.34 -114 328.68 -114 328 C-114.66 328 -115.32 328 -116 328 C-116 327.34 -116 326.68 -116 326 C-116.66 326 -117.32 326 -118 326 C-118 325.34 -118 324.68 -118 324 C-118.66 324 -119.32 324 -120 324 C-120 323.34 -120 322.68 -120 322 C-120.66 322 -121.32 322 -122 322 C-122 321.34 -122 320.68 -122 320 C-122.66 320 -123.32 320 -124 320 C-124 319.34 -124 318.68 -124 318 C-124.66 318 -125.32 318 -126 318 C-126 317.34 -126 316.68 -126 316 C-126.66 316 -127.32 316 -128 316 C-128 315.34 -128 314.68 -128 314 C-128.66 314 -129.32 314 -130 314 C-130 313.34 -130 312.68 -130 312 C-130.66 312 -131.32 312 -132 312 C-132 311.34 -132 310.68 -132 310 C-132.66 310 -133.32 310 -134 310 C-134 309.34 -134 308.68 -134 308 C-134.66 308 -135.32 308 -136 308 C-136 307.34 -136 306.68 -136 306 C-136.66 306 -137.32 306 -138 306 C-138 305.34 -138 304.68 -138 304 C-138.66 304 -139.32 304 -140 304 C-140 303.34 -140 302.68 -140 302 C-140.66 302 -141.32 302 -142 302 C-142 301.34 -142 300.68 -142 300 C-142.66 300 -143.32 300 -144 300 C-144 299.34 -144 298.68 -144 298 C-144.66 298 -145.32 298 -146 298 C-146 297.34 -146 296.68 -146 296 C-146.66 296 -147.32 296 -148 296 C-148 295.34 -148 294.68 -148 294 C-148.66 294 -149.32 294 -150 294 C-150 293.34 -150 292.68 -150 292 C-150.66 292 -151.32 292 -152 292 C-152 291.34 -152 290.68 -152 290 C-152.66 290 -153.32 290 -154 290 C-154 289.34 -154 288.68 -154 288 C-154.66 288 -155.32 288 -156 288 C-156 287.34 -156 286.68 -156 286 C-156.66 286 -157.32 286 -158 286 C-158 285.34 -158 284.68 -158 284 C-158.66 284 -159.32 284 -160 284 C-160 283.34 -160 282.68 -160 282 C-160.66 282 -161.32 282 -162 282 C-162 281.34 -162 280.68 -162 280 C-162.66 280 -163.32 280 -164 280 C-164 279.34 -164 278.68 -164 278 C-164.66 278 -165.32 278 -166 278 C-166 277.34 -166 276.68 -166 276 C-166.66 276 -167.32 276 -168 276 C-168 275.34 -168 274.68 -168 274 C-168.66 274 -169.32 274 -170 274 C-170 273.34 -170 272.68 -170 272 C-170.66 272 -171.32 272 -172 272 C-172 271.34 -172 270.68 -172 270 C-172.66 270 -173.32 270 -174 270 C-174 269.34 -174 268.68 -174 268 C-174.66 268 -175.32 268 -176 268 C-176 267.34 -176 266.68 -176 266 C-176.66 266 -177.32 266 -178 266 C-178 265.34 -178 264.68 -178 264 C-178.66 264 -179.32 264 -180 264 C-180 263.34 -180 262.68 -180 262 C-180.66 262 -181.32 262 -182 262 C-182 261.34 -182 260.68 -182 260 C-182.66 260 -183.32 260 -184 260 C-184 259.34 -184 258.68 -184 258 C-184.66 258 -185.32 258 -186 258 C-186 257.34 -186 256.68 -186 256 C-186.66 256 -187.32 256 -188 256 C-188 255.34 -188 254.68 -188 254 C-188.66 254 -189.32 254 -190 254 C-190 253.34 -190 252.68 -190 252 C-190.66 252 -191.32 252 -192 252 C-192 251.34 -192 250.68 -192 250 C-192.66 250 -193.32 250 -194 250 C-194 249.34 -194 248.68 -194 248 C-194.66 248 -195.32 248 -196 248 C-196 247.34 -196 246.68 -196 246 C-196.66 246 -197.32 246 -198 246 C-198 245.34 -198 244.68 -198 244 C-198.66 244 -199.32 244 -200 244 C-200 243.34 -200 242.68 -200 242 C-200.66 242 -201.32 242 -202 242 C-202 241.34 -202 240.68 -202 240 C-202.66 240 -203.32 240 -204 240 C-204 239.34 -204 238.68 -204 238 C-204.66 238 -205.32 238 -206 238 C-206 237.34 -206 236.68 -206 236 C-206.66 236 -207.32 236 -208 236 C-208 235.34 -208 234.68 -208 234 C-208.66 234 -209.32 234 -210 234 C-210 233.34 -210 232.68 -210 232 C-210.66 232 -211.32 232 -212 232 C-212 231.34 -212 230.68 -212 230 C-212.66 230 -213.32 230 -214 230 C-214 229.34 -214 228.68 -214 228 C-214.66 228 -215.32 228 -216 228 C-216 227.34 -216 226.68 -216 226 C-216.66 226 -217.32 226 -218 226 C-218 225.34 -218 224.68 -218 224 C-218.66 224 -219.32 224 -220 224 C-220 223.34 -220 222.68 -220 222 C-220.66 222 -221.32 222 -222 222 C-222 221.34 -222 220.68 -222 220 C-222.66 220 -223.32 220 -224 220 C-224 219.34 -224 218.68 -224 218 C-224.66 218 -225.32 218 -226 218 C-226 217.34 -226 216.68 -226 216 C-226.66 216 -227.32 216 -228 216 C-228 215.34 -228 214.68 -228 214 C-228.66 214 -229.32 214 -230 214 C-230 213.34 -230 212.68 -230 212 C-230.66 212 -231.32 212 -232 212 C-232 211.34 -232 210.68 -232 210 C-232.66 210 -233.32 210 -234 210 C-234 209.34 -234 208.68 -234 208 C-234.66 208 -235.32 208 -236 208 C-236 207.34 -236 206.68 -236 206 C-236.66 206 -237.32 206 -238 206 C-238 205.34 -238 204.68 -238 204 C-238.66 204 -239.32 204 -240 204 C-240 203.34 -240 202.68 -240 202 C-240.66 202 -241.32 202 -242 202 C-242 201.34 -242 200.68 -242 200 C-243.32 200 -244.64 200 -246 200 C-246 199.34 -246 198.68 -246 198 C-246.66 198 -247.32 198 -248 198 C-248 197.34 -248 196.68 -248 196 C-248.66 196 -249.32 196 -250 196 C-250 195.34 -250 194.68 -250 194 C-250.66 194 -251.32 194 -252 194 C-252 193.34 -252 192.68 -252 192 C-252.66 192 -253.32 192 -254 192 C-254 191.34 -254 190.68 -254 190 C-254.66 190 -255.32 190 -256 190 C-256 189.34 -256 188.68 -256 188 C-256.66 188 -257.32 188 -258 188 C-258 187.34 -258 186.68 -258 186 C-258.66 186 -259.32 186 -260 186 C-260 185.34 -260 184.68 -260 184 C-260.66 184 -261.32 184 -262 184 C-262 183.34 -262 182.68 -262 182 C-262.66 182 -263.32 182 -264 182 C-264 181.34 -264 180.68 -264 180 C-264.66 180 -265.32 180 -266 180 C-266 179.34 -266 178.68 -266 178 C-266.66 178 -267.32 178 -268 178 C-268 177.34 -268 176.68 -268 176 C-268.66 176 -269.32 176 -270 176 C-270 175.34 -270 174.68 -270 174 C-270.66 174 -271.32 174 -272 174 C-272 173.34 -272 172.68 -272 172 C-272.66 172 -273.32 172 -274 172 C-274 171.34 -274 170.68 -274 170 C-274.66 170 -275.32 170 -276 170 C-276 169.34 -276 168.68 -276 168 C-276.66 168 -277.32 168 -278 168 C-278 167.34 -278 166.68 -278 166 C-278.66 166 -279.32 166 -280 166 C-280 165.34 -280 164.68 -280 164 C-280.66 164 -281.32 164 -282 164 C-282 163.34 -282 162.68 -282 162 C-282.66 162 -283.32 162 -284 162 C-284 161.34 -284 160.68 -284 160 C-284.66 160 -285.32 160 -286 160 C-286 158.68 -286 157.36 -286 156 C-285.34 156 -284.68 156 -284 156 C-284 155.34 -284 154.68 -284 154 C-283.34 154 -282.68 154 -282 154 C-282 153.34 -282 152.68 -282 152 C-281.34 152 -280.68 152 -280 152 C-280 151.34 -280 150.68 -280 150 C-279.34 150 -278.68 150 -278 150 C-278 149.34 -278 148.68 -278 148 C-277.34 148 -276.68 148 -276 148 C-276 147.34 -276 146.68 -276 146 C-275.34 146 -274.68 146 -274 146 C-274 145.34 -274 144.68 -274 144 C-273.34 144 -272.68 144 -272 144 C-272 143.34 -272 142.68 -272 142 C-271.34 142 -270.68 142 -270 142 C-270 141.34 -270 140.68 -270 140 C-269.34 140 -268.68 140 -268 140 C-268 139.34 -268 138.68 -268 138 C-267.34 138 -266.68 138 -266 138 C-266 137.34 -266 136.68 -266 136 C-265.34 136 -264.68 136 -264 136 C-264 135.34 -264 134.68 -264 134 C-263.34 134 -262.68 134 -262 134 C-262 133.34 -262 132.68 -262 132 C-261.34 132 -260.68 132 -260 132 C-260 131.34 -260 130.68 -260 130 C-259.34 130 -258.68 130 -258 130 C-258 129.34 -258 128.68 -258 128 C-257.34 128 -256.68 128 -256 128 C-256 127.34 -256 126.68 -256 126 C-255.34 126 -254.68 126 -254 126 C-254 125.34 -254 124.68 -254 124 C-253.34 124 -252.68 124 -252 124 C-252 123.34 -252 122.68 -252 122 C-251.34 122 -250.68 122 -250 122 C-250 121.34 -250 120.68 -250 120 C-249.34 120 -248.68 120 -248 120 C-248 119.34 -248 118.68 -248 118 C-247.34 118 -246.68 118 -246 118 C-246 117.34 -246 116.68 -246 116 C-245.34 116 -244.68 116 -244 116 C-244 115.34 -244 114.68 -244 114 C-243.34 114 -242.68 114 -242 114 C-242 113.34 -242 112.68 -242 112 C-241.34 112 -240.68 112 -240 112 C-240 111.34 -240 110.68 -240 110 C-239.34 110 -238.68 110 -238 110 C-238 109.34 -238 108.68 -238 108 C-237.34 108 -236.68 108 -236 108 C-236 107.34 -236 106.68 -236 106 C-235.34 106 -234.68 106 -234 106 C-234 105.34 -234 104.68 -234 104 C-233.34 104 -232.68 104 -232 104 C-232 103.34 -232 102.68 -232 102 C-231.34 102 -230.68 102 -230 102 C-230 101.34 -230 100.68 -230 100 C-229.34 100 -228.68 100 -228 100 C-228 99.34 -228 98.68 -228 98 C-227.34 98 -226.68 98 -226 98 C-226 97.34 -226 96.68 -226 96 C-225.34 96 -224.68 96 -224 96 C-224 95.34 -224 94.68 -224 94 C-223.34 94 -222.68 94 -222 94 C-222 93.34 -222 92.68 -222 92 C-221.34 92 -220.68 92 -220 92 C-220 91.34 -220 90.68 -220 90 C-219.34 90 -218.68 90 -218 90 C-218 89.34 -218 88.68 -218 88 C-216.02 88 -214.04 88 -212 88 C-212 88.66 -212 89.32 -212 90 C-211.34 90 -210.68 90 -210 90 C-210 90.66 -210 91.32 -210 92 C-209.34 92 -208.68 92 -208 92 C-208 92.66 -208 93.32 -208 94 C-207.34 94 -206.68 94 -206 94 C-206 94.66 -206 95.32 -206 96 C-205.34 96 -204.68 96 -204 96 C-204 96.66 -204 97.32 -204 98 C-203.34 98 -202.68 98 -202 98 C-202 98.66 -202 99.32 -202 100 C-201.34 100 -200.68 100 -200 100 C-200 100.66 -200 101.32 -200 102 C-199.34 102 -198.68 102 -198 102 C-198 102.66 -198 103.32 -198 104 C-197.34 104 -196.68 104 -196 104 C-196 104.66 -196 105.32 -196 106 C-195.34 106 -194.68 106 -194 106 C-194 106.66 -194 107.32 -194 108 C-193.34 108 -192.68 108 -192 108 C-192 108.66 -192 109.32 -192 110 C-191.34 110 -190.68 110 -190 110 C-190 110.66 -190 111.32 -190 112 C-189.34 112 -188.68 112 -188 112 C-188 112.66 -188 113.32 -188 114 C-187.34 114 -186.68 114 -186 114 C-186 114.66 -186 115.32 -186 116 C-185.34 116 -184.68 116 -184 116 C-184 116.66 -184 117.32 -184 118 C-183.34 118 -182.68 118 -182 118 C-182 118.66 -182 119.32 -182 120 C-181.34 120 -180.68 120 -180 120 C-180 120.66 -180 121.32 -180 122 C-179.34 122 -178.68 122 -178 122 C-178 122.66 -178 123.32 -178 124 C-177.34 124 -176.68 124 -176 124 C-176 124.66 -176 125.32 -176 126 C-175.34 126 -174.68 126 -174 126 C-174 126.66 -174 127.32 -174 128 C-173.34 128 -172.68 128 -172 128 C-172 128.66 -172 129.32 -172 130 C-171.34 130 -170.68 130 -170 130 C-170 130.66 -170 131.32 -170 132 C-169.34 132 -168.68 132 -168 132 C-168 132.66 -168 133.32 -168 134 C-167.34 134 -166.68 134 -166 134 C-166 134.66 -166 135.32 -166 136 C-165.34 136 -164.68 136 -164 136 C-164 136.66 -164 137.32 -164 138 C-163.34 138 -162.68 138 -162 138 C-162 138.66 -162 139.32 -162 140 C-161.34 140 -160.68 140 -160 140 C-160 140.66 -160 141.32 -160 142 C-159.34 142 -158.68 142 -158 142 C-158 142.66 -158 143.32 -158 144 C-157.34 144 -156.68 144 -156 144 C-156 144.66 -156 145.32 -156 146 C-155.34 146 -154.68 146 -154 146 C-154 146.66 -154 147.32 -154 148 C-153.34 148 -152.68 148 -152 148 C-152 148.66 -152 149.32 -152 150 C-151.34 150 -150.68 150 -150 150 C-150 150.66 -150 151.32 -150 152 C-149.34 152 -148.68 152 -148 152 C-148 152.66 -148 153.32 -148 154 C-147.34 154 -146.68 154 -146 154 C-146 154.66 -146 155.32 -146 156 C-145.34 156 -144.68 156 -144 156 C-144 156.66 -144 157.32 -144 158 C-143.34 158 -142.68 158 -142 158 C-142 158.66 -142 159.32 -142 160 C-141.34 160 -140.68 160 -140 160 C-140 160.66 -140 161.32 -140 162 C-139.34 162 -138.68 162 -138 162 C-138 162.66 -138 163.32 -138 164 C-137.34 164 -136.68 164 -136 164 C-136 164.66 -136 165.32 -136 166 C-135.34 166 -134.68 166 -134 166 C-134 166.66 -134 167.32 -134 168 C-133.34 168 -132.68 168 -132 168 C-132 168.66 -132 169.32 -132 170 C-131.34 170 -130.68 170 -130 170 C-130 170.66 -130 171.32 -130 172 C-129.34 172 -128.68 172 -128 172 C-128 172.66 -128 173.32 -128 174 C-127.34 174 -126.68 174 -126 174 C-126 174.66 -126 175.32 -126 176 C-125.34 176 -124.68 176 -124 176 C-124 176.66 -124 177.32 -124 178 C-123.34 178 -122.68 178 -122 178 C-122 178.66 -122 179.32 -122 180 C-121.34 180 -120.68 180 -120 180 C-120 180.66 -120 181.32 -120 182 C-119.34 182 -118.68 182 -118 182 C-118 182.66 -118 183.32 -118 184 C-117.34 184 -116.68 184 -116 184 C-116 184.66 -116 185.32 -116 186 C-115.34 186 -114.68 186 -114 186 C-114 186.66 -114 187.32 -114 188 C-113.34 188 -112.68 188 -112 188 C-112 188.66 -112 189.32 -112 190 C-111.34 190 -110.68 190 -110 190 C-110 190.66 -110 191.32 -110 192 C-109.34 192 -108.68 192 -108 192 C-108 192.66 -108 193.32 -108 194 C-107.34 194 -106.68 194 -106 194 C-106 194.66 -106 195.32 -106 196 C-105.34 196 -104.68 196 -104 196 C-104 196.66 -104 197.32 -104 198 C-103.34 198 -102.68 198 -102 198 C-102 198.66 -102 199.32 -102 200 C-101.34 200 -100.68 200 -100 200 C-100 200.66 -100 201.32 -100 202 C-99.34 202 -98.68 202 -98 202 C-98 202.66 -98 203.32 -98 204 C-97.34 204 -96.68 204 -96 204 C-96 204.66 -96 205.32 -96 206 C-95.34 206 -94.68 206 -94 206 C-94 206.66 -94 207.32 -94 208 C-93.34 208 -92.68 208 -92 208 C-92 208.66 -92 209.32 -92 210 C-91.34 210 -90.68 210 -90 210 C-90 210.66 -90 211.32 -90 212 C-89.34 212 -88.68 212 -88 212 C-88 212.66 -88 213.32 -88 214 C-87.34 214 -86.68 214 -86 214 C-86 214.66 -86 215.32 -86 216 C-85.34 216 -84.68 216 -84 216 C-84 216.66 -84 217.32 -84 218 C-83.34 218 -82.68 218 -82 218 C-82 218.66 -82 219.32 -82 220 C-81.34 220 -80.68 220 -80 220 C-80 220.66 -80 221.32 -80 222 C-79.34 222 -78.68 222 -78 222 C-78 222.66 -78 223.32 -78 224 C-77.34 224 -76.68 224 -76 224 C-76 224.66 -76 225.32 -76 226 C-75.34 226 -74.68 226 -74 226 C-74 226.66 -74 227.32 -74 228 C-73.34 228 -72.68 228 -72 228 C-72 228.66 -72 229.32 -72 230 C-71.34 230 -70.68 230 -70 230 C-70 230.66 -70 231.32 -70 232 C-69.34 232 -68.68 232 -68 232 C-68 232.66 -68 233.32 -68 234 C-67.34 234 -66.68 234 -66 234 C-66 234.66 -66 235.32 -66 236 C-65.34 236 -64.68 236 -64 236 C-64 236.66 -64 237.32 -64 238 C-63.34 238 -62.68 238 -62 238 C-62 238.66 -62 239.32 -62 240 C-61.34 240 -60.68 240 -60 240 C-60 240.66 -60 241.32 -60 242 C-59.34 242 -58.68 242 -58 242 C-58 242.66 -58 243.32 -58 244 C-57.34 244 -56.68 244 -56 244 C-56 244.66 -56 245.32 -56 246 C-55.34 246 -54.68 246 -54 246 C-54 246.66 -54 247.32 -54 248 C-53.34 248 -52.68 248 -52 248 C-52 248.66 -52 249.32 -52 250 C-51.34 250 -50.68 250 -50 250 C-50 250.66 -50 251.32 -50 252 C-49.34 252 -48.68 252 -48 252 C-48 252.66 -48 253.32 -48 254 C-47.34 254 -46.68 254 -46 254 C-46 254.66 -46 255.32 -46 256 C-45.34 256 -44.68 256 -44 256 C-44 256.66 -44 257.32 -44 258 C-43.34 258 -42.68 258 -42 258 C-42 258.66 -42 259.32 -42 260 C-41.34 260 -40.68 260 -40 260 C-40 260.66 -40 261.32 -40 262 C-39.34 262 -38.68 262 -38 262 C-38 262.66 -38 263.32 -38 264 C-37.34 264 -36.68 264 -36 264 C-36 264.66 -36 265.32 -36 266 C-35.34 266 -34.68 266 -34 266 C-34 266.66 -34 267.32 -34 268 C-33.34 268 -32.68 268 -32 268 C-32 268.66 -32 269.32 -32 270 C-31.34 270 -30.68 270 -30 270 C-30 270.66 -30 271.32 -30 272 C-29.34 272 -28.68 272 -28 272 C-28 272.66 -28 273.32 -28 274 C-27.34 274 -26.68 274 -26 274 C-26 274.66 -26 275.32 -26 276 C-25.34 276 -24.68 276 -24 276 C-24 276.66 -24 277.32 -24 278 C-23.34 278 -22.68 278 -22 278 C-22 278.66 -22 279.32 -22 280 C-21.34 280 -20.68 280 -20 280 C-20 280.66 -20 281.32 -20 282 C-19.34 282 -18.68 282 -18 282 C-18 282.66 -18 283.32 -18 284 C-17.34 284 -16.68 284 -16 284 C-16 284.66 -16 285.32 -16 286 C-15.34 286 -14.68 286 -14 286 C-14 286.66 -14 287.32 -14 288 C-13.34 288 -12.68 288 -12 288 C-12 288.66 -12 289.32 -12 290 C-11.34 290 -10.68 290 -10 290 C-10 290.66 -10 291.32 -10 292 C-9.34 292 -8.68 292 -8 292 C-8 292.66 -8 293.32 -8 294 C-7.34 294 -6.68 294 -6 294 C-6 294.66 -6 295.32 -6 296 C-5.34 296 -4.68 296 -4 296 C-4 296.66 -4 297.32 -4 298 C-3.34 298 -2.68 298 -2 298 C-2 298.66 -2 299.32 -2 300 C-1.34 300 -0.68 300 0 300 C0 201 0 102 0 0 Z " fill="#000000" transform="translate(390,140)"/>
<path d="M0 0 C154.44 0 308.88 0 468 0 C468 147.18 468 294.36 468 446 C434.34 446 400.68 446 366 446 C366 333.14 366 220.28 366 104 C245.22 104 124.44 104 0 104 C0 69.68 0 35.36 0 0 Z " fill="#38B6FE" transform="translate(532,10)"/>
<path d="M0 0 C154.44 0 308.88 0 468 0 C468 0.33 468 0.66 468 1 C313.89 1 159.78 1 1 1 C1.33 1.66 1.66 2.32 2 3 C2.33 35.01 2.66 67.02 3 100 C123.12 100 243.24 100 367 100 C368.97612971 103.95225943 369.25153868 105.38686638 369.25891972 109.62357712 C369.26576851 110.77612826 369.2726173 111.9286794 369.27967364 113.11615634 C369.27705678 114.38306095 369.27443993 115.64996557 369.27174377 116.95526123 C369.27602987 118.31419899 369.28119281 119.67313421 369.28715843 121.03206563 C369.30104131 124.77012244 369.3025144 128.50809794 369.30201519 132.24617672 C369.30365059 136.27630862 369.31677372 140.30640462 369.32855225 144.33651733 C369.34743285 151.32202774 369.35913335 158.30752064 369.36609077 165.29305267 C369.37625554 175.40170748 369.39831609 185.51030935 369.42347669 195.61893669 C369.46409293 212.03045189 369.49654501 228.44197215 369.52319336 244.85351562 C369.52479066 245.83605801 369.52638796 246.8186004 369.52803367 247.83091679 C369.52963257 248.81467348 369.53123147 249.79843016 369.53287882 250.81199765 C369.55555165 264.74966942 369.58018535 278.6873359 369.60717773 292.625 C369.60907388 293.60513442 369.61097003 294.58526884 369.61292363 295.59510431 C369.64470645 311.93977654 369.68046004 328.28443873 369.71821922 344.62909818 C369.74125255 354.7112546 369.76020901 364.79340417 369.77388596 374.87557772 C369.78341856 381.78575016 369.7962603 388.6959111 369.81169481 395.60607287 C369.82045483 399.59281807 369.82755962 403.57954903 369.83033562 407.56630325 C369.83289329 411.21808091 369.83997918 414.86982112 369.85060786 418.52158394 C369.85507255 420.46400785 369.85466599 422.40644109 369.85406977 424.34887004 C369.87587249 430.3276257 370.08126607 436.08931137 371 442 C372.09723389 442.01030746 373.19446777 442.02061493 374.32495117 442.03123474 C384.68267815 442.12913667 395.04034731 442.231886 405.39797974 442.33933926 C410.72249359 442.39442273 416.04701307 442.44781878 421.37158203 442.49731445 C426.51336229 442.5451738 431.65507929 442.59752318 436.79678345 442.65294075 C438.75508034 442.67326695 440.71339451 442.69199549 442.67172241 442.70907402 C445.42183651 442.73333491 448.17183344 442.76335793 450.921875 442.79467773 C451.72532852 442.8004332 452.52878204 442.80618866 453.35658264 442.81211853 C458.31219658 442.87595897 463.09203935 443.30344746 468 444 C468 444.66 468 445.32 468 446 C434.34 446 400.68 446 366 446 C366 333.14 366 220.28 366 104 C245.22 104 124.44 104 0 104 C0 69.68 0 35.36 0 0 Z " fill="#5AA8D8" transform="translate(532,10)"/>
<path d="M0 0 C154.11 0 308.22 0 467 0 C467 0.66 467 1.32 467 2 C461.99653929 2.81999536 457.15412403 3.14116687 452.08075619 3.12025452 C451.30964358 3.12110876 450.53853097 3.12196301 449.74405131 3.12284315 C447.16299748 3.12448604 444.58200914 3.1189878 442.0009613 3.11352539 C440.13066152 3.11324533 438.26036163 3.11340845 436.39006191 3.11397648 C431.25253865 3.11427204 426.11503849 3.10833698 420.97752059 3.10140657 C415.43623778 3.09503374 409.89495412 3.09446353 404.35366821 3.0932312 C394.75228441 3.09034406 385.1509083 3.08390404 375.54952812 3.07516479 C361.66099377 3.06261611 347.77246227 3.05653531 333.88392318 3.05223143 C311.34229079 3.04516333 288.80066223 3.03437282 266.2590332 3.02050781 C265.24743473 3.01988734 265.24743473 3.01988734 264.21539993 3.01925434 C253.95609987 3.01295773 243.69679993 3.00649709 233.4375 3 C222.49519862 2.99307057 211.55289722 2.98620218 200.6105957 2.97949219 C199.93640744 2.9790776 199.26221917 2.97866301 198.56760096 2.97823586 C175.42899085 2.96403246 152.29038081 2.95375312 129.15176731 2.94658184 C115.29443622 2.94209614 101.43711577 2.93404678 87.57978965 2.92143703 C78.08969359 2.91302358 68.5996 2.90812338 59.10950046 2.90601182 C53.63035645 2.90466429 48.15122619 2.90163957 42.67208672 2.89425278 C37.65925114 2.88752002 32.6464355 2.88536431 27.63359583 2.88688838 C25.81742388 2.88661626 24.00125124 2.88463413 22.18508332 2.8807956 C19.72116474 2.87582853 17.25732299 2.87701077 14.79340267 2.87974548 C14.0843972 2.87683262 13.37539173 2.87391976 12.64490125 2.87091863 C8.66038739 2.8829203 4.90994383 3.23372371 1 4 C0.67 2.68 0.34 1.36 0 0 Z " fill="#49B3F2" transform="translate(533,11)"/>
<path d="M0 0 C0.33 0 0.66 0 1 0 C1.00173625 0.69523222 1.0034725 1.39046445 1.00526136 2.10676432 C1.10828103 43.30840071 1.21639166 84.51002101 1.33111694 125.71162656 C1.34488658 130.65833687 1.35861367 135.60504731 1.37231445 140.55175781 C1.37504276 141.5365622 1.37777106 142.5213666 1.38058204 143.53601354 C1.42466157 159.48352336 1.46529369 175.43104019 1.50465261 191.37856227 C1.54511274 207.7411912 1.58927564 224.10380711 1.63687855 240.46641684 C1.66613716 250.56366046 1.69250481 260.66090315 1.71517897 270.75816375 C1.73100238 277.68146039 1.75042122 284.60474113 1.77266841 291.52802008 C1.78539911 295.52283594 1.79654355 299.51763966 1.80341911 303.51247025 C1.80975229 307.17181351 1.82061366 310.83111474 1.8350333 314.49043483 C1.84153813 316.43702226 1.84323533 318.38362394 1.84474558 320.33022165 C1.87285278 326.31393527 2.08156545 332.08424918 3 338 C4.09723389 338.01030746 5.19446777 338.02061493 6.32495117 338.03123474 C16.68267815 338.12913667 27.04034731 338.231886 37.39797974 338.33933926 C42.72249359 338.39442273 48.04701307 338.44781878 53.37158203 338.49731445 C58.51336229 338.5451738 63.65507929 338.59752318 68.79678345 338.65294075 C70.75508034 338.67326695 72.71339451 338.69199549 74.67172241 338.70907402 C77.42183651 338.73333491 80.17183344 338.76335793 82.921875 338.79467773 C83.72532852 338.8004332 84.52878204 338.80618866 85.35658264 338.81211853 C90.31219658 338.87595897 95.09203935 339.30344746 100 340 C100 340.33 100 340.66 100 341 C67.33 341 34.66 341 1 341 C-0.04969796 337.85090611 -0.12427172 335.65790255 -0.12304783 332.35218525 C-0.12503888 331.1688244 -0.12702993 329.98546355 -0.12908131 328.76624328 C-0.12616847 327.45984128 -0.12325563 326.15343928 -0.12025452 324.80744934 C-0.12069036 323.41067745 -0.12156552 322.01390564 -0.12284368 320.61713427 C-0.12508601 316.77016998 -0.12107092 312.92323337 -0.11606562 309.07627261 C-0.11175757 304.93109233 -0.1132078 300.78591369 -0.1139679 296.64073181 C-0.1144929 289.4560134 -0.1113485 282.27130404 -0.10573006 275.08658791 C-0.09761195 264.698623 -0.09499952 254.3106625 -0.09374207 243.92269477 C-0.09155204 227.06996134 -0.08489328 210.21723275 -0.07543945 193.36450195 C-0.06626407 176.9911298 -0.05918385 160.61775897 -0.05493164 144.24438477 C-0.05466892 143.23556843 -0.05440619 142.2267521 -0.05413551 141.18736557 C-0.0528305 136.1265614 -0.05156678 131.06575721 -0.05032361 126.00495303 C-0.03995252 84.00329866 -0.02233553 42.0016496 0 0 Z " fill="#4BB6F3" transform="translate(900,114)"/>
</svg>
