<?xml version="1.0" encoding="UTF-8"?>
<svg version="1.1" xmlns="http://www.w3.org/2000/svg" width="1732" height="576">
<path d="M0 0 C14.52 0 29.04 0 44 0 C44 51.48 44 102.96 44 156 C98.12 156 152.24 156 208 156 C208 171.84 208 187.68 208 204 C165.76 204.33 123.52 204.66 80 205 C80.66 205.33 81.32 205.66 82 206 C82 206.66 82 207.32 82 208 C82.66 208 83.32 208 84 208 C84 208.66 84 209.32 84 210 C84.66 210 85.32 210 86 210 C86 210.66 86 211.32 86 212 C86.66 212 87.32 212 88 212 C88 212.66 88 213.32 88 214 C88.66 214 89.32 214 90 214 C90 214.66 90 215.32 90 216 C90.66 216 91.32 216 92 216 C92 216.66 92 217.32 92 218 C92.66 218 93.32 218 94 218 C94 218.66 94 219.32 94 220 C94.66 220 95.32 220 96 220 C96 220.66 96 221.32 96 222 C96.66 222 97.32 222 98 222 C98 222.66 98 223.32 98 224 C98.66 224 99.32 224 100 224 C100 224.66 100 225.32 100 226 C100.66 226 101.32 226 102 226 C102 226.66 102 227.32 102 228 C102.66 228 103.32 228 104 228 C104 228.66 104 229.32 104 230 C104.66 230 105.32 230 106 230 C106 230.66 106 231.32 106 232 C106.66 232 107.32 232 108 232 C108 232.66 108 233.32 108 234 C108.66 234 109.32 234 110 234 C110 234.66 110 235.32 110 236 C110.66 236 111.32 236 112 236 C112 236.66 112 237.32 112 238 C112.66 238 113.32 238 114 238 C114 238.66 114 239.32 114 240 C114.66 240 115.32 240 116 240 C116 240.66 116 241.32 116 242 C116.66 242 117.32 242 118 242 C118 242.66 118 243.32 118 244 C118.66 244 119.32 244 120 244 C120 244.66 120 245.32 120 246 C120.66 246 121.32 246 122 246 C122 246.66 122 247.32 122 248 C122.66 248 123.32 248 124 248 C124 248.66 124 249.32 124 250 C124.66 250 125.32 250 126 250 C126 250.66 126 251.32 126 252 C126.66 252 127.32 252 128 252 C128 252.66 128 253.32 128 254 C128.66 254 129.32 254 130 254 C130 254.66 130 255.32 130 256 C130.66 256 131.32 256 132 256 C132 256.66 132 257.32 132 258 C132.66 258 133.32 258 134 258 C134 258.66 134 259.32 134 260 C134.66 260 135.32 260 136 260 C136 260.66 136 261.32 136 262 C136.66 262 137.32 262 138 262 C138 262.66 138 263.32 138 264 C138.66 264 139.32 264 140 264 C140 264.66 140 265.32 140 266 C140.66 266 141.32 266 142 266 C142 266.66 142 267.32 142 268 C142.66 268 143.32 268 144 268 C144 268.66 144 269.32 144 270 C144.66 270 145.32 270 146 270 C146 270.66 146 271.32 146 272 C146.66 272 147.32 272 148 272 C148 272.66 148 273.32 148 274 C148.66 274 149.32 274 150 274 C150 274.66 150 275.32 150 276 C150.66 276 151.32 276 152 276 C152 276.66 152 277.32 152 278 C152.66 278 153.32 278 154 278 C154 278.66 154 279.32 154 280 C154.66 280 155.32 280 156 280 C156 280.66 156 281.32 156 282 C156.66 282 157.32 282 158 282 C158 282.66 158 283.32 158 284 C158.66 284 159.32 284 160 284 C160 284.66 160 285.32 160 286 C160.66 286 161.32 286 162 286 C162 286.66 162 287.32 162 288 C162.66 288 163.32 288 164 288 C164 289.98 164 291.96 164 294 C163.34 294 162.68 294 162 294 C162 294.66 162 295.32 162 296 C161.34 296 160.68 296 160 296 C160 296.66 160 297.32 160 298 C159.34 298 158.68 298 158 298 C158 298.66 158 299.32 158 300 C157.34 300 156.68 300 156 300 C156 300.66 156 301.32 156 302 C155.34 302 154.68 302 154 302 C154 302.66 154 303.32 154 304 C153.34 304 152.68 304 152 304 C152 304.66 152 305.32 152 306 C151.34 306 150.68 306 150 306 C150 306.66 150 307.32 150 308 C149.34 308 148.68 308 148 308 C148 308.66 148 309.32 148 310 C147.34 310 146.68 310 146 310 C146 310.66 146 311.32 146 312 C145.34 312 144.68 312 144 312 C144 312.66 144 313.32 144 314 C143.34 314 142.68 314 142 314 C142 314.66 142 315.32 142 316 C141.34 316 140.68 316 140 316 C140 316.66 140 317.32 140 318 C139.34 318 138.68 318 138 318 C138 318.66 138 319.32 138 320 C137.34 320 136.68 320 136 320 C136 320.66 136 321.32 136 322 C133.83125748 321.49396008 132.00032373 321.00016187 130 320 C130 319.34 130 318.68 130 318 C129.34 318 128.68 318 128 318 C128 317.34 128 316.68 128 316 C127.34 316 126.68 316 126 316 C126 315.34 126 314.68 126 314 C125.34 314 124.68 314 124 314 C124 313.34 124 312.68 124 312 C123.34 312 122.68 312 122 312 C122 311.34 122 310.68 122 310 C121.34 310 120.68 310 120 310 C120 309.34 120 308.68 120 308 C119.34 308 118.68 308 118 308 C118 307.34 118 306.68 118 306 C117.34 306 116.68 306 116 306 C116 305.34 116 304.68 116 304 C115.34 304 114.68 304 114 304 C114 303.34 114 302.68 114 302 C113.34 302 112.68 302 112 302 C112 301.34 112 300.68 112 300 C111.34 300 110.68 300 110 300 C110 299.34 110 298.68 110 298 C109.34 298 108.68 298 108 298 C108 297.34 108 296.68 108 296 C107.34 296 106.68 296 106 296 C106 295.34 106 294.68 106 294 C105.34 294 104.68 294 104 294 C104 293.34 104 292.68 104 292 C103.34 292 102.68 292 102 292 C102 291.34 102 290.68 102 290 C101.34 290 100.68 290 100 290 C100 289.34 100 288.68 100 288 C99.34 288 98.68 288 98 288 C98 287.34 98 286.68 98 286 C97.34 286 96.68 286 96 286 C96 285.34 96 284.68 96 284 C95.34 284 94.68 284 94 284 C94 283.34 94 282.68 94 282 C93.34 282 92.68 282 92 282 C92 281.34 92 280.68 92 280 C91.34 280 90.68 280 90 280 C90 279.34 90 278.68 90 278 C89.34 278 88.68 278 88 278 C88 277.34 88 276.68 88 276 C87.34 276 86.68 276 86 276 C86 275.34 86 274.68 86 274 C85.34 274 84.68 274 84 274 C84 273.34 84 272.68 84 272 C83.34 272 82.68 272 82 272 C82 271.34 82 270.68 82 270 C81.34 270 80.68 270 80 270 C80 269.34 80 268.68 80 268 C79.34 268 78.68 268 78 268 C78 267.34 78 266.68 78 266 C77.34 266 76.68 266 76 266 C76 265.34 76 264.68 76 264 C75.34 264 74.68 264 74 264 C74 263.34 74 262.68 74 262 C73.34 262 72.68 262 72 262 C72 261.34 72 260.68 72 260 C71.34 260 70.68 260 70 260 C70 259.34 70 258.68 70 258 C69.34 258 68.68 258 68 258 C68 257.34 68 256.68 68 256 C67.34 256 66.68 256 66 256 C66 255.34 66 254.68 66 254 C65.34 254 64.68 254 64 254 C64 253.34 64 252.68 64 252 C63.34 252 62.68 252 62 252 C62 251.34 62 250.68 62 250 C61.34 250 60.68 250 60 250 C60 249.34 60 248.68 60 248 C59.34 248 58.68 248 58 248 C58 247.34 58 246.68 58 246 C57.34 246 56.68 246 56 246 C56 245.34 56 244.68 56 244 C55.34 244 54.68 244 54 244 C54 243.34 54 242.68 54 242 C53.34 242 52.68 242 52 242 C52 241.34 52 240.68 52 240 C51.34 240 50.68 240 50 240 C50 239.34 50 238.68 50 238 C49.34 238 48.68 238 48 238 C47.67 237.34 47.34 236.68 47 236 C46.505 297.38 46.505 297.38 46 360 C30.82 360 15.64 360 0 360 C-0.33 319.74 -0.66 279.48 -1 238 C-15.169375 252.14875 -29.33875 266.2975 -43.9375 280.875 C-48.41820068 285.34659668 -52.89890137 289.81819336 -57.51538086 294.42529297 C-61.51804065 298.424609 -61.51804065 298.424609 -65.52003479 302.42459106 C-67.30740561 304.21042301 -69.09576861 305.99526224 -70.88490295 307.77932739 C-73.58957079 310.47671244 -76.29110576 313.17719853 -78.99194336 315.87841797 C-80.19506495 317.0761424 -80.19506495 317.0761424 -81.42249203 318.29806328 C-82.14597112 319.02291986 -82.86945021 319.74777645 -83.61485291 320.49459839 C-84.24812469 321.12694838 -84.88139647 321.75929836 -85.5338583 322.41081047 C-87.09154475 323.95159274 -87.09154475 323.95159274 -88 326 C-91.0638808 326.43769726 -93.16604909 326.60855877 -95.734375 324.734375 C-97.28471706 323.21356327 -98.71840855 321.75423511 -100 320 C-100 319.34 -100 318.68 -100 318 C-100.58265625 317.731875 -101.1653125 317.46375 -101.765625 317.1875 C-104.02786601 315.98519009 -105.80576318 314.66174087 -107.75 313 C-108.36359375 312.484375 -108.9771875 311.96875 -109.609375 311.4375 C-111 310 -111 310 -111 308 C-111.66 308 -112.32 308 -113 308 C-115.125 306.125 -115.125 306.125 -117 304 C-117 303.34 -117 302.68 -117 302 C-117.66 302 -118.32 302 -119 302 C-119 301.34 -119 300.68 -119 300 C-119.66 300 -120.32 300 -121 300 C-121 299.34 -121 298.68 -121 298 C-121.99 297.67 -122.98 297.34 -124 297 C-124 295.35 -124 293.7 -124 292 C-122.68 291.34 -121.36 290.68 -120 290 C-120 289.34 -120 288.68 -120 288 C-119.34 288 -118.68 288 -118 288 C-118 287.34 -118 286.68 -118 286 C-117.34 286 -116.68 286 -116 286 C-116 285.34 -116 284.68 -116 284 C-115.34 284 -114.68 284 -114 284 C-114 283.34 -114 282.68 -114 282 C-113.34 282 -112.68 282 -112 282 C-112 281.34 -112 280.68 -112 280 C-111.34 280 -110.68 280 -110 280 C-110 279.34 -110 278.68 -110 278 C-109.34 278 -108.68 278 -108 278 C-108 277.34 -108 276.68 -108 276 C-107.34 276 -106.68 276 -106 276 C-106 275.34 -106 274.68 -106 274 C-105.34 274 -104.68 274 -104 274 C-104 273.34 -104 272.68 -104 272 C-103.34 272 -102.68 272 -102 272 C-102 271.34 -102 270.68 -102 270 C-101.34 270 -100.68 270 -100 270 C-100 269.34 -100 268.68 -100 268 C-99.34 268 -98.68 268 -98 268 C-98 267.34 -98 266.68 -98 266 C-97.34 266 -96.68 266 -96 266 C-96 265.34 -96 264.68 -96 264 C-95.34 264 -94.68 264 -94 264 C-94 263.34 -94 262.68 -94 262 C-93.34 262 -92.68 262 -92 262 C-92 261.34 -92 260.68 -92 260 C-91.34 260 -90.68 260 -90 260 C-90 259.34 -90 258.68 -90 258 C-89.34 258 -88.68 258 -88 258 C-88 257.34 -88 256.68 -88 256 C-87.34 256 -86.68 256 -86 256 C-86 255.34 -86 254.68 -86 254 C-85.34 254 -84.68 254 -84 254 C-84 253.34 -84 252.68 -84 252 C-83.34 252 -82.68 252 -82 252 C-82 251.34 -82 250.68 -82 250 C-81.34 250 -80.68 250 -80 250 C-80 249.34 -80 248.68 -80 248 C-79.34 248 -78.68 248 -78 248 C-78 247.34 -78 246.68 -78 246 C-77.34 246 -76.68 246 -76 246 C-76 245.34 -76 244.68 -76 244 C-75.34 244 -74.68 244 -74 244 C-74 243.34 -74 242.68 -74 242 C-73.34 242 -72.68 242 -72 242 C-72 241.34 -72 240.68 -72 240 C-71.34 240 -70.68 240 -70 240 C-70 239.34 -70 238.68 -70 238 C-69.34 238 -68.68 238 -68 238 C-68 237.34 -68 236.68 -68 236 C-67.34 236 -66.68 236 -66 236 C-66 235.34 -66 234.68 -66 234 C-65.34 234 -64.68 234 -64 234 C-64 233.34 -64 232.68 -64 232 C-63.34 232 -62.68 232 -62 232 C-62 231.34 -62 230.68 -62 230 C-61.34 230 -60.68 230 -60 230 C-60 229.34 -60 228.68 -60 228 C-59.34 228 -58.68 228 -58 228 C-58 227.34 -58 226.68 -58 226 C-57.34 226 -56.68 226 -56 226 C-56 225.34 -56 224.68 -56 224 C-55.34 224 -54.68 224 -54 224 C-54 223.34 -54 222.68 -54 222 C-53.34 222 -52.68 222 -52 222 C-52 221.34 -52 220.68 -52 220 C-51.34 220 -50.68 220 -50 220 C-50 219.34 -50 218.68 -50 218 C-49.34 218 -48.68 218 -48 218 C-48 217.34 -48 216.68 -48 216 C-47.34 216 -46.68 216 -46 216 C-46 215.34 -46 214.68 -46 214 C-45.34 214 -44.68 214 -44 214 C-44 213.34 -44 212.68 -44 212 C-43.34 212 -42.68 212 -42 212 C-42 211.34 -42 210.68 -42 210 C-41.34 210 -40.68 210 -40 210 C-40 209.34 -40 208.68 -40 208 C-39.34 208 -38.68 208 -38 208 C-38 207.34 -38 206.68 -38 206 C-37.34 205.67 -36.68 205.34 -36 205 C-36.65360221 204.99576806 -37.30720442 204.99153612 -37.98061275 204.98717594 C-53.86192419 204.88400775 -69.7431875 204.77539106 -85.62441921 204.66066074 C-93.30436599 204.60531103 -100.98431741 204.55182623 -108.66430664 204.50268555 C-115.35580903 204.45986505 -122.04727697 204.41359255 -128.7387262 204.36312145 C-132.28393576 204.33650323 -135.82913841 204.31164982 -139.37438774 204.29092598 C-143.32572868 204.26776379 -147.27698834 204.23689681 -151.22827148 204.20532227 C-152.41222 204.1995668 -153.59616852 204.19381134 -154.81599426 204.18788147 C-155.88596649 204.17809265 -156.95593872 204.16830383 -158.05833435 204.15821838 C-158.99395423 204.15176583 -159.92957411 204.14531328 -160.8935461 204.1386652 C-163 204 -163 204 -164 203 C-163.67 187.49 -163.34 171.98 -163 156 C-120.43 155.67 -77.86 155.34 -34 155 C-34.66 154.67 -35.32 154.34 -36 154 C-36 153.34 -36 152.68 -36 152 C-36.66 152 -37.32 152 -38 152 C-38 151.34 -38 150.68 -38 150 C-38.66 150 -39.32 150 -40 150 C-40 149.34 -40 148.68 -40 148 C-40.66 148 -41.32 148 -42 148 C-42 147.34 -42 146.68 -42 146 C-42.66 146 -43.32 146 -44 146 C-44 145.34 -44 144.68 -44 144 C-44.66 144 -45.32 144 -46 144 C-46 143.34 -46 142.68 -46 142 C-46.66 142 -47.32 142 -48 142 C-48 141.34 -48 140.68 -48 140 C-48.66 140 -49.32 140 -50 140 C-50 139.34 -50 138.68 -50 138 C-50.66 138 -51.32 138 -52 138 C-52 137.34 -52 136.68 -52 136 C-52.66 136 -53.32 136 -54 136 C-54 135.34 -54 134.68 -54 134 C-54.66 134 -55.32 134 -56 134 C-56 133.34 -56 132.68 -56 132 C-56.66 132 -57.32 132 -58 132 C-58 131.34 -58 130.68 -58 130 C-58.66 130 -59.32 130 -60 130 C-60 129.34 -60 128.68 -60 128 C-60.66 128 -61.32 128 -62 128 C-62 127.34 -62 126.68 -62 126 C-62.66 126 -63.32 126 -64 126 C-64 125.34 -64 124.68 -64 124 C-64.66 124 -65.32 124 -66 124 C-66 123.34 -66 122.68 -66 122 C-66.66 122 -67.32 122 -68 122 C-68 121.34 -68 120.68 -68 120 C-68.66 120 -69.32 120 -70 120 C-70 119.34 -70 118.68 -70 118 C-70.66 118 -71.32 118 -72 118 C-72 117.34 -72 116.68 -72 116 C-72.66 116 -73.32 116 -74 116 C-74 115.34 -74 114.68 -74 114 C-74.66 114 -75.32 114 -76 114 C-76 113.34 -76 112.68 -76 112 C-76.66 112 -77.32 112 -78 112 C-78 111.34 -78 110.68 -78 110 C-78.66 110 -79.32 110 -80 110 C-81.35386936 108.34997172 -82.68678142 106.6825613 -84 105 C-84.66 104.67 -85.32 104.34 -86 104 C-86 103.34 -86 102.68 -86 102 C-86.66 102 -87.32 102 -88 102 C-88 101.34 -88 100.68 -88 100 C-88.66 100 -89.32 100 -90 100 C-92.125 98.125 -92.125 98.125 -94 96 C-94 95.34 -94 94.68 -94 94 C-94.66 94 -95.32 94 -96 94 C-96 93.34 -96 92.68 -96 92 C-96.66 92 -97.32 92 -98 92 C-99.62109375 90.3203125 -99.62109375 90.3203125 -101.4375 88.125 C-103.58400884 85.53806278 -105.16776562 83.88815626 -108 82 C-108 81.34 -108 80.68 -108 80 C-108.66 80 -109.32 80 -110 80 C-111.3671875 78.609375 -111.3671875 78.609375 -112.875 76.75 C-115.1327034 74.02194172 -117.444064 71.45763077 -120 69 C-119.07299832 65.17611806 -117.39436322 63.30411994 -114.46484375 60.8671875 C-109.77205495 56.85571196 -105.41477839 52.56254532 -101.0625 48.1875 C-100.29615234 47.42501953 -99.52980469 46.66253906 -98.74023438 45.87695312 C-98.01255859 45.14798828 -97.28488281 44.41902344 -96.53515625 43.66796875 C-95.55107788 42.68219849 -95.55107788 42.68219849 -94.54711914 41.67651367 C-92.91729521 40.06619412 -92.91729521 40.06619412 -92 38 C-88.9361192 37.56230274 -86.83395091 37.39144123 -84.265625 39.265625 C-82.71528294 40.78643673 -81.28159145 42.24576489 -80 44 C-80 44.66 -80 45.32 -80 46 C-79.34 46 -78.68 46 -78 46 C-78 46.66 -78 47.32 -78 48 C-76.68 48.66 -75.36 49.32 -74 50 C-74 50.66 -74 51.32 -74 52 C-73.34 52 -72.68 52 -72 52 C-72 52.66 -72 53.32 -72 54 C-71.34 54 -70.68 54 -70 54 C-70 54.66 -70 55.32 -70 56 C-69.34 56 -68.68 56 -68 56 C-68 56.66 -68 57.32 -68 58 C-66.68 58.66 -65.36 59.32 -64 60 C-64 60.66 -64 61.32 -64 62 C-63.34 62 -62.68 62 -62 62 C-62 62.66 -62 63.32 -62 64 C-61.34 64 -60.68 64 -60 64 C-60 64.66 -60 65.32 -60 66 C-59.34 66 -58.68 66 -58 66 C-58 66.66 -58 67.32 -58 68 C-57.34 68 -56.68 68 -56 68 C-56 68.66 -56 69.32 -56 70 C-55.34 70 -54.68 70 -54 70 C-54 70.66 -54 71.32 -54 72 C-53.34 72 -52.68 72 -52 72 C-52 72.66 -52 73.32 -52 74 C-51.34 74 -50.68 74 -50 74 C-50 74.66 -50 75.32 -50 76 C-49.34 76 -48.68 76 -48 76 C-48 76.66 -48 77.32 -48 78 C-47.34 78 -46.68 78 -46 78 C-46 78.66 -46 79.32 -46 80 C-45.34 80 -44.68 80 -44 80 C-44 80.66 -44 81.32 -44 82 C-43.34 82 -42.68 82 -42 82 C-42 82.66 -42 83.32 -42 84 C-41.34 84 -40.68 84 -40 84 C-40 84.66 -40 85.32 -40 86 C-39.34 86 -38.68 86 -38 86 C-38 86.66 -38 87.32 -38 88 C-37.34 88 -36.68 88 -36 88 C-36 88.66 -36 89.32 -36 90 C-35.34 90 -34.68 90 -34 90 C-34 90.66 -34 91.32 -34 92 C-33.34 92 -32.68 92 -32 92 C-32 92.66 -32 93.32 -32 94 C-31.34 94 -30.68 94 -30 94 C-30 94.66 -30 95.32 -30 96 C-29.34 96 -28.68 96 -28 96 C-28 96.66 -28 97.32 -28 98 C-27.34 98 -26.68 98 -26 98 C-26 98.66 -26 99.32 -26 100 C-25.34 100 -24.68 100 -24 100 C-24 100.66 -24 101.32 -24 102 C-23.34 102 -22.68 102 -22 102 C-22 102.66 -22 103.32 -22 104 C-21.34 104 -20.68 104 -20 104 C-20 104.66 -20 105.32 -20 106 C-19.34 106 -18.68 106 -18 106 C-18 106.66 -18 107.32 -18 108 C-17.34 108 -16.68 108 -16 108 C-16 108.66 -16 109.32 -16 110 C-15.34 110 -14.68 110 -14 110 C-14 110.66 -14 111.32 -14 112 C-13.34 112 -12.68 112 -12 112 C-12 112.66 -12 113.32 -12 114 C-11.34 114 -10.68 114 -10 114 C-10 114.66 -10 115.32 -10 116 C-9.34 116 -8.68 116 -8 116 C-8 116.66 -8 117.32 -8 118 C-7.34 118 -6.68 118 -6 118 C-6 118.66 -6 119.32 -6 120 C-5.34 120 -4.68 120 -4 120 C-4 120.66 -4 121.32 -4 122 C-3.34 122 -2.68 122 -2 122 C-2 122.66 -2 123.32 -2 124 C-1.34 124 -0.68 124 0 124 C0 83.08 0 42.16 0 0 Z " fill="#F4F4F4" transform="translate(219,105)"/>
<path d="M0 0 C0.66224579 -0.00335861 1.32449158 -0.00671722 2.00680542 -0.01017761 C4.21874841 -0.01974525 6.43061565 -0.02163609 8.64257812 -0.02270508 C10.19551626 -0.02592256 11.74845409 -0.029287 13.3013916 -0.03279114 C16.58016659 -0.03880292 19.8589152 -0.04062983 23.13769531 -0.04003906 C26.45220531 -0.03995891 29.76657385 -0.04671238 33.08105469 -0.06054688 C64.524183 -0.18959617 64.524183 -0.18959617 80.01757812 0.96948242 C80.99867554 1.03883499 81.97977295 1.10818756 82.99060059 1.17964172 C88.72960926 1.68385136 93.35883436 2.92736659 98.67382812 5.14526367 C100.3305545 5.52493013 101.99453058 5.88287343 103.67382812 6.14526367 C103.67382812 6.80526367 103.67382812 7.46526367 103.67382812 8.14526367 C104.99382812 8.14526367 106.31382813 8.14526367 107.67382812 8.14526367 C107.67382812 8.80526367 107.67382812 9.46526367 107.67382812 10.14526367 C108.99382812 10.14526367 110.31382813 10.14526367 111.67382812 10.14526367 C111.67382812 10.80526367 111.67382812 11.46526367 111.67382812 12.14526367 C112.66382813 12.14526367 113.65382813 12.14526367 114.67382812 12.14526367 C114.67382812 12.80526367 114.67382812 13.46526367 114.67382812 14.14526367 C115.66382813 14.14526367 116.65382813 14.14526367 117.67382812 14.14526367 C117.67382812 14.80526367 117.67382812 15.46526367 117.67382812 16.14526367 C119.32382813 16.80526367 120.97382812 17.46526367 122.67382812 18.14526367 C122.67382812 18.80526367 122.67382812 19.46526367 122.67382812 20.14526367 C123.33382813 20.14526367 123.99382812 20.14526367 124.67382812 20.14526367 C124.67382812 20.80526367 124.67382812 21.46526367 124.67382812 22.14526367 C125.33382813 22.14526367 125.99382812 22.14526367 126.67382812 22.14526367 C126.67382812 22.80526367 126.67382812 23.46526367 126.67382812 24.14526367 C127.33382813 24.14526367 127.99382812 24.14526367 128.67382812 24.14526367 C128.67382812 25.46526367 128.67382812 26.78526367 128.67382812 28.14526367 C129.33382813 28.14526367 129.99382812 28.14526367 130.67382812 28.14526367 C130.67382812 28.80526367 130.67382812 29.46526367 130.67382812 30.14526367 C131.33382813 30.14526367 131.99382812 30.14526367 132.67382812 30.14526367 C132.67382812 31.46526367 132.67382812 32.78526367 132.67382812 34.14526367 C133.33382813 34.14526367 133.99382812 34.14526367 134.67382812 34.14526367 C134.67382812 35.46526367 134.67382812 36.78526367 134.67382812 38.14526367 C135.33382813 38.14526367 135.99382812 38.14526367 136.67382812 38.14526367 C136.67382812 39.46526367 136.67382812 40.78526367 136.67382812 42.14526367 C137.33382813 42.14526367 137.99382812 42.14526367 138.67382812 42.14526367 C138.67382812 44.12526367 138.67382812 46.10526367 138.67382812 48.14526367 C139.33382813 48.14526367 139.99382812 48.14526367 140.67382812 48.14526367 C140.67382812 51.44526367 140.67382812 54.74526367 140.67382812 58.14526367 C141.33382813 58.14526367 141.99382812 58.14526367 142.67382812 58.14526367 C142.67382812 64.08526367 142.67382812 70.02526367 142.67382812 76.14526367 C142.01382812 76.14526367 141.35382813 76.14526367 140.67382812 76.14526367 C140.70863281 76.85811523 140.7434375 77.5709668 140.77929688 78.30541992 C140.95509552 84.52534354 140.49543341 88.61491732 137.67382812 94.14526367 C137.30074181 95.46802423 136.94336397 96.79758444 136.67382812 98.14526367 C136.01382812 98.14526367 135.35382813 98.14526367 134.67382812 98.14526367 C134.67382812 99.46526367 134.67382812 100.78526367 134.67382812 102.14526367 C134.01382812 102.14526367 133.35382813 102.14526367 132.67382812 102.14526367 C132.67382812 103.46526367 132.67382812 104.78526367 132.67382812 106.14526367 C132.01382812 106.14526367 131.35382813 106.14526367 130.67382812 106.14526367 C130.67382812 106.80526367 130.67382812 107.46526367 130.67382812 108.14526367 C130.01382812 108.14526367 129.35382813 108.14526367 128.67382812 108.14526367 C128.67382812 108.80526367 128.67382812 109.46526367 128.67382812 110.14526367 C128.01382812 110.14526367 127.35382813 110.14526367 126.67382812 110.14526367 C126.27164062 111.35182617 126.27164062 111.35182617 125.86132812 112.58276367 C125.46945312 113.42838867 125.07757812 114.27401367 124.67382812 115.14526367 C123.68382812 115.47526367 122.69382812 115.80526367 121.67382812 116.14526367 C121.67382812 116.80526367 121.67382812 117.46526367 121.67382812 118.14526367 C120.68382812 118.14526367 119.69382812 118.14526367 118.67382812 118.14526367 C118.67382812 118.80526367 118.67382812 119.46526367 118.67382812 120.14526367 C118.01382812 120.14526367 117.35382813 120.14526367 116.67382812 120.14526367 C116.67382812 120.80526367 116.67382812 121.46526367 116.67382812 122.14526367 C115.68382812 122.14526367 114.69382812 122.14526367 113.67382812 122.14526367 C113.67382812 122.80526367 113.67382812 123.46526367 113.67382812 124.14526367 C112.68382812 124.14526367 111.69382812 124.14526367 110.67382812 124.14526367 C110.67382812 124.80526367 110.67382812 125.46526367 110.67382812 126.14526367 C109.35382813 126.14526367 108.03382812 126.14526367 106.67382812 126.14526367 C106.67382812 126.80526367 106.67382812 127.46526367 106.67382812 128.14526367 C103.16606028 129.74881469 100.53027934 130.36563231 96.67382812 130.14526367 C96.67382812 130.80526367 96.67382812 131.46526367 96.67382812 132.14526367 C94.03382812 132.14526367 91.39382813 132.14526367 88.67382812 132.14526367 C88.67382812 132.80526367 88.67382812 133.46526367 88.67382812 134.14526367 C69.53382812 134.14526367 50.39382813 134.14526367 30.67382812 134.14526367 C30.67382812 153.94526367 30.67382812 173.74526367 30.67382812 194.14526367 C18.13382813 194.14526367 5.59382813 194.14526367 -7.32617188 194.14526367 C-7.34871635 168.99845898 -7.36714956 143.85166242 -7.37798405 118.7048502 C-7.38314765 107.02962953 -7.39019156 95.35441558 -7.40161133 83.67919922 C-7.41155621 73.50703694 -7.41802483 63.33487952 -7.42026037 53.16271251 C-7.42156781 47.77307118 -7.42465576 42.38344374 -7.43190193 36.99380684 C-7.43865907 31.92714933 -7.44078947 26.86051153 -7.43927956 21.79384995 C-7.43955602 19.9285401 -7.44156296 18.06322963 -7.44537735 16.19792366 C-7.45030981 13.66277259 -7.44917183 11.12769716 -7.44642639 8.59254456 C-7.44933923 7.84450438 -7.45225207 7.0964642 -7.45525318 6.32575613 C-7.43548937 -0.36743642 -6.50817915 0.02064833 0 0 Z M30.67382812 36.14526367 C30.67382812 57.26526367 30.67382812 78.38526367 30.67382812 100.14526367 C37.72757813 100.16588867 44.78132813 100.18651367 52.04882812 100.20776367 C54.27552246 100.21686768 56.5022168 100.22597168 58.79638672 100.23535156 C60.55501241 100.23827129 62.31363877 100.24081972 64.07226562 100.24291992 C64.99048096 100.24803589 65.90869629 100.25315186 66.85473633 100.25842285 C67.72751221 100.2585437 68.60028809 100.25866455 69.49951172 100.25878906 C70.63868546 100.26211998 70.63868546 100.26211998 71.8008728 100.26551819 C73.76596173 100.26127406 73.76596173 100.26127406 75.67382812 99.14526367 C77.21051678 98.92058537 78.75350866 98.73729562 80.29882812 98.58276367 C81.11609375 98.49897461 81.93335938 98.41518555 82.77539062 98.32885742 C83.401875 98.26827148 84.02835938 98.20768555 84.67382812 98.14526367 C84.67382812 97.48526367 84.67382812 96.82526367 84.67382812 96.14526367 C85.99382812 96.14526367 87.31382813 96.14526367 88.67382812 96.14526367 C88.67382812 95.48526367 88.67382812 94.82526367 88.67382812 94.14526367 C89.25132813 93.89776367 89.82882812 93.65026367 90.42382812 93.39526367 C93.00322792 91.96226379 94.73504404 90.36101691 96.67382812 88.14526367 C96.67382812 87.48526367 96.67382812 86.82526367 96.67382812 86.14526367 C97.33382813 86.14526367 97.99382812 86.14526367 98.67382812 86.14526367 C98.67382812 84.82526367 98.67382812 83.50526367 98.67382812 82.14526367 C99.33382813 82.14526367 99.99382812 82.14526367 100.67382812 82.14526367 C103.22131059 77.30103521 102.90199241 72.65365991 102.79882812 67.33276367 C102.78980469 66.44911133 102.78078125 65.56545898 102.77148438 64.6550293 C102.74802449 62.48499008 102.71215678 60.3150912 102.67382812 58.14526367 C102.01382812 58.14526367 101.35382813 58.14526367 100.67382812 58.14526367 C100.45726562 57.00057617 100.45726562 57.00057617 100.23632812 55.83276367 C99.71056872 53.06353459 99.71056872 53.06353459 98.67382812 50.14526367 C98.01382812 50.14526367 97.35382813 50.14526367 96.67382812 50.14526367 C96.45726562 49.21713867 96.45726562 49.21713867 96.23632812 48.27026367 C95.74230587 46.11268045 95.74230587 46.11268045 94.67382812 44.14526367 C93.68382812 44.14526367 92.69382812 44.14526367 91.67382812 44.14526367 C91.67382812 43.48526367 91.67382812 42.82526367 91.67382812 42.14526367 C91.01382812 42.14526367 90.35382813 42.14526367 89.67382812 42.14526367 C89.67382812 41.48526367 89.67382812 40.82526367 89.67382812 40.14526367 C88.35382813 40.14526367 87.03382812 40.14526367 85.67382812 40.14526367 C85.67382812 39.48526367 85.67382812 38.82526367 85.67382812 38.14526367 C84.02382812 38.14526367 82.37382813 38.14526367 80.67382812 38.14526367 C80.67382812 37.48526367 80.67382812 36.82526367 80.67382812 36.14526367 C64.17382812 36.14526367 47.67382812 36.14526367 30.67382812 36.14526367 Z " fill="#F2F2F2" transform="translate(1120.326171875,236.854736328125)"/>
<path d="M0 0 C1.46247987 0.01189304 2.92491894 0.02953113 4.38728333 0.05142212 C5.18424118 0.05942337 5.98119904 0.06742462 6.80230713 0.07566833 C9.45677395 0.10370579 12.11108445 0.13915875 14.76545715 0.17495728 C16.61378611 0.19673302 18.46211894 0.21818228 20.31045532 0.23931885 C24.20037012 0.28493928 28.09021881 0.33414425 31.98005676 0.38589478 C36.93005764 0.45152647 41.88011046 0.50907601 46.8302412 0.56392479 C50.65765408 0.60715133 54.48500804 0.65448582 58.31235695 0.703022 C60.13451537 0.72571021 61.95668862 0.74724082 63.77887535 0.76752853 C74.15434511 0.8858096 84.44250119 1.18822529 94.7849884 2.08901978 C94.7849884 2.74901978 94.7849884 3.40901978 94.7849884 4.08901978 C96.3318634 4.02714478 96.3318634 4.02714478 97.9099884 3.96401978 C101.65328468 4.08477127 104.32233388 4.73773996 107.7849884 6.08901978 C107.7849884 6.74901978 107.7849884 7.40901978 107.7849884 8.08901978 C109.1049884 8.08901978 110.4249884 8.08901978 111.7849884 8.08901978 C111.7849884 8.74901978 111.7849884 9.40901978 111.7849884 10.08901978 C113.1049884 10.08901978 114.4249884 10.08901978 115.7849884 10.08901978 C115.7849884 10.74901978 115.7849884 11.40901978 115.7849884 12.08901978 C116.5481134 12.37776978 117.3112384 12.66651978 118.0974884 12.96401978 C120.7849884 14.08901978 120.7849884 14.08901978 123.7849884 16.08901978 C123.7849884 16.74901978 123.7849884 17.40901978 123.7849884 18.08901978 C124.5274884 18.31589478 125.2699884 18.54276978 126.0349884 18.77651978 C129.34700713 20.35725598 130.77978678 22.04408398 132.7849884 25.08901978 C132.7849884 26.07901978 132.7849884 27.06901978 132.7849884 28.08901978 C133.4449884 28.08901978 134.1049884 28.08901978 134.7849884 28.08901978 C134.7849884 28.74901978 134.7849884 29.40901978 134.7849884 30.08901978 C135.4449884 30.08901978 136.1049884 30.08901978 136.7849884 30.08901978 C136.7849884 31.40901978 136.7849884 32.72901978 136.7849884 34.08901978 C137.4449884 34.08901978 138.1049884 34.08901978 138.7849884 34.08901978 C138.7849884 35.40901978 138.7849884 36.72901978 138.7849884 38.08901978 C139.4449884 38.08901978 140.1049884 38.08901978 140.7849884 38.08901978 C140.7849884 39.40901978 140.7849884 40.72901978 140.7849884 42.08901978 C141.4449884 42.08901978 142.1049884 42.08901978 142.7849884 42.08901978 C142.7849884 44.06901978 142.7849884 46.04901978 142.7849884 48.08901978 C143.4449884 48.08901978 144.1049884 48.08901978 144.7849884 48.08901978 C145.12422416 50.44246784 145.45649374 52.79656818 145.7849884 55.15151978 C145.92807434 56.13668579 145.92807434 56.13668579 146.0740509 57.14175415 C147.08325603 64.45849135 146.76888661 71.26029858 145.7849884 78.52651978 C145.68959778 79.25806274 145.59420715 79.98960571 145.4959259 80.74331665 C145.26292902 82.52574278 145.02452574 84.30746082 144.7849884 86.08901978 C144.1249884 86.08901978 143.4649884 86.08901978 142.7849884 86.08901978 C142.7849884 88.06901978 142.7849884 90.04901978 142.7849884 92.08901978 C142.1249884 92.08901978 141.4649884 92.08901978 140.7849884 92.08901978 C140.7849884 94.06901978 140.7849884 96.04901978 140.7849884 98.08901978 C140.1249884 98.08901978 139.4649884 98.08901978 138.7849884 98.08901978 C138.7849884 99.40901978 138.7849884 100.72901978 138.7849884 102.08901978 C138.1249884 102.08901978 137.4649884 102.08901978 136.7849884 102.08901978 C136.1249884 104.06901978 135.4649884 106.04901978 134.7849884 108.08901978 C134.1249884 108.08901978 133.4649884 108.08901978 132.7849884 108.08901978 C132.7849884 108.74901978 132.7849884 109.40901978 132.7849884 110.08901978 C132.1249884 110.08901978 131.4649884 110.08901978 130.7849884 110.08901978 C130.4137384 110.95526978 130.4137384 110.95526978 130.0349884 111.83901978 C128.60198852 114.41841957 127.00074164 116.15023569 124.7849884 118.08901978 C124.1249884 118.08901978 123.4649884 118.08901978 122.7849884 118.08901978 C122.7849884 118.74901978 122.7849884 119.40901978 122.7849884 120.08901978 C121.1349884 120.74901978 119.4849884 121.40901978 117.7849884 122.08901978 C117.7849884 122.74901978 117.7849884 123.40901978 117.7849884 124.08901978 C115.13759924 125.54964828 113.89050506 126.08901978 110.7849884 126.08901978 C110.7849884 126.74901978 110.7849884 127.40901978 110.7849884 128.08901978 C109.1349884 128.08901978 107.4849884 128.08901978 105.7849884 128.08901978 C105.7849884 128.74901978 105.7849884 129.40901978 105.7849884 130.08901978 C104.1349884 130.08901978 102.4849884 130.08901978 100.7849884 130.08901978 C100.7849884 130.74901978 100.7849884 131.40901978 100.7849884 132.08901978 C98.73420715 132.31688436 96.6834259 132.54474894 94.63264465 132.77261353 C92.77358612 132.90788592 92.77358612 132.90788592 91.7849884 134.08901978 C90.00506917 134.18272602 88.22142101 134.20646248 86.43904114 134.20254517 C84.70333862 134.20236389 84.70333862 134.20236389 82.93257141 134.20217896 C81.70695496 134.19706299 80.4813385 134.19194702 79.21858215 134.18667603 C78.09907166 134.18566895 76.97956116 134.18466187 75.8261261 134.18362427 C71.62490319 134.17837327 67.42369482 134.16441216 63.2224884 134.15151978 C53.8381134 134.13089478 44.4537384 134.11026978 34.7849884 134.08901978 C34.7849884 153.88901978 34.7849884 173.68901978 34.7849884 194.08901978 C21.9149884 194.08901978 9.0449884 194.08901978 -4.2150116 194.08901978 C-4.23755607 168.94221508 -4.25598928 143.79541852 -4.26682377 118.6486063 C-4.27198737 106.97338564 -4.27903128 95.29817168 -4.29045105 83.62295532 C-4.30039593 73.45079304 -4.30686456 63.27863562 -4.30910009 53.10646862 C-4.31040753 47.71682728 -4.31349548 42.32719984 -4.32074165 36.93756294 C-4.32749879 31.87090544 -4.32962919 26.80426763 -4.32811928 21.73760605 C-4.32839575 19.8722962 -4.33040268 18.00698573 -4.33421707 16.14167976 C-4.33914954 13.6065287 -4.33801155 11.07145326 -4.33526611 8.53630066 C-4.33817895 7.78826048 -4.3410918 7.0402203 -4.34409291 6.26951224 C-4.32593383 0.11977987 -4.32593383 0.11977987 0 0 Z M34.7849884 36.08901978 C34.7849884 57.20901978 34.7849884 78.32901978 34.7849884 100.08901978 C41.8387384 100.10964478 48.8924884 100.13026978 56.1599884 100.15151978 C58.38668274 100.16062378 60.61337708 100.16972778 62.907547 100.17910767 C64.66617268 100.1820274 66.42479905 100.18457582 68.1834259 100.18667603 C69.10164124 100.19179199 70.01985657 100.19690796 70.96589661 100.20217896 C71.83867249 100.2022998 72.71144836 100.20242065 73.610672 100.20254517 C74.74984573 100.20587608 74.74984573 100.20587608 75.91203308 100.20927429 C77.87712201 100.20503017 77.87712201 100.20503017 79.7849884 99.08901978 C81.32167706 98.86434147 82.86466894 98.68105172 84.4099884 98.52651978 C85.22725403 98.44273071 86.04451965 98.35894165 86.8865509 98.27261353 C87.51303528 98.21202759 88.13951965 98.15144165 88.7849884 98.08901978 C88.7849884 97.42901978 88.7849884 96.76901978 88.7849884 96.08901978 C89.5893634 95.99620728 89.5893634 95.99620728 90.4099884 95.90151978 C93.95524997 94.68866713 96.04422761 92.64291052 98.7849884 90.08901978 C98.7849884 89.42901978 98.7849884 88.76901978 98.7849884 88.08901978 C99.4449884 88.08901978 100.1049884 88.08901978 100.7849884 88.08901978 C100.7849884 87.42901978 100.7849884 86.76901978 100.7849884 86.08901978 C101.4449884 86.08901978 102.1049884 86.08901978 102.7849884 86.08901978 C102.7849884 84.76901978 102.7849884 83.44901978 102.7849884 82.08901978 C103.4449884 82.08901978 104.1049884 82.08901978 104.7849884 82.08901978 C104.7849884 80.10901978 104.7849884 78.12901978 104.7849884 76.08901978 C105.4449884 76.08901978 106.1049884 76.08901978 106.7849884 76.08901978 C106.7849884 70.14901978 106.7849884 64.20901978 106.7849884 58.08901978 C106.1249884 58.08901978 105.4649884 58.08901978 104.7849884 58.08901978 C104.7849884 56.76901978 104.7849884 55.44901978 104.7849884 54.08901978 C104.1249884 54.08901978 103.4649884 54.08901978 102.7849884 54.08901978 C102.7849884 52.76901978 102.7849884 51.44901978 102.7849884 50.08901978 C102.1249884 50.08901978 101.4649884 50.08901978 100.7849884 50.08901978 C100.3828009 48.88245728 100.3828009 48.88245728 99.9724884 47.65151978 C99.3846759 46.38308228 99.3846759 46.38308228 98.7849884 45.08901978 C97.7949884 44.75901978 96.8049884 44.42901978 95.7849884 44.08901978 C95.7849884 43.42901978 95.7849884 42.76901978 95.7849884 42.08901978 C95.1249884 42.08901978 94.4649884 42.08901978 93.7849884 42.08901978 C93.7849884 41.42901978 93.7849884 40.76901978 93.7849884 40.08901978 C92.4649884 40.08901978 91.1449884 40.08901978 89.7849884 40.08901978 C89.7849884 39.42901978 89.7849884 38.76901978 89.7849884 38.08901978 C88.1349884 38.08901978 86.4849884 38.08901978 84.7849884 38.08901978 C84.7849884 37.42901978 84.7849884 36.76901978 84.7849884 36.08901978 C68.2849884 36.08901978 51.7849884 36.08901978 34.7849884 36.08901978 Z " fill="#F6F6F6" transform="translate(514.2150115966797,236.91098022460938)"/>
<path d="M0 0 C0.77138587 0.00291284 1.54277174 0.00582568 2.33753294 0.00882679 C3.15101428 0.00797237 3.96449563 0.00711794 4.80262792 0.00623763 C7.54963126 0.00458033 10.29657458 0.01010824 13.04357237 0.01555592 C15.00428606 0.01583776 16.96499985 0.01568011 18.92571348 0.01511341 C24.26640219 0.01482533 29.60706866 0.02072379 34.94775218 0.02768737 C40.52249201 0.03391913 46.0972323 0.03452457 51.67197508 0.03571278 C62.23652976 0.03882662 72.80107416 0.04704072 83.36562431 0.05706227 C97.6358636 0.07030653 111.90610569 0.07572288 126.17634958 0.08156449 C148.67173039 0.09098058 171.16708947 0.11089914 193.66246885 0.12908131 C193.66246885 62.82908131 193.66246885 125.52908131 193.66246885 190.12908131 C178.81246885 190.12908131 163.96246885 190.12908131 148.66246885 190.12908131 C147.66246885 189.12908131 147.66246885 189.12908131 147.53942102 186.78836685 C147.54034281 185.74213182 147.54126461 184.69589678 147.54221433 183.61795765 C147.54015234 181.82368084 147.54015234 181.82368084 147.53804868 179.99315602 C147.54158828 178.65557032 147.5452231 177.31798487 147.54894346 175.98039967 C147.54922533 174.5812552 147.5490676 173.18211058 147.54850096 171.7829662 C147.54821297 167.97321672 147.55410988 164.16349845 147.56107491 160.35375625 C147.56730826 156.37656822 147.56791223 152.39937955 147.56910032 148.42218739 C147.57221369 140.88569591 147.58042716 133.34921887 147.59044981 125.81273377 C147.60161077 117.23488302 147.60712135 108.65703161 147.61214525 100.07917541 C147.62260977 82.42913585 147.64020932 64.77910974 147.66246885 47.12908131 C146.48106998 47.1227334 146.48106998 47.1227334 145.27580446 47.11625725 C126.13987249 47.01309546 107.00397866 46.90447974 87.8681125 46.78974205 C78.61427493 46.73438899 69.36043349 46.68090363 60.10656065 46.63176686 C52.04388266 46.58895047 43.9812333 46.54267902 35.91859949 46.49220276 C31.64680045 46.46558123 27.37500717 46.44072773 23.1031751 46.42000729 C19.08708146 46.40047282 15.07104242 46.37633882 11.05499738 46.34859043 C9.57671243 46.33920303 8.09841546 46.33153387 6.62011236 46.3256622 C4.61044943 46.3174297 2.60081686 46.30256407 0.59119505 46.28729969 C-1.09983418 46.27762087 -1.09983418 46.27762087 -2.82502562 46.26774651 C-5.33753115 46.12908131 -5.33753115 46.12908131 -6.33753115 45.12908131 C-6.57282527 37.83496366 -6.57282527 37.83496366 -5.33753115 34.12908131 C-5.24252459 32.05005088 -5.20680432 29.96809284 -5.20471865 27.88689381 C-5.20342959 26.65583912 -5.20214052 25.42478443 -5.2008124 24.15642506 C-5.20467959 22.86865162 -5.20854677 21.58087818 -5.21253115 20.25408131 C-5.20866396 18.97404225 -5.20479677 17.69400318 -5.2008124 16.37517506 C-5.20210146 15.14154225 -5.20339052 13.90790943 -5.20471865 12.63689381 C-5.20584658 11.50912525 -5.20697451 10.3813567 -5.20813662 9.21941334 C-5.25632471 6.15144206 -5.25632471 6.15144206 -5.90833193 3.28484303 C-6.04996767 2.57344166 -6.19160342 1.86204029 -6.33753115 1.12908131 C-4.59361116 -0.61483868 -2.32390817 0.00665579 0 0 Z " fill="#36B0F7" transform="translate(285.33753114938736,50.870918691158295)"/>
<path d="M0 0 C1.09235962 0.03939697 1.09235962 0.03939697 2.20678711 0.07958984 C7.479682 0.38440931 11.61453177 1.75092486 16.5 3.75 C18.15672637 4.12966646 19.82070245 4.48760976 21.5 4.75 C21.5 5.41 21.5 6.07 21.5 6.75 C22.82 6.75 24.14 6.75 25.5 6.75 C25.5 7.41 25.5 8.07 25.5 8.75 C26.82 8.75 28.14 8.75 29.5 8.75 C29.5 9.41 29.5 10.07 29.5 10.75 C30.49 10.75 31.48 10.75 32.5 10.75 C32.5 11.41 32.5 12.07 32.5 12.75 C33.49 12.75 34.48 12.75 35.5 12.75 C35.5 13.41 35.5 14.07 35.5 14.75 C36.221875 14.9975 36.94375 15.245 37.6875 15.5 C43.28389048 17.98728466 46.4218497 21.50574393 49.5 26.75 C49.5 27.41 49.5 28.07 49.5 28.75 C50.16 28.75 50.82 28.75 51.5 28.75 C51.5 29.41 51.5 30.07 51.5 30.75 C52.16 30.75 52.82 30.75 53.5 30.75 C54.49 33.72 54.49 33.72 55.5 36.75 C56.16 36.75 56.82 36.75 57.5 36.75 C57.5 38.07 57.5 39.39 57.5 40.75 C58.16 40.75 58.82 40.75 59.5 40.75 C60.81626692 44.36973402 61.5 46.84567131 61.5 50.75 C62.16 50.75 62.82 50.75 63.5 50.75 C63.72786458 52.80078125 63.95572917 54.8515625 64.18359375 56.90234375 C64.31886614 58.76140229 64.31886614 58.76140229 65.5 59.75 C65.5 69.32 65.5 78.89 65.5 88.75 C28.54 88.75 -8.42 88.75 -46.5 88.75 C-46.5 90.07 -46.5 91.39 -46.5 92.75 C-45.84 92.75 -45.18 92.75 -44.5 92.75 C-44.5 94.73 -44.5 96.71 -44.5 98.75 C-43.84 98.75 -43.18 98.75 -42.5 98.75 C-42.5 100.07 -42.5 101.39 -42.5 102.75 C-41.84 102.75 -41.18 102.75 -40.5 102.75 C-38.5 105.75 -38.5 105.75 -38.5 108.75 C-37.84 108.75 -37.18 108.75 -36.5 108.75 C-36.5 109.41 -36.5 110.07 -36.5 110.75 C-35.84 110.75 -35.18 110.75 -34.5 110.75 C-34.5 111.41 -34.5 112.07 -34.5 112.75 C-33.84 112.75 -33.18 112.75 -32.5 112.75 C-32.5 113.41 -32.5 114.07 -32.5 114.75 C-31.51 114.75 -30.52 114.75 -29.5 114.75 C-29.5 115.41 -29.5 116.07 -29.5 116.75 C-28.51 116.75 -27.52 116.75 -26.5 116.75 C-26.5 117.41 -26.5 118.07 -26.5 118.75 C-24.85 118.75 -23.2 118.75 -21.5 118.75 C-21.5 119.41 -21.5 120.07 -21.5 120.75 C-12.92 120.75 -4.34 120.75 4.5 120.75 C4.5 120.09 4.5 119.43 4.5 118.75 C7.40600261 117.49335022 9.29604584 116.75 12.5 116.75 C12.5 116.09 12.5 115.43 12.5 114.75 C13.16 114.75 13.82 114.75 14.5 114.75 C14.5 114.09 14.5 113.43 14.5 112.75 C15.16 112.75 15.82 112.75 16.5 112.75 C16.995 110.77 16.995 110.77 17.5 108.75 C18.16 108.75 18.82 108.75 19.5 108.75 C19.5 107.43 19.5 106.11 19.5 104.75 C20.16 104.75 20.82 104.75 21.5 104.75 C21.5 104.09 21.5 103.43 21.5 102.75 C34.7 102.75 47.9 102.75 61.5 102.75 C61.5 110.625 61.5 110.625 59.5 114.75 C58.84 114.75 58.18 114.75 57.5 114.75 C57.5 116.07 57.5 117.39 57.5 118.75 C56.84 118.75 56.18 118.75 55.5 118.75 C55.5 120.07 55.5 121.39 55.5 122.75 C54.84 122.75 54.18 122.75 53.5 122.75 C53.5 123.41 53.5 124.07 53.5 124.75 C52.84 124.75 52.18 124.75 51.5 124.75 C51.355625 125.36875 51.21125 125.9875 51.0625 126.625 C50.5 128.75 50.5 128.75 49.5 130.75 C48.84 130.75 48.18 130.75 47.5 130.75 C47.5 131.41 47.5 132.07 47.5 132.75 C46.84 132.75 46.18 132.75 45.5 132.75 C45.5 133.41 45.5 134.07 45.5 134.75 C44.84 134.75 44.18 134.75 43.5 134.75 C43.5 135.41 43.5 136.07 43.5 136.75 C41.85 137.41 40.2 138.07 38.5 138.75 C38.5 139.41 38.5 140.07 38.5 140.75 C37.51 140.75 36.52 140.75 35.5 140.75 C35.5 141.41 35.5 142.07 35.5 142.75 C34.51 142.75 33.52 142.75 32.5 142.75 C32.5 143.41 32.5 144.07 32.5 144.75 C31.51 144.75 30.52 144.75 29.5 144.75 C29.5 145.41 29.5 146.07 29.5 146.75 C28.18 146.75 26.86 146.75 25.5 146.75 C25.5 147.41 25.5 148.07 25.5 148.75 C24.18 148.75 22.86 148.75 21.5 148.75 C21.5 149.41 21.5 150.07 21.5 150.75 C19.85 150.75 18.2 150.75 16.5 150.75 C16.5 151.41 16.5 152.07 16.5 152.75 C13.86 152.75 11.22 152.75 8.5 152.75 C8.5 153.41 8.5 154.07 8.5 154.75 C-2.9571973 155.4992131 -14.05539073 155.98162186 -25.5 154.75 C-25.5 154.09 -25.5 153.43 -25.5 152.75 C-28.14 152.75 -30.78 152.75 -33.5 152.75 C-33.5 152.09 -33.5 151.43 -33.5 150.75 C-35.15 150.75 -36.8 150.75 -38.5 150.75 C-38.5 150.09 -38.5 149.43 -38.5 148.75 C-39.82 148.75 -41.14 148.75 -42.5 148.75 C-42.5 148.09 -42.5 147.43 -42.5 146.75 C-43.82 146.75 -45.14 146.75 -46.5 146.75 C-46.5 146.09 -46.5 145.43 -46.5 144.75 C-47.49 144.75 -48.48 144.75 -49.5 144.75 C-49.5 144.09 -49.5 143.43 -49.5 142.75 C-50.49 142.75 -51.48 142.75 -52.5 142.75 C-52.5 142.09 -52.5 141.43 -52.5 140.75 C-53.49 140.75 -54.48 140.75 -55.5 140.75 C-55.5 140.09 -55.5 139.43 -55.5 138.75 C-57.15 138.09 -58.8 137.43 -60.5 136.75 C-60.5 136.09 -60.5 135.43 -60.5 134.75 C-61.16 134.75 -61.82 134.75 -62.5 134.75 C-62.5 134.09 -62.5 133.43 -62.5 132.75 C-63.16 132.75 -63.82 132.75 -64.5 132.75 C-64.5 132.09 -64.5 131.43 -64.5 130.75 C-65.16 130.75 -65.82 130.75 -66.5 130.75 C-66.5 130.09 -66.5 129.43 -66.5 128.75 C-67.16 128.75 -67.82 128.75 -68.5 128.75 C-69.49 125.78 -69.49 125.78 -70.5 122.75 C-71.16 122.75 -71.82 122.75 -72.5 122.75 C-74.5 119.75 -74.5 119.75 -74.5 116.75 C-75.16 116.75 -75.82 116.75 -76.5 116.75 C-76.5 115.43 -76.5 114.11 -76.5 112.75 C-77.16 112.75 -77.82 112.75 -78.5 112.75 C-78.70496094 112.03972656 -78.90992188 111.32945312 -79.12109375 110.59765625 C-79.52521484 109.21900391 -79.52521484 109.21900391 -79.9375 107.8125 C-80.20433594 106.89597656 -80.47117187 105.97945313 -80.74609375 105.03515625 C-81.29026051 102.8097507 -81.29026051 102.8097507 -82.5 101.75 C-82.83333333 99.41666667 -83.16666667 97.08333333 -83.5 94.75 C-83.83 94.42 -84.16 94.09 -84.5 93.75 C-84.74454338 89.33636254 -84.72861894 84.91674388 -84.74023438 80.49707031 C-84.74984045 78.28671179 -84.78079926 76.07732349 -84.8125 73.8671875 C-84.86908363 66.33173338 -84.52501723 59.76210177 -81.5 52.75 C-80.92702843 50.89904245 -80.36206187 49.04554253 -79.8125 47.1875 C-79.56113281 46.34058594 -79.30976562 45.49367188 -79.05078125 44.62109375 C-78.86902344 44.00363281 -78.68726563 43.38617188 -78.5 42.75 C-77.84 42.75 -77.18 42.75 -76.5 42.75 C-76.5 41.43 -76.5 40.11 -76.5 38.75 C-75.84 38.75 -75.18 38.75 -74.5 38.75 C-73.84 36.77 -73.18 34.79 -72.5 32.75 C-71.84 32.75 -71.18 32.75 -70.5 32.75 C-69.84 30.77 -69.18 28.79 -68.5 26.75 C-67.84 26.75 -67.18 26.75 -66.5 26.75 C-66.5 26.09 -66.5 25.43 -66.5 24.75 C-65.84 24.75 -65.18 24.75 -64.5 24.75 C-64.5 24.09 -64.5 23.43 -64.5 22.75 C-63.84 22.75 -63.18 22.75 -62.5 22.75 C-62.5 22.09 -62.5 21.43 -62.5 20.75 C-61.84 20.75 -61.18 20.75 -60.5 20.75 C-60.5 20.09 -60.5 19.43 -60.5 18.75 C-58.85 18.09 -57.2 17.43 -55.5 16.75 C-55.5 16.09 -55.5 15.43 -55.5 14.75 C-54.51 14.75 -53.52 14.75 -52.5 14.75 C-52.5 14.09 -52.5 13.43 -52.5 12.75 C-51.51 12.75 -50.52 12.75 -49.5 12.75 C-49.5 12.09 -49.5 11.43 -49.5 10.75 C-48.51 10.75 -47.52 10.75 -46.5 10.75 C-46.5 10.09 -46.5 9.43 -46.5 8.75 C-45.18 8.75 -43.86 8.75 -42.5 8.75 C-42.5 8.09 -42.5 7.43 -42.5 6.75 C-41.18 6.75 -39.86 6.75 -38.5 6.75 C-38.5 6.09 -38.5 5.43 -38.5 4.75 C-37.64535156 4.54503906 -36.79070313 4.34007812 -35.91015625 4.12890625 C-34.80542969 3.85949219 -33.70070313 3.59007812 -32.5625 3.3125 C-31.46035156 3.04566406 -30.35820313 2.77882813 -29.22265625 2.50390625 C-26.60578746 2.02004275 -26.60578746 2.02004275 -25.5 0.75 C-17.02220856 -0.25527171 -8.51975582 -0.39103563 0 0 Z M-23.5 35.75 C-24.82674912 36.1086442 -26.1591213 36.44844868 -27.5 36.75 C-27.5 37.41 -27.5 38.07 -27.5 38.75 C-28.11875 38.894375 -28.7375 39.03875 -29.375 39.1875 C-31.53258322 39.68152225 -31.53258322 39.68152225 -33.5 40.75 C-33.5 41.41 -33.5 42.07 -33.5 42.75 C-34.49 43.08 -35.48 43.41 -36.5 43.75 C-37.71869929 46.25447516 -37.71869929 46.25447516 -38.5 48.75 C-39.16 48.75 -39.82 48.75 -40.5 48.75 C-42.7773501 51.56509993 -42.7773501 51.56509993 -42.5 54.75 C-43.16 54.75 -43.82 54.75 -44.5 54.75 C-44.5 56.07 -44.5 57.39 -44.5 58.75 C-20.74 58.75 3.02 58.75 27.5 58.75 C27.5 58.09 27.5 57.43 27.5 56.75 C26.84 56.75 26.18 56.75 25.5 56.75 C25.5 54.77 25.5 52.79 25.5 50.75 C24.84 50.75 24.18 50.75 23.5 50.75 C23.5 50.09 23.5 49.43 23.5 48.75 C22.84 48.75 22.18 48.75 21.5 48.75 C21.005 46.77 21.005 46.77 20.5 44.75 C19.84 44.75 19.18 44.75 18.5 44.75 C18.5 44.09 18.5 43.43 18.5 42.75 C17.84 42.75 17.18 42.75 16.5 42.75 C16.5 42.09 16.5 41.43 16.5 40.75 C15.51 40.75 14.52 40.75 13.5 40.75 C13.5 40.09 13.5 39.43 13.5 38.75 C12.51 38.75 11.52 38.75 10.5 38.75 C10.5 38.09 10.5 37.43 10.5 36.75 C8.85 36.75 7.2 36.75 5.5 36.75 C5.5 36.09 5.5 35.43 5.5 34.75 C3.19 34.75 0.88 34.75 -1.5 34.75 C-1.5 34.09 -1.5 33.43 -1.5 32.75 C-9.57218227 32.44389196 -16.11589449 32.33143263 -23.5 35.75 Z " fill="#F4F4F4" transform="translate(959.5,280.25)"/>
<path d="M0 0 C0 0.66 0 1.32 0 2 C2.31 2 4.62 2 7 2 C7 2.66 7 3.32 7 4 C8.98 4 10.96 4 13 4 C13 4.66 13 5.32 13 6 C14.32 6 15.64 6 17 6 C17 6.66 17 7.32 17 8 C18.32 8 19.64 8 21 8 C21 8.66 21 9.32 21 10 C21.99 10 22.98 10 24 10 C24 10.66 24 11.32 24 12 C24.99 12 25.98 12 27 12 C27 12.66 27 13.32 27 14 C27.99 14 28.98 14 30 14 C30 14.66 30 15.32 30 16 C30.99 16 31.98 16 33 16 C33 16.66 33 17.32 33 18 C33.66 18 34.32 18 35 18 C35 18.66 35 19.32 35 20 C35.66 20 36.32 20 37 20 C37 20.66 37 21.32 37 22 C37.66 22 38.32 22 39 22 C39 22.66 39 23.32 39 24 C39.66 24 40.32 24 41 24 C41 24.66 41 25.32 41 26 C41.66 26 42.32 26 43 26 C43 26.66 43 27.32 43 28 C43.66 28 44.32 28 45 28 C45 29.32 45 30.64 45 32 C45.66 32 46.32 32 47 32 C47 32.66 47 33.32 47 34 C47.66 34 48.32 34 49 34 C49 35.32 49 36.64 49 38 C49.66 38 50.32 38 51 38 C51 39.32 51 40.64 51 42 C51.66 42 52.32 42 53 42 C53 43.32 53 44.64 53 46 C53.66 46 54.32 46 55 46 C55.30744141 47.28197266 55.30744141 47.28197266 55.62109375 48.58984375 C55.89050781 49.69457031 56.15992188 50.79929687 56.4375 51.9375 C56.70433594 53.03964844 56.97117187 54.14179688 57.24609375 55.27734375 C57.72995725 57.89421254 57.72995725 57.89421254 59 59 C59.08858646 61.73894085 59.11523479 64.4525327 59.09765625 67.19140625 C59.09553383 68.42116432 59.09553383 68.42116432 59.09336853 69.67576599 C59.08775289 72.30471382 59.07519779 74.93357773 59.0625 77.5625 C59.05748701 79.34049357 59.05292376 81.11848846 59.04882812 82.89648438 C59.03777839 87.26435545 59.02050331 91.63216348 59 96 C58.34 96 57.68 96 57 96 C57.04125 96.86625 57.0825 97.7325 57.125 98.625 C56.99542279 102.12358468 56.23980344 104.74551597 55 108 C54.34 108 53.68 108 53 108 C53 109.32 53 110.64 53 112 C52.34 112 51.68 112 51 112 C51 113.32 51 114.64 51 116 C50.34 116 49.68 116 49 116 C49 117.32 49 118.64 49 120 C48.34 120 47.68 120 47 120 C47 120.66 47 121.32 47 122 C46.34 122 45.68 122 45 122 C45 123.32 45 124.64 45 126 C44.34 126 43.68 126 43 126 C43 126.66 43 127.32 43 128 C42.34 128 41.68 128 41 128 C41 128.66 41 129.32 41 130 C40.34 130 39.68 130 39 130 C39 130.66 39 131.32 39 132 C38.34 132 37.68 132 37 132 C37 132.66 37 133.32 37 134 C36.34 134 35.68 134 35 134 C35 134.66 35 135.32 35 136 C34.34 136 33.68 136 33 136 C33 136.66 33 137.32 33 138 C32.01 138 31.02 138 30 138 C30 138.66 30 139.32 30 140 C29.01 140 28.02 140 27 140 C27 140.66 27 141.32 27 142 C26.01 142 25.02 142 24 142 C24 142.66 24 143.32 24 144 C23.01 144 22.02 144 21 144 C21 144.66 21 145.32 21 146 C19.68 146 18.36 146 17 146 C17 146.66 17 147.32 17 148 C15.68 148 14.36 148 13 148 C13 148.66 13 149.32 13 150 C8.49646738 151.75747614 4.82360189 152.19294408 0 152 C0 152.66 0 153.32 0 154 C-12.09163813 154.72431573 -23.92913182 155.33891883 -36 154 C-36 153.34 -36 152.68 -36 152 C-38.31 152 -40.62 152 -43 152 C-43 151.34 -43 150.68 -43 150 C-43.721875 150.04125 -44.44375 150.0825 -45.1875 150.125 C-48.20729369 149.99078695 -50.26935729 149.24829381 -53 148 C-53 147.34 -53 146.68 -53 146 C-53.598125 145.855625 -54.19625 145.71125 -54.8125 145.5625 C-56.56150404 145.1127561 -58.28677023 144.57107659 -60 144 C-60 143.34 -60 142.68 -60 142 C-60.99 142 -61.98 142 -63 142 C-63 141.34 -63 140.68 -63 140 C-63.99 140 -64.98 140 -66 140 C-66 139.34 -66 138.68 -66 138 C-66.598125 137.71125 -67.19625 137.4225 -67.8125 137.125 C-70 136 -70 136 -73 134 C-73 133.34 -73 132.68 -73 132 C-73.66 132 -74.32 132 -75 132 C-75 131.34 -75 130.68 -75 130 C-75.66 130 -76.32 130 -77 130 C-77 129.34 -77 128.68 -77 128 C-77.66 128 -78.32 128 -79 128 C-79.99 125.03 -79.99 125.03 -81 122 C-81.66 122 -82.32 122 -83 122 C-83.99 119.03 -83.99 119.03 -85 116 C-85.66 116 -86.32 116 -87 116 C-87 114.68 -87 113.36 -87 112 C-87.66 112 -88.32 112 -89 112 C-90.31626692 108.38026598 -91 105.90432869 -91 102 C-91.66 102 -92.32 102 -93 102 C-93.22786458 99.94921875 -93.45572917 97.8984375 -93.68359375 95.84765625 C-93.81886614 93.98859771 -93.81886614 93.98859771 -95 93 C-95.22031557 88.72846986 -95.18578663 84.45096464 -95.18530273 80.17431641 C-95.18746304 78.03657328 -95.20553649 75.89936862 -95.22460938 73.76171875 C-95.2667681 63.68356767 -94.17734901 55.26281738 -90 46 C-89.62691369 44.67723944 -89.26953585 43.34767923 -89 42 C-88.34 42 -87.68 42 -87 42 C-87 40.68 -87 39.36 -87 38 C-86.34 38 -85.68 38 -85 38 C-84.34 36.02 -83.68 34.04 -83 32 C-82.34 32 -81.68 32 -81 32 C-81 31.34 -81 30.68 -81 30 C-80.34 30 -79.68 30 -79 30 C-79 28.68 -79 27.36 -79 26 C-78.34 26 -77.68 26 -77 26 C-77 25.34 -77 24.68 -77 24 C-76.34 24 -75.68 24 -75 24 C-75 23.34 -75 22.68 -75 22 C-74.34 22 -73.68 22 -73 22 C-73 21.34 -73 20.68 -73 20 C-71.3203125 18.4921875 -71.3203125 18.4921875 -69.125 16.875 C-68.40570312 16.33617187 -67.68640625 15.79734375 -66.9453125 15.2421875 C-65 14 -65 14 -63 14 C-63 13.34 -63 12.68 -63 12 C-62.01 12 -61.02 12 -60 12 C-60 11.34 -60 10.68 -60 10 C-58.75539217 9.32332002 -57.50403104 8.65905281 -56.25 8 C-55.55390625 7.62875 -54.8578125 7.2575 -54.140625 6.875 C-52 6 -52 6 -48 6 C-48 5.34 -48 4.68 -48 4 C-46.35 4 -44.7 4 -43 4 C-43 3.34 -43 2.68 -43 2 C-40.69 2 -38.38 2 -36 2 C-36 1.34 -36 0.68 -36 0 C-23.88545265 -1.00825298 -12.12221538 -0.86492206 0 0 Z M-26 35 C-28.32817964 35.36760731 -30.6618385 35.70241581 -33 36 C-33 36.66 -33 37.32 -33 38 C-34.32 38 -35.64 38 -37 38 C-37 38.66 -37 39.32 -37 40 C-37.61875 40.144375 -38.2375 40.28875 -38.875 40.4375 C-41.03258322 40.93152225 -41.03258322 40.93152225 -43 42 C-43 42.66 -43 43.32 -43 44 C-43.66 44 -44.32 44 -45 44 C-45 44.66 -45 45.32 -45 46 C-45.66 46 -46.32 46 -47 46 C-47 46.66 -47 47.32 -47 48 C-47.66 48 -48.32 48 -49 48 C-49 48.66 -49 49.32 -49 50 C-49.66 50 -50.32 50 -51 50 C-51 51.32 -51 52.64 -51 54 C-51.66 54 -52.32 54 -53 54 C-53 55.32 -53 56.64 -53 58 C-53.66 58 -54.32 58 -55 58 C-55 59.98 -55 61.96 -55 64 C-55.66 64 -56.32 64 -57 64 C-57 72.58 -57 81.16 -57 90 C-56.34 90 -55.68 90 -55 90 C-55 91.98 -55 93.96 -55 96 C-54.34 96 -53.68 96 -53 96 C-53 97.32 -53 98.64 -53 100 C-52.34 100 -51.68 100 -51 100 C-50.855625 100.61875 -50.71125 101.2375 -50.5625 101.875 C-50.06847775 104.03258322 -50.06847775 104.03258322 -49 106 C-48.34 106 -47.68 106 -47 106 C-47 106.66 -47 107.32 -47 108 C-46.34 108 -45.68 108 -45 108 C-45 108.66 -45 109.32 -45 110 C-44.34 110 -43.68 110 -43 110 C-43 110.66 -43 111.32 -43 112 C-42.01 112 -41.02 112 -40 112 C-40 112.66 -40 113.32 -40 114 C-39.01 114 -38.02 114 -37 114 C-37 114.66 -37 115.32 -37 116 C-33.17010894 117.80230168 -30.21878192 118.19622241 -26 118 C-26 118.66 -26 119.32 -26 120 C-20.72 120 -15.44 120 -10 120 C-10 119.34 -10 118.68 -10 118 C-7.69 118 -5.38 118 -3 118 C-3 117.34 -3 116.68 -3 116 C-1.35 116 0.3 116 2 116 C2 115.34 2 114.68 2 114 C2.99 114 3.98 114 5 114 C5 113.34 5 112.68 5 112 C5.61875 111.7525 6.2375 111.505 6.875 111.25 C9.35068687 109.79371361 9.95125002 108.62187494 11 106 C11.66 106 12.32 106 13 106 C13 105.34 13 104.68 13 104 C13.66 104 14.32 104 15 104 C15.66 102.02 16.32 100.04 17 98 C17.66 98 18.32 98 19 98 C19 96.02 19 94.04 19 92 C19.66 92 20.32 92 21 92 C21.06058594 91.36191406 21.12117188 90.72382813 21.18359375 90.06640625 C21.30927734 88.82697266 21.30927734 88.82697266 21.4375 87.5625 C21.55931641 86.32693359 21.55931641 86.32693359 21.68359375 85.06640625 C22 83 22 83 23 82 C23.09823937 80.33570949 23.12973631 78.66718069 23.125 77 C23.12757812 76.0925 23.13015625 75.185 23.1328125 74.25 C23.25173779 72.03033389 23.25173779 72.03033389 22 71 C21.76807135 69.48530552 21.58784762 67.96245438 21.4375 66.4375 C21.35371094 65.61121094 21.26992187 64.78492188 21.18359375 63.93359375 C21.12300781 63.29550781 21.06242187 62.65742188 21 62 C20.34 62 19.68 62 19 62 C18.896875 61.13375 18.79375 60.2675 18.6875 59.375 C17.96601586 55.83316877 16.72876739 53.15687958 15 50 C14.34 50 13.68 50 13 50 C13 49.34 13 48.68 13 48 C12.34 48 11.68 48 11 48 C10.7525 47.38125 10.505 46.7625 10.25 46.125 C8.79371361 43.64931313 7.62187494 43.04874998 5 42 C5 41.34 5 40.68 5 40 C4.01 40 3.02 40 2 40 C2 39.34 2 38.68 2 38 C0.35 38 -1.3 38 -3 38 C-3 37.34 -3 36.68 -3 36 C-4.134375 35.855625 -5.26875 35.71125 -6.4375 35.5625 C-10 35 -10 35 -11 34 C-13.33160055 33.90090698 -15.66629942 33.87029496 -18 33.875 C-19.27875 33.87242187 -20.5575 33.86984375 -21.875 33.8671875 C-24.86687244 33.64139107 -24.86687244 33.64139107 -26 35 Z " fill="#F3F3F3" transform="translate(1496,281)"/>
<path d="M0 0 C0.99 0.33 1.98 0.66 3 1 C5.99692312 1.11873734 8.97483012 1.18528315 11.97265625 1.2109375 C13.77670203 1.23899021 15.58073838 1.26765455 17.38476562 1.296875 C20.23120009 1.33825261 23.07745548 1.3751378 25.92407227 1.40136719 C28.66980288 1.42886479 31.4147315 1.47471603 34.16015625 1.5234375 C35.01537369 1.52669037 35.87059113 1.52994324 36.75172424 1.53329468 C39.14868164 1.58349609 39.14868164 1.58349609 43 2 C45 5 45 5 45 8 C45.66 8 46.32 8 47 8 C47 9.32 47 10.64 47 12 C47.66 12 48.32 12 49 12 C49 12.66 49 13.32 49 14 C49.66 14 50.32 14 51 14 C51 15.32 51 16.64 51 18 C51.66 18 52.32 18 53 18 C55 21 55 21 55 24 C55.66 24 56.32 24 57 24 C57 25.32 57 26.64 57 28 C57.66 28 58.32 28 59 28 C59 28.66 59 29.32 59 30 C59.66 30 60.32 30 61 30 C61 31.32 61 32.64 61 34 C61.66 34 62.32 34 63 34 C65 37 65 37 65 40 C65.66 40 66.32 40 67 40 C67.99 42.97 67.99 42.97 69 46 C69.66 46 70.32 46 71 46 C71 45.34 71 44.68 71 44 C71.66 44 72.32 44 73 44 C73 42.68 73 41.36 73 40 C73.66 40 74.32 40 75 40 C75.99 37.03 75.99 37.03 77 34 C77.66 34 78.32 34 79 34 C79.144375 33.38125 79.28875 32.7625 79.4375 32.125 C80 30 80 30 81 28 C81.66 28 82.32 28 83 28 C83 26.68 83 25.36 83 24 C83.66 24 84.32 24 85 24 C85 23.34 85 22.68 85 22 C85.66 22 86.32 22 87 22 C87 20.68 87 19.36 87 18 C87.66 18 88.32 18 89 18 C89.2165625 17.071875 89.2165625 17.071875 89.4375 16.125 C90 14 90 14 91 12 C91.66 12 92.32 12 93 12 C93 10.68 93 9.36 93 8 C93.66 8 94.32 8 95 8 C95 7.34 95 6.68 95 6 C95.66 6 96.32 6 97 6 C97 4.68 97 3.36 97 2 C102.62335632 1.85694303 108.24672879 1.71454432 113.87011719 1.57275391 C115.78288218 1.5244321 117.69564265 1.47593086 119.60839844 1.42724609 C122.35871223 1.35727446 125.10904168 1.28794946 127.859375 1.21875 C128.71368103 1.19687622 129.56798706 1.17500244 130.44818115 1.15246582 C131.24870911 1.13244507 132.04923706 1.11242432 132.87402344 1.09179688 C133.57573669 1.07403198 134.27744995 1.05626709 135.00042725 1.03796387 C136.99996452 1.00000067 139.00010238 1 141 1 C141 2.65 141 4.3 141 6 C140.34 6 139.68 6 139 6 C138.34 7.98 137.68 9.96 137 12 C136.34 12 135.68 12 135 12 C135 13.32 135 14.64 135 16 C134.34 16 133.68 16 133 16 C133 16.66 133 17.32 133 18 C132.34 18 131.68 18 131 18 C131 19.32 131 20.64 131 22 C130.34 22 129.68 22 129 22 C129 22.66 129 23.32 129 24 C128.34 24 127.68 24 127 24 C127 25.32 127 26.64 127 28 C126.34 28 125.68 28 125 28 C125 28.66 125 29.32 125 30 C124.34 30 123.68 30 123 30 C123 31.32 123 32.64 123 34 C122.34 34 121.68 34 121 34 C121 34.66 121 35.32 121 36 C120.34 36 119.68 36 119 36 C119 37.32 119 38.64 119 40 C118.34 40 117.68 40 117 40 C117 40.66 117 41.32 117 42 C116.34 42 115.68 42 115 42 C115 43.32 115 44.64 115 46 C114.34 46 113.68 46 113 46 C113 46.66 113 47.32 113 48 C112.34 48 111.68 48 111 48 C111 49.32 111 50.64 111 52 C110.34 52 109.68 52 109 52 C109 52.66 109 53.32 109 54 C108.34 54 107.68 54 107 54 C107 55.32 107 56.64 107 58 C106.34 58 105.68 58 105 58 C104.01 60.97 104.01 60.97 103 64 C102.34 64 101.68 64 101 64 C100.34 65.98 99.68 67.96 99 70 C98.34 70 97.68 70 97 70 C97 71.98 97 73.96 97 76 C97.66 76 98.32 76 99 76 C99 76.66 99 77.32 99 78 C99.66 78 100.32 78 101 78 C101 79.32 101 80.64 101 82 C101.66 82 102.32 82 103 82 C105 85 105 85 105 88 C105.66 88 106.32 88 107 88 C107.66 89.98 108.32 91.96 109 94 C109.66 94 110.32 94 111 94 C111 95.32 111 96.64 111 98 C111.66 98 112.32 98 113 98 C113 98.66 113 99.32 113 100 C113.66 100 114.32 100 115 100 C115 101.32 115 102.64 115 104 C115.66 104 116.32 104 117 104 C117 104.66 117 105.32 117 106 C117.66 106 118.32 106 119 106 C119 107.32 119 108.64 119 110 C119.66 110 120.32 110 121 110 C121 110.66 121 111.32 121 112 C121.66 112 122.32 112 123 112 C123 113.32 123 114.64 123 116 C123.66 116 124.32 116 125 116 C127 119 127 119 127 122 C127.66 122 128.32 122 129 122 C129 123.32 129 124.64 129 126 C129.66 126 130.32 126 131 126 C131 126.66 131 127.32 131 128 C131.66 128 132.32 128 133 128 C133 129.32 133 130.64 133 132 C133.66 132 134.32 132 135 132 C135 132.66 135 133.32 135 134 C135.66 134 136.32 134 137 134 C137 135.32 137 136.64 137 138 C137.66 138 138.32 138 139 138 C141 141 141 141 141 144 C141.66 144 142.32 144 143 144 C143 145.32 143 146.64 143 148 C128.48 148 113.96 148 99 148 C99 147.34 99 146.68 99 146 C98.34 146 97.68 146 97 146 C97 144.68 97 143.36 97 142 C96.34 142 95.68 142 95 142 C93 139 93 139 93 136 C92.34 136 91.68 136 91 136 C91 134.68 91 133.36 91 132 C90.34 132 89.68 132 89 132 C89 131.34 89 130.68 89 130 C88.34 130 87.68 130 87 130 C87 128.68 87 127.36 87 126 C86.34 126 85.68 126 85 126 C83 123 83 123 83 120 C82.34 120 81.68 120 81 120 C81 118.68 81 117.36 81 116 C80.34 116 79.68 116 79 116 C79 115.34 79 114.68 79 114 C78.34 114 77.68 114 77 114 C77 112.68 77 111.36 77 110 C76.34 110 75.68 110 75 110 C73 107 73 107 73 104 C72.34 104 71.68 104 71 104 C71 102.68 71 101.36 71 100 C70.34 100 69.68 100 69 100 C68.855625 100.61875 68.71125 101.2375 68.5625 101.875 C68 104 68 104 67 106 C66.34 106 65.68 106 65 106 C65 107.32 65 108.64 65 110 C64.34 110 63.68 110 63 110 C63 110.66 63 111.32 63 112 C62.34 112 61.68 112 61 112 C61 113.32 61 114.64 61 116 C60.34 116 59.68 116 59 116 C58.855625 116.61875 58.71125 117.2375 58.5625 117.875 C58 120 58 120 57 122 C56.34 122 55.68 122 55 122 C55 123.32 55 124.64 55 126 C54.34 126 53.68 126 53 126 C53 126.66 53 127.32 53 128 C52.34 128 51.68 128 51 128 C51 129.32 51 130.64 51 132 C50.34 132 49.68 132 49 132 C48.34 133.98 47.68 135.96 47 138 C46.34 138 45.68 138 45 138 C45 139.32 45 140.64 45 142 C44.34 142 43.68 142 43 142 C43 142.66 43 143.32 43 144 C42.34 144 41.68 144 41 144 C41 145.32 41 146.64 41 148 C26.48 148 11.96 148 -3 148 C-3 146.68 -3 145.36 -3 144 C-2.34 144 -1.68 144 -1 144 C-1 143.34 -1 142.68 -1 142 C-0.34 142 0.32 142 1 142 C1 140.68 1 139.36 1 138 C1.66 138 2.32 138 3 138 C3.66 136.02 4.32 134.04 5 132 C5.66 132 6.32 132 7 132 C7.144375 131.38125 7.28875 130.7625 7.4375 130.125 C8 128 8 128 9 126 C9.66 126 10.32 126 11 126 C11 124.68 11 123.36 11 122 C11.66 122 12.32 122 13 122 C13 121.34 13 120.68 13 120 C13.66 120 14.32 120 15 120 C15 118.68 15 117.36 15 116 C15.66 116 16.32 116 17 116 C17 115.34 17 114.68 17 114 C17.66 114 18.32 114 19 114 C19 112.68 19 111.36 19 110 C19.66 110 20.32 110 21 110 C21.66 108.02 22.32 106.04 23 104 C23.66 104 24.32 104 25 104 C25.144375 103.38125 25.28875 102.7625 25.4375 102.125 C26 100 26 100 27 98 C27.66 98 28.32 98 29 98 C29 96.68 29 95.36 29 94 C29.66 94 30.32 94 31 94 C31 93.34 31 92.68 31 92 C31.66 92 32.32 92 33 92 C33 90.68 33 89.36 33 88 C33.66 88 34.32 88 35 88 C35 87.34 35 86.68 35 86 C35.66 86 36.32 86 37 86 C37 84.68 37 83.36 37 82 C37.66 82 38.32 82 39 82 C39.66 80.02 40.32 78.04 41 76 C41.66 76 42.32 76 43 76 C43 74.02 43 72.04 43 70 C42.34 70 41.68 70 41 70 C41 68.68 41 67.36 41 66 C40.34 66 39.68 66 39 66 C39 65.34 39 64.68 39 64 C38.34 64 37.68 64 37 64 C37 62.68 37 61.36 37 60 C36.34 60 35.68 60 35 60 C35 59.34 35 58.68 35 58 C34.34 58 33.68 58 33 58 C33 56.68 33 55.36 33 54 C32.34 54 31.68 54 31 54 C31 53.34 31 52.68 31 52 C30.34 52 29.68 52 29 52 C29 50.68 29 49.36 29 48 C28.34 48 27.68 48 27 48 C27 47.34 27 46.68 27 46 C26.34 46 25.68 46 25 46 C25 44.68 25 43.36 25 42 C24.34 42 23.68 42 23 42 C23 41.34 23 40.68 23 40 C22.34 40 21.68 40 21 40 C21 38.68 21 37.36 21 36 C20.34 36 19.68 36 19 36 C19 35.34 19 34.68 19 34 C18.34 34 17.68 34 17 34 C17 32.68 17 31.36 17 30 C16.34 30 15.68 30 15 30 C13 27 13 27 13 24 C12.34 24 11.68 24 11 24 C9 21 9 21 9 18 C8.34 18 7.68 18 7 18 C5 15 5 15 5 12 C4.34 12 3.68 12 3 12 C2.34 10.02 1.68 8.04 1 6 C0.34 6 -0.32 6 -1 6 C-1.042721 4.33388095 -1.04063832 2.66617115 -1 1 C-0.67 0.67 -0.34 0.34 0 0 Z " fill="#F3F3F3" transform="translate(728,283)"/>
<path d="M0 0 C0 13.53 0 27.06 0 41 C13.86 41.33 27.72 41.66 42 42 C42 52.56 42 63.12 42 74 C28.14 74.33 14.28 74.66 0 75 C0 97.77 0 120.54 0 144 C0.66 144 1.32 144 2 144 C2 145.98 2 147.96 2 150 C2.66 150 3.32 150 4 150 C4 150.66 4 151.32 4 152 C4.66 152 5.32 152 6 152 C6 152.66 6 153.32 6 154 C9.75132423 155.17124679 13.49618122 155.22070645 17.390625 155.31640625 C18.68000977 155.35451416 19.96939453 155.39262207 21.29785156 155.43188477 C22.93206055 155.47498779 24.56626953 155.51809082 26.25 155.5625 C31.4475 155.706875 36.645 155.85125 42 156 C42 166.56 42 177.12 42 188 C35.57688632 188.04600718 29.15434856 188.08580475 22.73120117 188.10986328 C20.54791319 188.11989692 18.36463857 188.1335269 16.18139648 188.15087891 C13.03626195 188.17524313 9.89130571 188.18650971 6.74609375 188.1953125 C5.7760289 188.20563507 4.80596405 188.21595764 3.8065033 188.22659302 C-1.53457393 188.22746961 -5.94869152 187.76414278 -11 186 C-11 185.34 -11 184.68 -11 184 C-12.32 184 -13.64 184 -15 184 C-15 183.34 -15 182.68 -15 182 C-15.556875 181.896875 -16.11375 181.79375 -16.6875 181.6875 C-19.4769101 180.85821592 -21.6139064 179.65700944 -24 178 C-24 177.34 -24 176.68 -24 176 C-24.66 176 -25.32 176 -26 176 C-26 175.34 -26 174.68 -26 174 C-26.66 174 -27.32 174 -28 174 C-28.66 172.02 -29.32 170.04 -30 168 C-30.66 168 -31.32 168 -32 168 C-32 166.68 -32 165.36 -32 164 C-32.66 164 -33.32 164 -34 164 C-34 162.02 -34 160.04 -34 158 C-34.66 158 -35.32 158 -36 158 C-38.44254882 149.01513842 -38.25729882 140.05757787 -38.1953125 130.8359375 C-38.19157531 129.19113335 -38.18873168 127.54632696 -38.18673706 125.90151978 C-38.17915617 121.6042042 -38.15955632 117.30702707 -38.1373291 113.00976562 C-38.11675022 108.61199821 -38.10770977 104.21420809 -38.09765625 99.81640625 C-38.07630434 91.21086735 -38.04116842 82.60546693 -38 74 C-47.9 74 -57.8 74 -68 74 C-68 63.44 -68 52.88 -68 42 C-58.1 42 -48.2 42 -38 42 C-38 28.14 -38 14.28 -38 0 C-32.658125 -0.185625 -27.31625 -0.37125 -21.8125 -0.5625 C-19.29653198 -0.65446655 -19.29653198 -0.65446655 -16.72973633 -0.74829102 C-15.38884965 -0.79228948 -14.04794872 -0.83585658 -12.70703125 -0.87890625 C-11.67660706 -0.9189679 -11.67660706 -0.9189679 -10.62536621 -0.95983887 C-6.80074657 -1.07653154 -3.8168962 -0.76337924 0 0 Z " fill="#F2F2F2" transform="translate(1625,243)"/>
<path d="M0 0 C12.54 0 25.08 0 38 0 C38 66 38 132 38 200 C25.46 200 12.92 200 0 200 C0 134 0 68 0 0 Z " fill="#EEEEEE" transform="translate(1343,231)"/>
<path d="M0 0 C12.54 0 25.08 0 38 0 C38 66 38 132 38 200 C25.46 200 12.92 200 0 200 C0 134 0 68 0 0 Z " fill="#EFEEEE" transform="translate(1043,231)"/>
<path d="M0 0 C0 48.18 0 96.36 0 146 C-12.54 146 -25.08 146 -38 146 C-38 97.82 -38 49.64 -38 0 C-3 -1 -3 -1 0 0 Z " fill="#EFEEEE" transform="translate(1315,285)"/>
<path d="M0 0 C0.89995565 3.59982261 1.12347154 6.24244546 1.12025452 9.90985107 C1.12162918 11.11857376 1.12300385 12.32729645 1.12442017 13.57264709 C1.12088129 14.90878321 1.11724649 16.24491907 1.11352539 17.58105469 C1.11324326 18.99049375 1.11340175 20.39993297 1.1139679 21.80937195 C1.11425488 25.63340617 1.10837413 29.45740904 1.10139394 33.28143597 C1.09514394 37.27862578 1.0945553 41.27581631 1.09336853 45.27301025 C1.09026008 52.84127619 1.08205322 60.40952768 1.07201904 67.97778726 C1.06084283 76.59440091 1.05534365 85.21101524 1.05032361 93.82763433 C1.03987022 111.55176607 1.02153076 129.27587802 1 147 C-11.21 147 -23.42 147 -36 147 C-36 98.82 -36 50.64 -36 1 C-24.12 0.67 -12.24 0.34 0 0 Z " fill="#FCFCFC" transform="translate(711,284)"/>
<path d="M0 0 C0 0.66 0 1.32 0 2 C1.32 2 2.64 2 4 2 C4 2.66 4 3.32 4 4 C4.99 4 5.98 4 7 4 C7 4.66 7 5.32 7 6 C7.66 6 8.32 6 9 6 C9 7.32 9 8.64 9 10 C9.66 10 10.32 10 11 10 C12.97094808 14.92737019 13.1799928 18.78020872 13 24 C12.34 24 11.68 24 11 24 C11 25.98 11 27.96 11 30 C10.34 30 9.68 30 9 30 C9 30.66 9 31.32 9 32 C8.34 32 7.68 32 7 32 C6.67 33.32 6.34 34.64 6 36 C5.01 36 4.02 36 3 36 C3 36.66 3 37.32 3 38 C1.68 38 0.36 38 -1 38 C-1 38.66 -1 39.32 -1 40 C-7.6 40 -14.2 40 -21 40 C-21 39.34 -21 38.68 -21 38 C-21.61875 37.855625 -22.2375 37.71125 -22.875 37.5625 C-25 37 -25 37 -27 36 C-27 35.34 -27 34.68 -27 34 C-27.66 34 -28.32 34 -29 34 C-29 33.34 -29 32.68 -29 32 C-29.66 32 -30.32 32 -31 32 C-32.66674321 29.08175756 -33.2432008 27.02405621 -33.1953125 23.671875 C-33.18886719 22.87265625 -33.18242188 22.0734375 -33.17578125 21.25 C-33.15902344 20.425 -33.14226563 19.6 -33.125 18.75 C-33.11597656 17.90953125 -33.10695313 17.0690625 -33.09765625 16.203125 C-33.07415817 14.13529396 -33.03828908 12.06761005 -33 10 C-32.34 10 -31.68 10 -31 10 C-30.7525 9.236875 -30.505 8.47375 -30.25 7.6875 C-28.8707363 4.72208305 -27.80742685 3.61639727 -25 2 C-24.01 2 -23.02 2 -22 2 C-22 1.34 -22 0.68 -22 0 C-14.78736852 -3.03689746 -7.21263148 -3.03689746 0 0 Z " fill="#EDEDED" transform="translate(704,225)"/>
<path d="M0 0 C0 0.66 0 1.32 0 2 C0.99 2 1.98 2 3 2 C3 2.66 3 3.32 3 4 C3.66 4 4.32 4 5 4 C5 5.32 5 6.64 5 8 C5.66 8 6.32 8 7 8 C9.80498744 15.18778031 9.33428497 20.85125229 7 28 C6.34 28 5.68 28 5 28 C4.7525 28.804375 4.505 29.60875 4.25 30.4375 C3 33 3 33 0.875 33.8125 C0.25625 33.874375 -0.3625 33.93625 -1 34 C-1 34.66 -1 35.32 -1 36 C-4.06156654 37.77669223 -6.24036215 38.24050818 -9.765625 38.1953125 C-10.65507813 38.18886719 -11.54453125 38.18242187 -12.4609375 38.17578125 C-13.38132812 38.15902344 -14.30171875 38.14226562 -15.25 38.125 C-16.18585938 38.11597656 -17.12171875 38.10695313 -18.0859375 38.09765625 C-20.39088657 38.07413636 -22.6953116 38.04126853 -25 38 C-25 37.34 -25 36.68 -25 36 C-25.61875 35.855625 -26.2375 35.71125 -26.875 35.5625 C-29 35 -29 35 -31 34 C-31 33.34 -31 32.68 -31 32 C-31.66 32 -32.32 32 -33 32 C-33 31.34 -33 30.68 -33 30 C-33.66 30 -34.32 30 -35 30 C-35 28.68 -35 27.36 -35 26 C-35.66 26 -36.32 26 -37 26 C-37.05392397 23.22890693 -37.09363455 20.45886182 -37.125 17.6875 C-37.14175781 16.90181641 -37.15851563 16.11613281 -37.17578125 15.30664062 C-37.18544922 14.1706543 -37.18544922 14.1706543 -37.1953125 13.01171875 C-37.20578613 12.31522217 -37.21625977 11.61872559 -37.22705078 10.90112305 C-37 9 -37 9 -35 6 C-34.34 6 -33.68 6 -33 6 C-32.67 4.68 -32.34 3.36 -32 2 C-31.01 2 -30.02 2 -29 2 C-29 1.34 -29 0.68 -29 0 C-28.01 0 -27.02 0 -26 0 C-26 -0.66 -26 -1.32 -26 -2 C-16.68896738 -5.92043479 -8.82705517 -4.20693693 0 0 Z " fill="#EDEDEE" transform="translate(1310,227)"/>
<path d="M0 0 C1.98 0.495 1.98 0.495 4 1 C4 61.39 4 121.78 4 184 C3.34 184 2.68 184 2 184 C0.82825019 179.34175243 0.83442379 174.82092103 0.81054688 170.05053711 C0.80225357 169.15890366 0.79396027 168.2672702 0.78541565 167.34861755 C0.76805456 165.41762475 0.75287709 163.48661134 0.73963928 161.55558586 C0.71856264 158.50018275 0.69154494 155.44488317 0.66296387 152.38954163 C0.59322815 144.80338716 0.53373169 137.21715857 0.47393799 129.63092041 C0.42299288 123.21575569 0.36816724 116.80064718 0.30812073 110.38556099 C0.28155418 107.37432146 0.26073713 104.36307662 0.2401123 101.35179138 C0.22350935 99.50788113 0.20663752 97.66397328 0.18945312 95.82006836 C0.18526871 94.98203674 0.18108429 94.14400513 0.17677307 93.28057861 C0.1378793 89.68017045 -0.08536769 86.47043259 -1 83 C-1.0888537 81.45931396 -1.12786095 79.91531563 -1.12939453 78.37207031 C-1.13250641 77.45356796 -1.13561829 76.53506561 -1.13882446 75.58872986 C-1.13684052 74.59523026 -1.13485657 73.60173065 -1.1328125 72.578125 C-1.13413177 71.53697037 -1.13545105 70.49581573 -1.1368103 69.42311096 C-1.13872846 66.03204382 -1.1323902 62.64105876 -1.125 59.25 C-1.12411377 58.10405365 -1.12322754 56.9581073 -1.12231445 55.7774353 C-1.10535167 37.16877627 -0.80192844 18.59151641 0 0 Z " fill="#2A618F" transform="translate(475,54)"/>
<path d="M0 0 C0.33 0 0.66 0 1 0 C1.74627422 34.9405108 2.09581572 69.86430916 2.0625 104.8125 C2.06121597 106.1691124 2.06121597 106.1691124 2.05990601 107.5531311 C2.04856497 118.70211776 2.0255255 129.85102709 2 141 C16.19 141 30.38 141 45 141 C45.33 141.66 45.66 142.32 46 143 C39.60962769 143.02527062 33.21926817 143.04283317 26.82885742 143.05493164 C24.65307127 143.05997308 22.47728853 143.06680607 20.30151367 143.07543945 C17.18146933 143.08751338 14.06146962 143.09323005 10.94140625 143.09765625 C9.47266808 143.10539818 9.47266808 143.10539818 7.97425842 143.11329651 C7.07340012 143.11337204 6.17254181 143.11344757 5.24438477 143.11352539 C4.44718521 143.115746 3.64998566 143.11796661 2.82862854 143.12025452 C1 143 1 143 0 142 C-0.09646028 140.16505514 -0.12187344 138.32635413 -0.12025452 136.48887634 C-0.12162918 135.2926918 -0.12300385 134.09650726 -0.12442017 132.86407471 C-0.12088057 131.52648901 -0.11724575 130.18890356 -0.11352539 128.85131836 C-0.11324352 127.45217389 -0.11340125 126.05302927 -0.1139679 124.65388489 C-0.11425588 120.84413541 -0.10835898 117.03441714 -0.10139394 113.22467494 C-0.09516059 109.24748691 -0.09455662 105.27029824 -0.09336853 101.29310608 C-0.09025516 93.75661461 -0.08204169 86.22013757 -0.07201904 78.68365246 C-0.06085808 70.10580172 -0.0553475 61.5279503 -0.05032361 52.9500941 C-0.03985908 35.30005454 -0.02225953 17.65002843 0 0 Z " fill="#2A4E69" transform="translate(433,98)"/>
<path d="M0 0 C0.66 0 1.32 0 2 0 C2.22786458 2.05078125 2.45572917 4.1015625 2.68359375 6.15234375 C2.81886614 8.01140229 2.81886614 8.01140229 4 9 C4 18.57 4 28.14 4 38 C-32.96 38 -69.92 38 -108 38 C-108.33 38.99 -108.66 39.98 -109 41 C-109 39.68 -109 38.36 -109 37 C-54.055 36.505 -54.055 36.505 2 36 C2.33 27.42 2.66 18.84 3 10 C2.01 10 1.02 10 0 10 C0 6.7 0 3.4 0 0 Z " fill="#090A12" transform="translate(1021,331)"/>
<path d="M0 0 C0.33 0.99 0.66 1.98 1 3 C14.53 3 28.06 3 42 3 C42 3.99 42 4.98 42 6 C27.48 6 12.96 6 -2 6 C-2 4.68 -2 3.36 -2 2 C-1.34 2 -0.68 2 0 2 C0 1.34 0 0.68 0 0 Z " fill="#575657" transform="translate(727,425)"/>
<path d="M0 0 C1.98 0.495 1.98 0.495 4 1 C4.15534163 4.26217414 4.09737037 6.72164124 3.01211548 9.8241272 C1.96076235 13.12312209 1.72483973 15.73766135 1.68115234 19.18896484 C1.66128265 20.38975677 1.64141296 21.59054871 1.62094116 22.82772827 C1.60938995 24.10918732 1.59783875 25.39064636 1.5859375 26.7109375 C1.56720789 28.04758882 1.54763316 29.38422855 1.5272522 30.72085571 C1.47611399 34.2224033 1.43639099 37.72398914 1.39910889 41.22570801 C1.35895373 44.80551474 1.30791417 48.38516485 1.2578125 51.96484375 C1.16127046 58.97644781 1.07679683 65.98815262 1 73 C0.67 73 0.34 73 0 73 C-1.57600419 48.62822085 -0.86472522 24.38249149 0 0 Z " fill="#2DADFC" transform="translate(475,54)"/>
<path d="M0 0 C0.66 0 1.32 0 2 0 C2.22786458 2.05078125 2.45572917 4.1015625 2.68359375 6.15234375 C2.81886614 8.01140229 2.81886614 8.01140229 4 9 C4.08775605 11.14558827 4.10695219 13.29404421 4.09765625 15.44140625 C4.09443359 16.74658203 4.09121094 18.05175781 4.08789062 19.39648438 C4.07953401 20.7851569 4.07106905 22.17382877 4.0625 23.5625 C4.05748666 24.95507656 4.05292347 26.34765481 4.04882812 27.74023438 C4.03699442 31.16017451 4.01905831 34.5800925 4 38 C-1.61 38 -7.22 38 -13 38 C-13 37.67 -13 37.34 -13 37 C-8.05 36.67 -3.1 36.34 2 36 C2.33 27.42 2.66 18.84 3 10 C2.01 10 1.02 10 0 10 C0 6.7 0 3.4 0 0 Z " fill="#212021" transform="translate(1021,331)"/>
<path d="M0 0 C0.99 0.33 1.98 0.66 3 1 C-2.61 6.61 -8.22 12.22 -14 18 C-14 15 -14 15 -13 12 C-12.34 12 -11.68 12 -11 12 C-11 11.34 -11 10.68 -11 10 C-10.34 10 -9.68 10 -9 10 C-9 9.34 -9 8.68 -9 8 C-8.34 8 -7.68 8 -7 8 C-7 7.34 -7 6.68 -7 6 C-6.34 6 -5.68 6 -5 6 C-5 5.34 -5 4.68 -5 4 C-3.35 3.34 -1.7 2.68 0 2 C0 1.34 0 0.68 0 0 Z " fill="#939193" transform="translate(904,295)"/>
<path d="M0 0 C0.66 0.33 1.32 0.66 2 1 C-2.95 5.95 -7.9 10.9 -13 16 C-13.33 14.68 -13.66 13.36 -14 12 C-13.34 12 -12.68 12 -12 12 C-12 11.34 -12 10.68 -12 10 C-11.34 10 -10.68 10 -10 10 C-10 9.34 -10 8.68 -10 8 C-9.34 8 -8.68 8 -8 8 C-8 7.34 -8 6.68 -8 6 C-6.25 4.4921875 -6.25 4.4921875 -4 2.875 C-3.2575 2.33617187 -2.515 1.79734375 -1.75 1.2421875 C-1.1725 0.83226562 -0.595 0.42234375 0 0 Z " fill="#888689" transform="translate(1431,295)"/>
<path d="M0 0 C1.32 0.33 2.64 0.66 4 1 C4.1875 3.875 4.1875 3.875 4 7 C3.01 7.66 2.02 8.32 1 9 C0.67 6.03 0.34 3.06 0 0 Z " fill="#25A3DD" transform="translate(475,54)"/>
<path d="M0 0 C0.33 0.99 0.66 1.98 1 3 C3.31 3.33 5.62 3.66 8 4 C8 4.33 8 4.66 8 5 C4.7 5.33 1.4 5.66 -2 6 C-2 4.68 -2 3.36 -2 2 C-1.34 2 -0.68 2 0 2 C0 1.34 0 0.68 0 0 Z " fill="#B0AEAE" transform="translate(727,425)"/>
<path d="M0 0 C0.66 0.33 1.32 0.66 2 1 C-0.31 3.31 -2.62 5.62 -5 8 C-5 5 -5 5 -2.5 2.3125 C-1.675 1.549375 -0.85 0.78625 0 0 Z " fill="#939295" transform="translate(679,227)"/>
</svg>
